<svg width="122" height="113" viewBox="0 0 122 113" fill="none" xmlns="http://www.w3.org/2000/svg">
<path d="M100 14.5858C100.133 10.1268 101.191 6.56123 103.862 3" stroke="#FEEE85" stroke-width="6" stroke-linecap="round"/>
<path d="M110.118 21.1949C113.283 20.008 116.114 19.1369 119 17.333" stroke="#FEEE85" stroke-width="6" stroke-linecap="round"/>
<path d="M18.9934 113.001C18.6765 113.001 18.3722 112.876 18.1463 112.653C17.9203 112.431 17.7908 112.128 17.7857 111.81C17.4085 90.8214 16.4777 68.74 15.1544 49.8024C11.3569 69.022 7.24101 88.3466 2.90281 107.393C2.83141 107.708 2.63821 107.982 2.36573 108.154C2.09324 108.326 1.76379 108.382 1.44984 108.311C1.13589 108.239 0.863171 108.045 0.691667 107.772C0.520163 107.499 0.463927 107.168 0.535332 106.853C5.54933 84.9207 10.2429 62.5987 14.5048 40.5085C14.557 40.217 14.7137 39.9548 14.9454 39.7712C15.1771 39.5875 15.4677 39.4952 15.7626 39.5116C16.0574 39.528 16.3361 39.652 16.5461 39.8602C16.7561 40.0684 16.883 40.3464 16.9028 40.6419C18.5661 61.3984 19.7695 87.3212 20.2077 111.766C20.2105 111.925 20.1821 112.084 20.1239 112.232C20.0658 112.38 19.9791 112.516 19.8688 112.63C19.7584 112.745 19.6266 112.837 19.4809 112.901C19.3352 112.964 19.1784 112.998 19.0196 113.001H18.9934Z" fill="white"/>
<path d="M108.295 107.926C108.024 107.926 107.762 107.835 107.549 107.668C107.336 107.501 107.185 107.267 107.12 107.004C104.386 95.9238 101.607 83.6259 98.9187 71.7304C96.3027 60.189 93.6169 48.2672 90.9639 37.4626C65.8481 38.4377 40.4118 39.7779 15.3288 41.4482C15.1673 41.4642 15.0043 41.4475 14.8495 41.3991C14.6946 41.3506 14.551 41.2715 14.4273 41.1663C14.3035 41.0611 14.2022 40.932 14.1292 40.7867C14.0562 40.6414 14.0131 40.4829 14.0024 40.3205C13.9917 40.1582 14.0137 39.9954 14.067 39.8417C14.1204 39.6881 14.204 39.5468 14.3129 39.4262C14.4218 39.3056 14.5537 39.2082 14.7009 39.1398C14.8481 39.0714 15.0075 39.0333 15.1696 39.028C40.5993 37.3358 66.3996 35.9803 91.8468 35.0008C92.1246 34.9905 92.3976 35.0764 92.6199 35.2439C92.8422 35.4115 93.0002 35.6507 93.0676 35.9213C95.8035 47.0013 98.583 59.2992 101.271 71.1925C103.959 83.0859 106.732 95.3619 109.461 106.42C109.504 106.599 109.506 106.785 109.467 106.964C109.428 107.144 109.349 107.312 109.236 107.457C109.123 107.601 108.979 107.718 108.814 107.799C108.65 107.88 108.469 107.923 108.286 107.924L108.295 107.926Z" fill="white"/>
<path d="M85.9978 104.242H85.9128C85.5928 104.22 85.2948 104.071 85.0843 103.828C84.8738 103.586 84.768 103.269 84.7901 102.948C86.3292 81.0175 88.0601 58.7852 89.9524 36.8831C89.966 36.7243 90.0106 36.5698 90.0838 36.4283C90.1569 36.2868 90.2571 36.1612 90.3787 36.0586C90.5002 35.9559 90.6408 35.8783 90.7922 35.8302C90.9437 35.782 91.1032 35.7643 91.2615 35.7779C91.4198 35.7915 91.5739 35.8363 91.7149 35.9097C91.856 35.983 91.9813 36.0835 92.0836 36.2054C92.1859 36.3273 92.2633 36.4683 92.3113 36.6202C92.3593 36.7721 92.3771 36.932 92.3635 37.0908C90.4778 58.9842 88.7425 81.199 87.2034 103.116C87.1814 103.422 87.0448 103.708 86.8212 103.917C86.5976 104.126 86.3034 104.242 85.9978 104.242Z" fill="white"/>
<path d="M29.9501 92.6685C29.6421 92.6679 29.3458 92.5495 29.1218 92.3375C28.8978 92.1254 28.7629 91.8356 28.7446 91.5273C27.7134 74.4196 26.8523 57.0561 26.1852 39.931C26.1791 39.7719 26.2042 39.6132 26.2592 39.4639C26.3142 39.3146 26.398 39.1776 26.5058 39.0608C26.6136 38.9439 26.7433 38.8495 26.8875 38.783C27.0317 38.7164 27.1875 38.679 27.3461 38.6728C27.5047 38.6666 27.6629 38.6918 27.8118 38.747C27.9607 38.8022 28.0973 38.8862 28.2138 38.9943C28.3303 39.1024 28.4244 39.2325 28.4908 39.3771C28.5572 39.5216 28.5945 39.6779 28.6007 39.837C29.2678 56.9534 30.1267 74.2994 31.1578 91.3917C31.1769 91.7126 31.0682 92.0279 30.8557 92.2685C30.6432 92.5092 30.3441 92.6554 30.0242 92.6751L29.9501 92.6685Z" fill="white"/>
<path d="M44.6585 91.2078C44.3405 91.2073 44.0353 91.0813 43.809 90.8572C43.5826 90.6331 43.4532 90.3287 43.4486 90.0097C43.3396 81.7019 46.3175 69.1154 48.4932 59.9221C49.7554 54.5832 51.0612 49.0628 50.841 47.8975C50.7818 47.5812 50.8502 47.2543 51.0313 46.9886C51.2124 46.7229 51.4914 46.5403 51.8068 46.4808C52.1222 46.4214 52.4482 46.4901 52.7131 46.6717C52.978 46.8533 53.1602 47.1331 53.2194 47.4494C53.5203 49.0563 52.6134 53.0244 50.8454 60.4905C48.7003 69.5614 45.7616 81.9839 45.8684 89.9879C45.8705 90.1472 45.8412 90.3054 45.7822 90.4534C45.7233 90.6014 45.6358 90.7363 45.5249 90.8504C45.414 90.9645 45.2817 91.0555 45.1357 91.1184C44.9896 91.1812 44.8327 91.2146 44.6738 91.2166L44.6585 91.2078Z" fill="white"/>
<path d="M26.0959 91.5426C25.7885 91.5396 25.4938 91.4195 25.2716 91.2066C25.0494 90.9936 24.9163 90.7038 24.8994 90.3961C24.8824 90.0883 24.9829 89.7856 25.1805 89.5494C25.378 89.3133 25.6577 89.1614 25.9629 89.1246L47.3465 86.7196C47.6517 86.7079 47.95 86.8124 48.1816 87.012C48.4132 87.2117 48.5609 87.4919 48.5951 87.7962C48.6293 88.1006 48.5475 88.4067 48.3661 88.653C48.1846 88.8994 47.917 89.0679 47.6168 89.1246L26.2332 91.5295C26.1881 91.5382 26.1424 91.5426 26.0959 91.5426Z" fill="white"/>
<path d="M29.791 97.1745C29.616 97.1741 29.4433 97.1358 29.2845 97.0622C29.1257 96.9886 28.9847 96.8815 28.871 96.7482L24.6047 91.7416C24.4098 91.4956 24.3177 91.1833 24.3477 90.8705C24.3777 90.5578 24.5275 90.2689 24.7656 90.0646C25.0037 89.8604 25.3116 89.7568 25.6243 89.7755C25.9371 89.7943 26.2304 89.934 26.4425 90.1653L30.2836 94.6712L48.1269 92.2969C47.4284 90.9886 46.641 89.73 45.7704 88.5299C45.5816 88.269 45.5039 87.9435 45.5544 87.6252C45.6049 87.3068 45.7794 87.0216 46.0396 86.8323C46.2998 86.643 46.6243 86.565 46.9417 86.6157C47.2592 86.6663 47.5436 86.8413 47.7324 87.1023C49.0196 88.8786 50.1364 90.7731 51.0678 92.7604C51.1486 92.933 51.1877 93.1223 51.1819 93.3129C51.1761 93.5035 51.1257 93.69 51.0346 93.8574C50.9435 94.0248 50.8143 94.1683 50.6576 94.2762C50.5009 94.3842 50.321 94.4536 50.1325 94.4788L29.9545 97.1636C29.9002 97.1706 29.8456 97.1743 29.791 97.1745Z" fill="white"/>
<path d="M63.9428 87.5655H63.8796C63.5593 87.549 63.2587 87.4058 63.0437 87.1672C62.8287 86.9286 62.7169 86.6142 62.7329 86.293C63.5308 70.707 56.4392 58.0375 51.2617 48.7874L50.9674 48.2605C50.8817 48.1213 50.8248 47.9661 50.8004 47.8043C50.776 47.6426 50.7844 47.4775 50.8252 47.3191C50.866 47.1607 50.9383 47.0122 51.0379 46.8825C51.1374 46.7528 51.262 46.6447 51.4043 46.5646C51.5465 46.4845 51.7035 46.434 51.8657 46.4163C52.0278 46.3986 52.1919 46.414 52.3481 46.4615C52.5042 46.509 52.6491 46.5877 52.7741 46.6929C52.8991 46.798 53.0016 46.9274 53.0755 47.0733L53.372 47.6002C58.6934 57.1083 65.9811 70.132 65.144 86.4155C65.1284 86.7248 64.9952 87.0165 64.7717 87.2304C64.5483 87.4443 64.2517 87.5642 63.9428 87.5655Z" fill="white"/>
<path d="M79.1178 85.7643C78.803 85.7644 78.5007 85.6413 78.2751 85.4212C78.0496 85.2011 77.9186 84.9014 77.91 84.5859C77.4588 68.6697 77.2408 52.5175 77.2408 36.5991C77.2414 36.2775 77.369 35.9692 77.5958 35.7418C77.8226 35.5143 78.13 35.3863 78.4507 35.3857C78.7714 35.3863 79.0788 35.5143 79.3056 35.7418C79.5324 35.9692 79.66 36.2775 79.6606 36.5991C79.6606 52.4956 79.8786 68.6172 80.332 84.5181C80.3367 84.6773 80.3099 84.8359 80.2534 84.9848C80.1968 85.1337 80.1115 85.2699 80.0023 85.3857C79.8932 85.5014 79.7623 85.5945 79.6173 85.6594C79.4722 85.7244 79.3158 85.76 79.157 85.7643H79.1178Z" fill="white"/>
<path d="M63.3651 91.8052C62.1334 91.8052 60.8777 90.8498 59.7921 89.0833C59.1512 88.036 58.1832 86.1252 58.8983 85.0736C59.3692 84.3806 60.2063 84.2669 62.77 84.0133C64.0453 83.8865 65.4906 83.7444 66.258 83.5104C67.4808 83.1728 68.7257 82.9215 69.9836 82.7583C70.5962 82.6621 71.176 82.5725 71.7472 82.4654C73.7397 82.085 75.7628 81.6805 77.7618 81.2629C78.5052 81.1077 79.6301 80.8716 80.6808 81.4028C81.1955 81.6944 81.6458 82.0879 82.0041 82.5594C82.6056 83.2901 83.1465 84.0688 83.6217 84.8878C84.0336 85.6002 84.5024 86.2779 85.0234 86.9145C85.1902 87.1133 85.289 87.3606 85.3052 87.62C85.3213 87.8794 85.254 88.1371 85.1132 88.3552C84.9723 88.5733 84.7653 88.7403 84.5227 88.8317C84.2801 88.923 84.0147 88.9338 83.7655 88.8624C83.4146 88.8821 82.5927 89.0308 82.2657 89.0811C82.0085 89.127 81.8079 89.1598 81.7229 89.1707C81.2869 89.2188 80.9948 89.2669 80.6896 89.3172C80.3844 89.3675 80.0356 89.4265 79.5538 89.4833C77.7647 89.6859 75.975 89.8951 74.1844 90.1108C72.3096 90.3294 70.4784 90.6574 68.6996 90.97C67.0776 91.2542 65.399 91.5494 63.6659 91.7746C63.5665 91.7921 63.466 91.8023 63.3651 91.8052ZM61.2352 86.6237C61.6712 87.7168 62.8288 89.374 63.3651 89.3784C65.0415 89.1598 66.6918 88.869 68.2875 88.5892C70.0948 88.27 71.9652 87.9333 73.9032 87.7146C75.6981 87.5004 77.493 87.2905 79.2878 87.085C79.7129 87.0369 79.9963 86.9888 80.2972 86.9385C80.598 86.8882 80.9512 86.827 81.4613 86.7724C81.5267 86.7724 81.6684 86.7374 81.845 86.7046H81.8973C81.7817 86.5231 81.6793 86.3438 81.5659 86.1668C81.1537 85.4545 80.685 84.7768 80.1642 84.1401C80.0056 83.9248 79.8135 83.7366 79.5952 83.5826C79.3009 83.4317 78.6752 83.5629 78.261 83.6503C76.2489 84.0723 74.2106 84.4789 72.2072 84.8615C71.5924 84.9774 70.9646 85.0802 70.3564 85.1676C69.2095 85.3173 68.0741 85.5444 66.9577 85.8476C65.9615 86.1471 64.4595 86.2957 63.0076 86.44C62.4451 86.4816 61.7628 86.5515 61.2352 86.6237Z" fill="white"/>
<path d="M46.8647 47.6643C46.5472 47.6635 46.2427 47.5379 46.0166 47.3145L43.9086 45.2309C43.6911 45.003 43.5707 44.6992 43.5729 44.3837C43.5751 44.0683 43.6996 43.7661 43.9202 43.5412C44.1407 43.3164 44.44 43.1864 44.7544 43.179C45.0688 43.1716 45.3738 43.2873 45.6046 43.5016L47.7149 45.5873C47.8857 45.7564 48.0025 45.9726 48.0504 46.2084C48.0984 46.4442 48.0753 46.689 47.9842 46.9117C47.8931 47.1344 47.7379 47.3248 47.5386 47.4588C47.3392 47.5928 47.1046 47.6643 46.8647 47.6643Z" fill="white"/>
<path d="M51.7522 44.9461C51.4314 44.9461 51.1236 44.8182 50.8967 44.5907C50.6698 44.3631 50.5423 44.0545 50.5423 43.7327V41.2141C50.5354 41.0506 50.5616 40.8873 50.6192 40.7342C50.6768 40.581 50.7647 40.4412 50.8777 40.323C50.9906 40.2048 51.1262 40.1108 51.2763 40.0466C51.4264 39.9823 51.5879 39.9492 51.7512 39.9492C51.9144 39.9492 52.0759 39.9823 52.226 40.0466C52.3761 40.1108 52.5117 40.2048 52.6246 40.323C52.7376 40.4412 52.8255 40.581 52.8831 40.7342C52.9408 40.8873 52.9669 41.0506 52.96 41.2141V43.7327C52.96 44.0541 52.8328 44.3624 52.6064 44.5899C52.3799 44.8174 52.0728 44.9455 51.7522 44.9461Z" fill="white"/>
<path d="M56.5308 47.2293C56.2913 47.23 56.0571 47.1592 55.8578 47.026C55.6585 46.8929 55.5032 46.7033 55.4116 46.4814C55.32 46.2595 55.2963 46.0152 55.3434 45.7798C55.3905 45.5443 55.5064 45.3282 55.6763 45.1589C56.0561 44.7807 56.353 44.3272 56.5483 43.8275C56.6055 43.6789 56.6914 43.5431 56.801 43.4278C56.9106 43.3125 57.0418 43.22 57.187 43.1555C57.3322 43.091 57.4887 43.0559 57.6475 43.0521C57.8063 43.0483 57.9643 43.0759 58.1124 43.1333C58.2606 43.1907 58.396 43.2769 58.511 43.3868C58.6259 43.4967 58.7182 43.6282 58.7824 43.7739C58.8467 43.9195 58.8817 44.0765 58.8855 44.2357C58.8893 44.395 58.8618 44.5534 58.8046 44.702C58.4929 45.5155 58.0155 46.2549 57.4028 46.873C57.289 46.9883 57.153 47.0793 57.0032 47.1406C56.8533 47.2018 56.6926 47.232 56.5308 47.2293Z" fill="white"/>
</svg>
