<svg width="162" height="100" viewBox="0 0 162 100" fill="none" xmlns="http://www.w3.org/2000/svg">
<g clip-path="url(#clip0_3846_20625)">
<path d="M16.5938 28.0685C16.3486 28.0694 16.107 28.0101 15.8902 27.8956C15.6734 27.7812 15.4881 27.6151 15.3507 27.4121C15.2132 27.2091 15.1278 26.9754 15.102 26.7316C15.0763 26.4878 15.1108 26.2414 15.2028 26.0142C16.4938 22.8076 18.2244 19.796 20.3449 17.0661C20.4655 16.9107 20.6154 16.7806 20.7862 16.6831C20.957 16.5857 21.1453 16.5228 21.3404 16.4982C21.5355 16.4735 21.7335 16.4875 21.9232 16.5394C22.1129 16.5912 22.2905 16.68 22.4459 16.8005C22.6013 16.921 22.7314 17.0709 22.8289 17.2417C22.9263 17.4125 22.9892 17.6008 23.0139 17.7959C23.0385 17.991 23.0245 18.1891 22.9727 18.3788C22.9208 18.5684 22.8321 18.746 22.7116 18.9014C20.7609 21.4169 19.169 24.191 17.9815 27.1443C17.8683 27.4189 17.6757 27.6534 17.4286 27.818C17.1814 27.9826 16.8907 28.0698 16.5938 28.0685Z" fill="white"/>
<path d="M21.3607 19.844C20.9752 19.8261 20.6114 19.6604 20.3449 19.3813C20.0784 19.1021 19.9297 18.731 19.9297 18.3451C19.9297 17.9592 20.0784 17.5881 20.3449 17.309C20.6114 17.0299 20.9752 16.8641 21.3607 16.8463L64.33 16.6016C64.7271 16.6016 65.108 16.7593 65.3887 17.0401C65.6695 17.3209 65.8273 17.7017 65.8273 18.0988C65.8273 18.4959 65.6695 18.8767 65.3887 19.1575C65.108 19.4383 64.7271 19.5961 64.33 19.5961L21.3703 19.844H21.3607Z" fill="white"/>
<path d="M69.8611 29.1632C69.5307 29.1621 69.21 29.052 68.9486 28.85C68.6871 28.648 68.4997 28.3654 68.4154 28.0459C67.5357 24.7252 65.8804 21.6607 63.5855 19.1043C63.3204 18.8084 63.1836 18.4193 63.2054 18.0226C63.2271 17.6259 63.4056 17.254 63.7015 16.9889C63.9974 16.7237 64.3865 16.587 64.7832 16.6087C65.1799 16.6304 65.5518 16.8089 65.8169 17.1048C68.4198 20.0175 70.2956 23.5054 71.2907 27.2828C71.3412 27.4729 71.3537 27.6711 71.3274 27.866C71.3011 28.0609 71.2366 28.2487 71.1376 28.4186C71.0386 28.5885 70.907 28.7372 70.7504 28.8561C70.5938 28.9751 70.4152 29.062 70.2249 29.1117C70.1063 29.1443 69.9841 29.1617 69.8611 29.1632Z" fill="white"/>
<path d="M49.9971 29.469C38.457 29.469 26.8944 29.2887 15.4316 28.9281C15.2306 28.9287 15.0316 28.8889 14.8464 28.811C14.6612 28.733 14.4935 28.6186 14.3535 28.4746C14.2134 28.3305 14.1037 28.1597 14.031 27.9724C13.9584 27.785 13.9241 27.585 13.9304 27.3841C13.9367 27.1833 13.9833 26.9857 14.0675 26.8033C14.1518 26.6209 14.2718 26.4572 14.4206 26.3222C14.5694 26.1871 14.7439 26.0834 14.9336 26.0172C15.1233 25.951 15.3245 25.9236 15.525 25.9368C33.5306 26.5003 51.797 26.6226 69.8122 26.2942C70.199 26.3036 70.5672 26.4621 70.84 26.7365C71.1127 27.0109 71.2689 27.38 71.276 27.7668C71.283 28.1537 71.1404 28.5283 70.8779 28.8124C70.6153 29.0966 70.2532 29.2684 69.867 29.2919C63.2705 29.4121 56.6472 29.4712 49.9971 29.469Z" fill="white"/>
<path d="M30.7965 76.6338C30.6882 76.634 30.5802 76.6222 30.4746 76.5984C30.2082 76.5371 29.9637 76.4042 29.7674 76.2141C29.571 76.024 29.4303 75.7839 29.3605 75.5197C25.1153 59.44 20.0623 43.5845 14.2206 28.0135C14.0809 27.6416 14.0948 27.2295 14.259 26.8678C14.4233 26.5061 14.7245 26.2244 15.0964 26.0848C15.4683 25.9452 15.8804 25.959 16.2421 26.1233C16.6038 26.2875 16.8855 26.5887 17.0251 26.9606C22.5472 41.6723 27.4124 56.8122 31.5146 72.0036L67.9283 29.3272C68.0493 29.1602 68.2036 29.0201 68.3814 28.9155C68.5591 28.8109 68.7566 28.7442 68.9614 28.7195C69.1662 28.6948 69.3738 28.7127 69.5714 28.7721C69.7689 28.8314 69.9521 28.9309 70.1093 29.0644C70.2666 29.1979 70.3946 29.3624 70.4853 29.5476C70.576 29.7329 70.6274 29.9349 70.6364 30.141C70.6453 30.347 70.6116 30.5527 70.5373 30.7451C70.463 30.9376 70.3498 31.1126 70.2047 31.2592L31.9364 76.1025C31.7966 76.2688 31.6221 76.4025 31.4252 76.4942C31.2283 76.586 31.0138 76.6336 30.7965 76.6338Z" fill="white"/>
<path d="M59.9502 30.4279C59.7074 30.4289 59.4679 30.3708 59.2525 30.2586C59.0371 30.1464 58.8522 29.9835 58.7138 29.7839C57.1383 27.4651 55.7935 24.9976 54.6986 22.4168C52.9502 24.8704 51.1374 27.295 49.2795 29.6487C49.1485 29.818 48.9826 29.9571 48.7931 30.0567C48.6036 30.1563 48.395 30.214 48.1812 30.2259C47.9675 30.2378 47.7537 30.2036 47.5543 30.1257C47.355 30.0478 47.1746 29.9279 47.0256 29.7743L38.6217 21.2512L31.216 28.8437C31.0689 28.995 30.8914 29.1135 30.6953 29.1913C30.4991 29.269 30.2887 29.3044 30.0779 29.2949C29.8671 29.2855 29.6606 29.2315 29.4722 29.1366C29.2838 29.0416 29.1176 28.9078 28.9846 28.7439C26.2656 25.4179 23.336 22.2699 20.2136 19.3193C19.9405 19.043 19.7855 18.6714 19.7813 18.2829C19.7771 17.8945 19.9241 17.5196 20.1912 17.2375C20.4583 16.9553 20.8245 16.7881 21.2126 16.771C21.6007 16.7539 21.9803 16.8883 22.2711 17.1459C25.0782 19.8019 27.7345 22.613 30.2275 25.5659L37.5431 18.0732C37.6825 17.931 37.8488 17.818 38.0323 17.7406C38.2158 17.6632 38.4129 17.623 38.6121 17.6224C38.8104 17.6215 39.0069 17.6604 39.1899 17.7367C39.373 17.813 39.5389 17.9253 39.6778 18.0668L47.969 26.4385C49.9976 23.8143 51.9714 21.1096 53.8453 18.3888C54.0023 18.161 54.2194 17.9812 54.4723 17.8693C54.7253 17.7573 55.0043 17.7177 55.2785 17.7547C55.5526 17.7917 55.8111 17.904 56.0253 18.079C56.2396 18.254 56.4011 18.4849 56.4921 18.7462C57.3219 21.1269 58.3741 23.4243 59.6347 25.6077C60.8098 22.8507 62.2346 20.2068 63.8914 17.7094C64.1126 17.3826 64.4539 17.1564 64.8411 17.0799C65.2282 17.0035 65.6299 17.0829 65.9587 17.301C66.2876 17.5191 66.517 17.8583 66.5972 18.2447C66.6774 18.631 66.6017 19.0335 66.3868 19.3644C64.3083 22.5022 62.6215 25.8824 61.3638 29.4297C61.2707 29.6904 61.1076 29.9203 60.8922 30.0941C60.6769 30.2679 60.4178 30.379 60.1434 30.415C60.079 30.4236 60.0146 30.4279 59.9502 30.4279Z" fill="white"/>
<path d="M33.0342 73.233H32.9537C32.7573 73.2227 32.5648 73.1738 32.3873 73.0891C32.2098 73.0044 32.0507 72.8855 31.9191 72.7393C31.7875 72.5931 31.6861 72.4223 31.6205 72.2369C31.5549 72.0514 31.5266 71.8549 31.537 71.6585C32.3172 56.8585 31.0999 42.0209 27.9178 27.546C27.8324 27.1579 27.9047 26.7517 28.1188 26.4169C28.3328 26.0821 28.6711 25.846 29.0593 25.7606C29.4474 25.6752 29.8536 25.7475 30.1884 25.9615C30.5232 26.1756 30.7593 26.5139 30.8447 26.902C34.0827 41.6359 35.3217 56.7388 34.5283 71.8034C34.5116 72.1883 34.3469 72.552 34.0685 72.8184C33.7901 73.0848 33.4196 73.2334 33.0342 73.233Z" fill="white"/>
<path d="M31.8302 74.869C31.6829 74.8697 31.5363 74.848 31.3955 74.8046C31.2071 74.7479 31.0317 74.6545 30.8795 74.5299C30.7273 74.4052 30.6012 74.2517 30.5084 74.0782C30.4157 73.9047 30.3581 73.7145 30.3391 73.5187C30.32 73.3229 30.3398 73.1252 30.3973 72.9371C34.3481 59.8933 42.1918 49.6637 49.7746 39.7722C50.7019 38.5648 51.7387 37.3541 52.8399 36.0726C55.0327 33.516 57.2995 30.8693 58.6132 28.2611C58.7917 27.9063 59.1038 27.6369 59.4809 27.5122C59.858 27.3875 60.2692 27.4178 60.624 27.5962C60.9788 27.7747 61.2482 28.0868 61.3729 28.4639C61.4976 28.841 61.4674 29.2522 61.2889 29.6071C59.811 32.5436 57.4251 35.3288 55.1132 38.0238C54.041 39.2699 53.0299 40.4516 52.1541 41.5947C44.7484 51.2769 37.0561 61.2875 33.263 73.8097C33.1692 74.1164 32.9793 74.385 32.7214 74.5757C32.4634 74.7664 32.151 74.8692 31.8302 74.869Z" fill="white"/>
<path d="M30.7995 76.6339C30.6523 76.6332 30.5059 76.6115 30.3648 76.5695C29.9852 76.4534 29.6669 76.1919 29.4793 75.8421C29.2917 75.4922 29.25 75.0824 29.3634 74.7019C33.2273 61.9157 44.5452 32.4634 46.6574 28.2647C46.846 27.9273 47.1575 27.6756 47.527 27.5622C47.8965 27.4487 48.2955 27.4823 48.6409 27.6558C48.9863 27.8293 49.2514 28.1295 49.381 28.4936C49.5106 28.8578 49.4946 29.2579 49.3364 29.6106C47.3046 33.6387 35.9674 63.2327 32.2227 75.5648C32.1306 75.8716 31.9428 76.1408 31.6867 76.3332C31.4307 76.5255 31.1198 76.6309 30.7995 76.6339Z" fill="white"/>
<path d="M99.9941 32.2316C99.336 32.2346 98.6783 32.2034 98.0235 32.1382C96.6293 31.9998 96.0271 31.3139 95.7696 30.7633C95.1256 29.3884 96.069 27.9652 96.7613 26.9284L96.9126 26.703C97.6016 25.5947 98.2179 24.4428 98.7576 23.2545C99.3983 21.822 100.152 20.4428 101.012 19.1299C101.135 18.9492 101.297 18.798 101.486 18.6867C101.674 18.5754 101.885 18.5069 102.103 18.4859C113.943 17.3879 125.966 16.6699 137.834 16.3897C138.613 16.3704 139.679 16.3447 140.681 16.8695C141.647 17.3686 142.22 18.209 142.645 18.824L147.204 25.3958C147.34 25.5946 147.426 25.8232 147.455 26.0623C147.483 26.3014 147.454 26.5439 147.369 26.7692C147.284 26.9945 147.146 27.196 146.966 27.3566C146.787 27.5171 146.571 27.632 146.338 27.6915C141.669 28.87 136.849 28.8507 132.19 28.8346C129.875 28.8346 127.479 28.8346 125.164 28.9634C121.355 29.1952 117.497 29.8521 113.766 30.4896C111.676 30.8438 109.515 31.2141 107.371 31.5071L106.579 31.6166C104.4 31.9711 102.2 32.1766 99.9941 32.2316ZM98.8542 29.2017C101.189 29.353 103.716 28.9988 106.167 28.6575L106.965 28.548C109.061 28.2615 111.196 27.9041 113.26 27.5466C117.072 26.9027 121.01 26.2265 124.98 25.9818C127.392 25.8337 129.836 25.8401 132.203 25.8498C136.105 25.8498 139.83 25.8755 143.456 25.2509L140.188 20.5305C139.961 20.139 139.659 19.7964 139.299 19.5227C138.977 19.3585 138.391 19.3714 137.911 19.3842C126.346 19.6579 114.638 20.3502 103.108 21.4063C102.499 22.4253 101.945 23.4765 101.449 24.5554C100.854 25.8583 100.174 27.1211 99.4145 28.3355C99.363 28.4128 99.305 28.4965 99.2503 28.5835C99.1472 28.7444 98.9927 28.9795 98.8542 29.2017Z" fill="white"/>
<path d="M108.816 31.3908C108.591 31.3911 108.368 31.3406 108.165 31.243C107.962 31.1454 107.784 31.0034 107.644 30.8274L100.483 21.8246C100.36 21.6707 100.269 21.4941 100.215 21.305C100.16 21.1158 100.144 20.9179 100.166 20.7223C100.188 20.5268 100.248 20.3375 100.344 20.1653C100.439 19.9931 100.567 19.8414 100.721 19.7188C101.032 19.4711 101.428 19.3571 101.823 19.4018C102.019 19.4239 102.208 19.4843 102.38 19.5796C102.552 19.6749 102.704 19.8031 102.827 19.957L108.655 27.2694L113.356 19.3903C113.503 19.0768 113.725 18.8046 114.003 18.5977C114.281 18.3908 114.605 18.2557 114.948 18.2044C115.29 18.1531 115.64 18.1872 115.966 18.3036C116.292 18.4201 116.585 18.6153 116.817 18.8719L124.162 25.3439L127.131 18.0541C127.229 17.8136 127.389 17.6029 127.593 17.4425C127.798 17.2822 128.041 17.1777 128.298 17.1394C128.555 17.1011 128.817 17.1303 129.06 17.224C129.302 17.3177 129.516 17.4728 129.681 17.6741C131.439 19.8315 133.168 22.0467 134.832 24.2846C135.99 21.9411 137.431 19.7481 139.121 17.7546C139.244 17.5932 139.399 17.4585 139.576 17.3588C139.753 17.259 139.948 17.1962 140.15 17.1743C140.352 17.1523 140.556 17.1716 140.75 17.231C140.944 17.2904 141.124 17.3887 141.279 17.5198C141.434 17.6509 141.561 17.8122 141.651 17.9938C141.742 18.1755 141.795 18.3736 141.807 18.5763C141.818 18.779 141.789 18.9819 141.719 19.1728C141.65 19.3636 141.543 19.5384 141.404 19.6866C139.354 22.1078 137.713 24.8474 136.545 27.7975C136.446 28.0466 136.282 28.2646 136.069 28.4285C135.857 28.5924 135.605 28.6962 135.338 28.7291C135.072 28.762 134.802 28.7228 134.556 28.6155C134.31 28.5083 134.098 28.337 133.941 28.1194C132.331 25.9009 130.65 23.6953 128.937 21.5348L126.132 28.4221C126.042 28.6445 125.9 28.8419 125.717 28.9978C125.535 29.1537 125.317 29.2635 125.084 29.3181C124.85 29.3727 124.606 29.3704 124.374 29.3114C124.141 29.2524 123.926 29.1385 123.746 28.9792L115.458 21.6829L110.101 30.6599C109.977 30.8686 109.805 31.0439 109.598 31.1708C109.392 31.2976 109.157 31.372 108.916 31.3876L108.816 31.3908Z" fill="white"/>
<path d="M131.183 76.3116C130.93 76.3113 130.681 76.2471 130.459 76.125C130.237 76.0028 130.05 75.8267 129.914 75.6128C119.878 59.7011 108.212 44.8783 95.104 31.3845C94.8277 31.098 94.6766 30.7135 94.6838 30.3155C94.6911 29.9176 94.8561 29.5388 95.1426 29.2626C95.4291 28.9863 95.8136 28.8352 96.2116 28.8424C96.6095 28.8497 96.9883 29.0147 97.2645 29.3012C109.501 41.8994 120.499 55.6438 130.107 70.3451C131.17 62.6882 133.936 55.363 136.624 48.2406C139.2 41.4048 141.87 34.3371 142.948 27.131C143.007 26.7382 143.22 26.3849 143.539 26.1488C143.859 25.9127 144.259 25.8131 144.652 25.872C145.044 25.931 145.398 26.1435 145.634 26.463C145.87 26.7824 145.969 27.1825 145.911 27.5754C144.784 35.0938 142.047 42.316 139.426 49.2967C136.167 57.9324 133.089 66.0916 132.69 74.8819C132.676 75.2 132.56 75.5053 132.36 75.7532C132.161 76.0011 131.887 76.1787 131.579 76.26C131.45 76.2955 131.317 76.3128 131.183 76.3116Z" fill="white"/>
<path d="M131.849 74.7012C131.518 74.6981 131.198 74.5848 130.938 74.3793C130.518 74.0543 130.187 73.6295 129.973 73.1437C129.759 72.6578 129.67 72.1262 129.714 71.5973C129.732 71.3843 129.796 71.1777 129.901 70.9919C128.665 65.8144 126.037 60.9878 123.49 56.2964L117.762 45.7609C114.938 40.5672 112.018 35.1932 108.173 30.6532C107.917 30.3496 107.792 29.9567 107.826 29.5609C107.859 29.1651 108.049 28.7988 108.352 28.5426C108.656 28.2864 109.049 28.1613 109.444 28.1948C109.84 28.2283 110.207 28.4177 110.463 28.7213C114.504 33.4964 117.498 39.0056 120.396 44.3345L126.121 54.8667C129.048 60.2633 132.361 66.3617 133.327 72.9947C133.358 73.2073 133.343 73.424 133.283 73.6302C133.223 73.8364 133.119 74.0272 132.978 74.1897C132.838 74.3522 132.664 74.4826 132.468 74.572C132.273 74.6613 132.061 74.7076 131.846 74.7077L131.849 74.7012Z" fill="white"/>
<path d="M131.009 75.8546C130.918 75.854 130.828 75.8454 130.739 75.8289C130.545 75.7936 130.361 75.7205 130.195 75.6139C130.03 75.5073 129.888 75.3691 129.776 75.2073C129.664 75.0456 129.585 74.8634 129.544 74.6711C129.502 74.4789 129.499 74.2804 129.534 74.0869C130.043 71.2953 127.693 55.9268 125.993 44.7055C124.843 37.1902 123.848 30.6989 123.594 27.6014C123.6 27.229 123.745 26.8723 124 26.601C124.256 26.3298 124.603 26.1634 124.974 26.1344C125.346 26.1055 125.715 26.216 126.009 26.4444C126.303 26.6727 126.502 27.0026 126.566 27.3696C126.814 30.3641 127.854 37.1194 128.939 44.2675C131.363 60.1287 133.038 71.5915 132.481 74.6407C132.415 74.9826 132.232 75.2908 131.963 75.5124C131.695 75.7339 131.357 75.8549 131.009 75.8546Z" fill="white"/>
<path d="M131.007 75.8546C130.916 75.854 130.826 75.8454 130.736 75.8289C130.543 75.7936 130.358 75.7205 130.193 75.6139C130.028 75.5072 129.885 75.3691 129.773 75.2073C129.662 75.0456 129.583 74.8634 129.541 74.6711C129.5 74.4789 129.497 74.2803 129.532 74.0869C130.427 69.1186 134.307 35.2519 133.647 27.3696C133.614 26.9738 133.74 26.5811 133.997 26.278C134.253 25.9748 134.62 25.7861 135.016 25.7532C135.411 25.7203 135.804 25.846 136.107 26.1027C136.41 26.3593 136.599 26.7258 136.632 27.1216C137.321 35.4225 133.412 69.4696 132.472 74.6246C132.41 74.9683 132.229 75.2795 131.961 75.5041C131.694 75.7287 131.356 75.8527 131.007 75.8546Z" fill="white"/>
<path d="M73.5681 58.1448C64.4913 58.1448 55.408 53.6917 50.2111 46.1733C49.9852 45.8466 49.8984 45.4436 49.9696 45.053C50.0409 44.6623 50.2644 44.3159 50.591 44.09C50.9177 43.8641 51.3207 43.7773 51.7114 43.8485C52.1021 43.9198 52.4484 44.1433 52.6743 44.47C55.5175 48.585 59.8482 51.8338 64.868 53.6209C69.8878 55.4079 75.294 55.6301 80.1013 54.2391C80.483 54.1289 80.8929 54.1749 81.2407 54.3669C81.5885 54.559 81.8458 54.8813 81.956 55.263C82.0661 55.6447 82.0201 56.0546 81.8281 56.4024C81.6361 56.7502 81.3137 57.0075 80.932 57.1177C78.538 57.8052 76.0589 58.151 73.5681 58.1448Z" fill="white"/>
<path d="M80.0936 58.2999C79.7147 58.2938 79.3521 58.1446 79.0786 57.8822C78.8052 57.6197 78.6412 57.2635 78.6196 56.8852C78.598 56.5068 78.7204 56.1343 78.9622 55.8424C79.2039 55.5506 79.5472 55.361 79.9229 55.3118C83.7868 54.8643 87.773 53.1964 91.7721 50.3532C95.4106 47.7773 98.6595 44.5124 101.805 41.3665L106.464 36.7073C106.745 36.4264 107.126 36.2686 107.524 36.2686C107.921 36.2686 108.302 36.4264 108.583 36.7073C108.864 36.9883 109.022 37.3694 109.022 37.7667C109.022 38.164 108.864 38.5451 108.583 38.826L103.924 43.4691C100.704 46.7051 97.3522 50.0473 93.5076 52.781C89.0932 55.9204 84.6401 57.7686 80.2675 58.2741C80.2103 58.2876 80.1522 58.2962 80.0936 58.2999Z" fill="white"/>
<path d="M16.9191 86.3221C16.5512 86.3212 16.1963 86.1861 15.921 85.9421C13.9504 84.1912 11.5407 83.0092 8.94991 82.5226C8.75646 82.4871 8.5719 82.4138 8.40677 82.307C8.24163 82.2001 8.09916 82.0618 7.98749 81.8999C7.87581 81.738 7.79712 81.5557 7.75591 81.3634C7.71469 81.1711 7.71176 80.9725 7.74728 80.7791C7.7828 80.5856 7.85607 80.401 7.96292 80.2359C8.06976 80.0708 8.20809 79.9283 8.36999 79.8166C8.5319 79.705 8.71421 79.6263 8.90653 79.5851C9.09885 79.5438 9.2974 79.5409 9.49085 79.5764C11.766 79.9958 13.9345 80.865 15.8694 82.133C16.1886 79.8192 16.2588 77.4778 16.0787 75.1491C16.0208 74.3731 15.9306 73.5713 15.8469 72.7986C15.5894 70.9536 15.4914 69.0899 15.5539 67.2282C15.76 63.7829 17.0737 60.9655 19.2503 59.2976C20.3057 58.5277 21.4898 57.952 22.7471 57.5975C23.9481 57.224 25.7609 56.7668 27.6381 57.1274C29.686 57.5202 31.3378 58.85 31.9463 60.5984C32.0674 60.9709 32.0378 61.376 31.8637 61.7268C31.6897 62.0777 31.3851 62.3464 31.0152 62.4753C30.6454 62.6042 30.2398 62.583 29.8853 62.4163C29.5309 62.2497 29.2559 61.9508 29.1193 61.5837C28.8681 60.8657 28.0471 60.2571 27.0746 60.0704C26.1022 59.8836 25.059 60.0156 23.639 60.4567C22.7161 60.7095 21.8444 61.1214 21.0631 61.6739C19.6077 62.7912 18.6868 64.8938 18.5355 67.4085C18.4845 69.0994 18.5771 70.7916 18.8124 72.4669C18.9026 73.2687 18.996 74.093 19.0571 74.9205C19.3181 78.3399 19.0893 81.7792 18.3777 85.1339C18.3227 85.391 18.2013 85.6291 18.0256 85.8246C17.8499 86.02 17.6261 86.166 17.3763 86.248C17.2289 86.2971 17.0745 86.3221 16.9191 86.3221Z" fill="white"/>
<path d="M63.266 86.4576C62.9054 86.4573 62.557 86.3268 62.2849 86.0902C62.0128 85.8536 61.8353 85.5267 61.7849 85.1696C61.5367 83.4447 61.0138 81.7706 60.2361 80.211C59.0682 81.2283 57.6835 81.9656 56.1875 82.3668C54.6916 82.768 53.1238 82.8225 51.6036 82.5261C46.558 81.4893 43.3639 76.9074 40.7654 72.6926L37.4296 67.296C37.2213 66.9579 37.1558 66.5508 37.2476 66.1643C37.3394 65.7779 37.5809 65.4437 37.9191 65.2353C38.2572 65.0269 38.6643 64.9614 39.0508 65.0532C39.4373 65.145 39.7714 65.3866 39.9798 65.7247L43.3059 71.1213C45.679 74.9851 48.3193 78.7943 52.196 79.5928C53.5176 79.8397 54.8819 79.711 56.134 79.2216C57.3862 78.7321 58.476 77.9014 59.2798 76.8237C59.4195 76.6317 59.6026 76.4754 59.814 76.3674C60.0255 76.2594 60.2595 76.2029 60.4969 76.2022H60.5259C60.7682 76.2073 61.0057 76.2708 61.2182 76.3874C61.4307 76.504 61.6118 76.6703 61.7462 76.872C63.3124 79.2437 64.336 81.9318 64.7439 84.7446C64.8001 85.1378 64.6981 85.5371 64.4603 85.8552C64.2225 86.1733 63.8683 86.3841 63.4753 86.4415C63.4059 86.4513 63.336 86.4566 63.266 86.4576Z" fill="white"/>
<path d="M140.953 42.6828C139.735 42.6843 138.52 42.5603 137.328 42.3125C137.135 42.2721 136.952 42.1942 136.79 42.0832C136.627 41.9721 136.488 41.8302 136.381 41.6655C136.273 41.5007 136.199 41.3164 136.163 41.123C136.126 40.9296 136.128 40.7309 136.169 40.5383C136.209 40.3457 136.287 40.1629 136.398 40.0004C136.509 39.838 136.651 39.6989 136.816 39.5913C136.98 39.4837 137.165 39.4095 137.358 39.3731C137.551 39.3367 137.75 39.3388 137.943 39.3792C142.773 40.3999 148.221 38.8672 152.11 35.3768C155.865 32.0281 158.193 27.047 158.505 21.6665C158.528 21.2699 158.709 20.8988 159.006 20.6349C159.303 20.371 159.692 20.236 160.089 20.2595C160.486 20.2829 160.857 20.463 161.121 20.7601C161.385 21.0572 161.52 21.447 161.496 21.8436C161.139 27.9904 158.45 33.7379 154.119 37.6211C150.491 40.8509 145.811 42.65 140.953 42.6828Z" fill="white"/>
<path d="M16.4764 35.6834C16.3336 35.6834 16.1915 35.6628 16.0546 35.6222C12.2696 34.5052 8.74047 32.6564 5.66724 30.1806C3.44874 28.3904 2.04809 26.671 1.26565 24.7744C0.0227781 21.7445 0.322228 17.9934 2.12214 14.4901C3.65481 11.4956 5.93127 9.10647 8.13689 6.79782C8.41101 6.51046 8.78806 6.34376 9.18509 6.3344C9.58212 6.32504 9.96661 6.47378 10.254 6.74791C10.5413 7.02203 10.708 7.39908 10.7174 7.79611C10.7267 8.19314 10.578 8.57762 10.3039 8.86498C8.24959 11.0062 6.14056 13.2344 4.78821 15.8425C3.39078 18.5762 3.11387 21.4129 4.03154 23.6282C4.61756 25.0449 5.73486 26.3876 7.55087 27.8526C10.314 30.0788 13.4862 31.7426 16.8885 32.7501C17.2337 32.8519 17.5306 33.0746 17.725 33.3775C17.9194 33.6803 17.9981 34.0431 17.9469 34.3993C17.8957 34.7555 17.7179 35.0813 17.4461 35.3171C17.1743 35.5529 16.8266 35.683 16.4667 35.6834H16.4764Z" fill="white"/>
<path d="M108.449 82.9479C108.307 82.9486 108.166 82.928 108.03 82.8868L100.679 80.7391C100.298 80.6277 99.9765 80.3693 99.7857 80.0209C99.5949 79.6725 99.5503 79.2625 99.6617 78.8812C99.7732 78.4999 100.032 78.1785 100.38 77.9877C100.728 77.7969 101.138 77.7523 101.52 77.8637L107.042 79.4737C107.417 74.3743 108.656 69.3757 110.706 64.6912C111.203 63.4809 111.972 62.4014 112.954 61.5364C113.935 60.6714 115.103 60.0443 116.366 59.7036C122.388 58.0389 130.173 62.0155 133.448 64.3531C133.612 64.4658 133.751 64.6099 133.859 64.7771C133.966 64.9443 134.039 65.1312 134.074 65.327C134.108 65.5228 134.104 65.7234 134.06 65.9173C134.016 66.1111 133.934 66.2943 133.818 66.4561C133.703 66.618 133.556 66.7552 133.387 66.8598C133.218 66.9644 133.03 67.0343 132.834 67.0654C132.638 67.0965 132.437 67.0883 132.244 67.0411C132.051 66.9939 131.869 66.9087 131.709 66.7906C129.538 65.2817 127.164 64.0892 124.658 63.2487C121.708 62.2827 119.119 62.0477 117.165 62.6047C116.33 62.8228 115.559 63.2351 114.913 63.8081C114.268 64.3811 113.768 65.0986 113.452 65.9019C111.291 70.8248 110.101 76.1185 109.946 81.4926C109.938 81.884 109.776 82.2567 109.496 82.5305C109.216 82.8044 108.84 82.9577 108.449 82.9576V82.9479Z" fill="white"/>
<path d="M139.329 99.8388C138.995 99.8399 138.669 99.7288 138.405 99.5232C138.141 99.3176 137.953 99.0295 137.872 98.7047C137.791 98.38 137.821 98.0374 137.957 97.7317C138.093 97.426 138.328 97.1748 138.624 97.0182L143.776 94.2781C141.2 90.0922 139.416 85.4878 137.684 81.0186C135.884 76.3884 134.026 71.5972 131.328 67.4468C131.111 67.1137 131.036 66.7083 131.119 66.3198C131.201 65.9312 131.434 65.5913 131.767 65.3748C132.1 65.1583 132.506 65.083 132.894 65.1654C133.283 65.2478 133.623 65.4813 133.839 65.8143C136.708 70.2255 138.624 75.152 140.476 79.9367C142.327 84.7215 144.275 89.7316 147.157 93.998C147.274 94.1719 147.354 94.3687 147.391 94.5754C147.427 94.7821 147.42 94.9943 147.369 95.198C147.319 95.4018 147.226 95.5926 147.096 95.758C146.967 95.9235 146.805 96.06 146.619 96.1585L140.038 99.6617C139.82 99.7788 139.577 99.8397 139.329 99.8388Z" fill="white"/>
<path d="M56.926 10.0336C56.6126 10.034 56.307 9.93597 56.0522 9.75343C55.7975 9.57089 55.6064 9.31301 55.506 9.01614L53.4002 2.76312C53.3368 2.57665 53.3107 2.37951 53.3235 2.18296C53.3362 1.9864 53.3876 1.79429 53.4746 1.61759C53.5616 1.44088 53.6826 1.28304 53.8306 1.15308C53.9786 1.02313 54.1507 0.923592 54.3372 0.860166C54.5237 0.79674 54.7208 0.770663 54.9174 0.783425C55.1139 0.796187 55.306 0.847538 55.4827 0.934545C55.6594 1.02155 55.8173 1.14251 55.9472 1.29052C56.0772 1.43853 56.1767 1.61068 56.2401 1.79715L58.3427 8.05017C58.4059 8.23642 58.4317 8.4333 58.4186 8.62952C58.4055 8.82575 58.3538 9.01746 58.2664 9.19366C58.1791 9.36986 58.0578 9.52708 57.9096 9.6563C57.7613 9.78553 57.589 9.88421 57.4025 9.94669C57.2497 10.0021 57.0886 10.0315 56.926 10.0336Z" fill="#FEEE85"/>
<path d="M64.4783 9.50538C64.2084 9.5042 63.9438 9.43025 63.7124 9.29132C63.4811 9.15239 63.2914 8.95363 63.1635 8.71597C63.0357 8.47831 62.9742 8.21056 62.9857 7.94092C62.9973 7.67128 63.0813 7.40973 63.229 7.18384C64.7477 4.87355 66.4467 2.68688 68.31 0.644252C68.5785 0.34878 68.9535 0.172099 69.3523 0.153078C69.7512 0.134057 70.1412 0.274254 70.4367 0.542826C70.7322 0.811399 70.9088 1.18635 70.9279 1.58519C70.9469 1.98403 70.8067 2.37409 70.5381 2.66956C68.7807 4.59203 67.1796 6.65179 65.7501 8.8292C65.6119 9.03955 65.4229 9.21173 65.2007 9.32989C64.9784 9.44805 64.73 9.5084 64.4783 9.50538Z" fill="#FEEE85"/>
<path d="M74.1588 18.9973C73.9591 18.9973 73.7627 18.9973 73.5663 18.9973C73.1692 18.9918 72.7906 18.8287 72.5137 18.544C72.2369 18.2593 72.0844 17.8762 72.09 17.4791C72.0955 17.082 72.2586 16.7034 72.5433 16.4266C72.828 16.1497 73.2111 15.9973 73.6082 16.0028H73.6532C75.6044 16.0616 77.551 15.7828 79.4072 15.1785C79.7806 15.0731 80.1804 15.1164 80.5226 15.2995C80.8648 15.4825 81.1227 15.791 81.2423 16.1602C81.3619 16.5293 81.3338 16.9305 81.1639 17.2794C80.9941 17.6283 80.6956 17.8978 80.3313 18.0313C78.337 18.6743 76.2541 19.0002 74.1588 18.9973Z" fill="#FEEE85"/>
<path d="M129.692 10.8807C129.442 10.8808 129.195 10.8181 128.975 10.6983C128.755 10.5784 128.569 10.4054 128.433 10.1949L125.162 5.12675C125.055 4.96164 124.982 4.7771 124.946 4.58369C124.911 4.39029 124.914 4.19179 124.955 3.99953C125.039 3.61126 125.273 3.27199 125.606 3.05637C125.94 2.84074 126.345 2.76642 126.733 2.84975C127.122 2.93308 127.461 3.16724 127.677 3.50071L130.951 8.56881C131.162 8.90162 131.234 9.30433 131.15 9.68953C131.066 10.0747 130.834 10.4114 130.504 10.6263C130.264 10.7891 129.982 10.8776 129.692 10.8807Z" fill="#FEEE85"/>
<path d="M141.161 9.11887C141.053 9.11792 140.945 9.10605 140.839 9.08345C140.451 8.99796 140.113 8.76203 139.9 8.42752C139.686 8.09302 139.614 7.68732 139.699 7.29963L140.411 4.04755C140.453 3.85537 140.533 3.67339 140.645 3.51202C140.758 3.35065 140.901 3.21304 141.067 3.10705C141.233 3.00105 141.418 2.92875 141.612 2.89428C141.805 2.8598 142.004 2.86381 142.196 2.9061C142.388 2.94838 142.57 3.0281 142.732 3.14071C142.893 3.25332 143.031 3.39662 143.137 3.56241C143.243 3.7282 143.315 3.91325 143.349 4.10698C143.384 4.30071 143.38 4.49934 143.337 4.69152L142.623 7.94039C142.549 8.27381 142.365 8.57229 142.099 8.78655C141.833 9.00081 141.502 9.11803 141.161 9.11887Z" fill="#FEEE85"/>
</g>
<defs>
<clipPath id="clip0_3846_20625">
<rect width="161.316" height="100" fill="white" transform="translate(0.34375)"/>
</clipPath>
</defs>
</svg>
