<svg width="88" height="79" viewBox="0 0 88 79" fill="none" xmlns="http://www.w3.org/2000/svg">
<g clip-path="url(#clip0_2311_55563)">
<path d="M24.14 65.0197C24.3105 66.9095 24.7576 68.764 25.4654 70.5218C26.1217 72.1315 27.0225 73.6254 27.9105 75.1096C28.4381 75.9853 28.9014 76.9994 29.5513 77.7914C30.3974 78.8699 31.9577 79.0599 33.0355 78.2131C33.0419 78.2067 33.0483 78.2003 33.058 78.197C33.917 77.4984 34.2419 76.4167 34.6569 75.4347C35.0398 74.5365 35.4548 73.6576 35.8955 72.7947C36.8929 70.8373 37.9224 68.9121 38.7234 66.8645C39.1063 66.0532 38.7588 65.0873 37.9513 64.701C37.1438 64.3146 36.1754 64.6656 35.7894 65.4737C35.7572 65.5413 35.7282 65.6121 35.7057 65.6829C34.4478 68.8702 32.6237 71.7838 31.3497 74.9647C31.2692 75.1675 31.1984 75.3703 31.1019 75.5603C31.2338 75.2898 31.0119 75.7406 30.9829 75.7213C30.9539 75.7019 31.118 75.6086 31.1309 75.6086C31.3046 75.5377 31.4976 75.5377 31.6714 75.6086C30.9218 75.4412 32.1507 75.7406 32.0542 75.7374C32.0446 75.7374 31.8805 75.512 31.9867 75.6633C31.4848 74.9421 31.073 74.1308 30.6226 73.3743C29.8408 72.1187 29.1395 70.8115 28.5314 69.4658C28.3738 69.0988 28.2258 68.7285 28.0971 68.3486C27.9845 68.0396 27.888 67.7208 27.814 67.4021C27.5759 66.4395 27.415 65.4608 27.325 64.4724C27.2413 63.6031 26.2794 63.0075 25.4622 63.146C24.5485 63.2973 24.0434 64.1376 24.1367 65.01L24.14 65.0197Z" fill="#FB685F"/>
<path d="M25.7391 62.656L14.775 61.9091C13.0988 61.7964 11.3454 61.8125 9.70468 61.5034C8.33095 61.2394 7.43657 60.3702 6.70627 59.2112C3.71751 54.4914 3.57917 48.6835 3.78507 43.2876C3.89767 40.3418 4.05531 37.4024 4.21295 34.4533C4.25799 33.1205 4.36738 31.7908 4.54754 30.4709C4.57649 30.297 4.6151 30.1231 4.64405 29.9461C4.69875 29.5726 4.53145 30.3067 4.64405 29.9654C4.66336 29.9042 4.67944 29.8431 4.69553 29.7819C4.79204 29.4664 4.90465 29.1573 5.03977 28.8547C5.46444 27.8631 5.83763 26.9101 6.48106 26.1374C7.1985 25.2778 8.67518 24.6307 9.77868 24.1478C15.2382 21.7654 21.4024 22.1678 27.2094 22.3835C34.226 22.6507 41.2202 23.0821 48.195 24.0737C51.7275 24.576 55.2439 25.1845 58.741 25.8992C60.4396 26.2469 62.1383 26.6171 63.8273 27.0228C65.1206 27.3351 66.3174 27.715 67.0638 28.7066C67.6976 29.5501 67.9775 30.7348 68.1223 31.9003C68.3121 33.3941 68.2574 34.8043 68.1705 36.3947C67.9678 39.9748 67.3791 43.5162 66.7292 47.0351C66.0697 50.6023 65.3909 54.1662 64.7217 57.7302C64.4547 59.15 64.2681 60.7146 63.5281 61.9928C62.9458 62.9876 62.1737 63.5349 61.1281 63.9567C60.1984 64.3333 58.9179 64.5265 57.7501 64.5941C56.5436 64.6328 55.334 64.6006 54.1307 64.4975L43.1505 63.7377L37.7939 63.3675C35.722 63.2226 35.381 66.4453 37.4657 66.5902L48.9833 67.379C52.2487 67.6043 55.5817 68.0358 58.8568 67.7396C61.6654 67.4852 64.5737 66.3938 66.1308 63.9052C67.0928 62.3695 67.4595 60.6116 67.7909 58.8538C68.1384 57.0026 68.489 55.1482 68.8365 53.2938C69.5411 49.5334 70.31 45.7827 70.8472 41.9934C71.3459 38.4938 71.7673 34.7914 71.3008 31.2628C70.8794 28.0917 69.274 25.3068 66.0922 24.2959C64.2681 23.7164 62.3571 23.3719 60.4976 22.9695C58.6895 22.5831 56.8718 22.2225 55.0509 21.8942C47.5902 20.5452 40.0524 19.692 32.4791 19.3379C29.1011 19.1898 25.6973 19.0449 22.3128 19.0031C19.1085 18.9741 15.8592 19.0868 12.7224 19.8144C11.1395 20.1685 9.5953 20.6804 8.11539 21.3436C6.6194 22.0165 5.05907 22.8278 3.96845 24.077C3.10302 25.0718 2.58184 26.3467 2.06066 27.5443C1.74216 28.2784 1.51052 29.0478 1.36896 29.8366C0.870299 32.4991 0.912123 35.2969 0.773784 37.9948C0.706223 39.1828 0.651531 40.374 0.60649 41.5652C0.403808 46.8419 0.313727 52.0897 2.13465 57.1346C3.24136 60.2092 5.09124 63.6573 8.48537 64.5233C10.2452 64.974 12.1079 64.974 13.9095 65.0964L19.7905 65.502L25.4077 65.8851C27.4796 66.0268 27.8206 62.8073 25.7359 62.6657V62.6592L25.7391 62.656Z" fill="#FB685F"/>
<path d="M42.1851 52.2796C41.7475 52.2796 41.3132 52.1026 40.9979 51.7548C35.8955 46.1594 31.652 41.9869 25.8643 36.8712C25.1983 36.282 25.134 35.2647 25.7227 34.5982C26.3115 33.9318 27.3281 33.8706 27.9941 34.4566C33.8751 39.656 38.1893 43.8961 43.3754 49.5817C43.9738 50.2385 43.9288 51.2558 43.2725 51.8547C42.9636 52.138 42.5743 52.2764 42.1883 52.2764L42.1851 52.2796Z" fill="#FB685F"/>
<path d="M26.7716 50.8637C26.3791 50.8637 25.9834 50.7188 25.6746 50.4291C25.0247 49.8238 24.9925 48.8032 25.5974 48.1529C31.2918 42.0552 34.377 39.1931 41.4323 34.2608C42.1594 33.7521 43.1632 33.9292 43.6715 34.66C44.1798 35.3876 44.0028 36.3921 43.2725 36.9008C36.4039 41.701 33.5567 44.341 27.9459 50.3518C27.6306 50.6898 27.1995 50.8637 26.7716 50.8637Z" fill="#FB685F"/>
</g>
<path d="M68.6137 12.2739C68.1032 8.5493 68.4852 5.43862 70.2074 2.10702" stroke="#FEEE85" stroke-width="4" stroke-linecap="round"/>
<path d="M77.9371 16.3592C80.4004 14.9322 82.6304 13.8141 84.7762 11.9131" stroke="#FEEE85" stroke-width="4" stroke-linecap="round"/>
<path d="M81.2659 27.6299L83.5111 27.2536" stroke="#FEEE85" stroke-width="4" stroke-linecap="round"/>
<defs>
<clipPath id="clip0_2311_55563">
<rect width="71" height="59.7439" fill="white" transform="translate(0.5 19)"/>
</clipPath>
</defs>
</svg>
