<svg width="100" height="80" viewBox="0 0 243 101" fill="none" xmlns="http://www.w3.org/2000/svg">
<path d="M8.74531 65.4267C-8.36633 42.8201 0.00589443 -0.0735424 30.5939 9.46891e-05C43.3358 9.46891e-05 53.4339 9.31519 53.4339 22.2753C54.0948 45.3974 23.1764 55.7802 22.8459 41.605C22.8459 38.2177 24.5717 36.7818 29.1985 35.7509C36.5793 34.0941 40.3982 29.0131 40.3982 22.7171C40.3982 15.9793 36.4691 11.8557 29.9329 11.8557C13.2619 12.0398 8.15779 41.9732 18.4762 56.5534C20.0184 58.7257 20.7528 60.3089 20.7528 62.113C20.9732 68.7035 12.4173 70.7653 8.74531 65.4267Z" fill="white"/>
<path d="M96.9839 1.28873C112.076 1.28873 122.284 11.8557 122.284 27.7613C122.798 63.1072 71.1695 63.0704 71.6836 27.7613C71.6836 11.8925 81.8918 1.28873 96.9839 1.28873ZM97.6449 42.1574C105.393 42.1574 109.579 35.6773 109.579 28.5713C109.542 8.72608 84.6459 7.87926 84.4623 27.9454C84.4255 36.0455 90.2641 42.1574 97.6449 42.1574Z" fill="white"/>
<path d="M178.981 7.03249C178.981 11.2298 176.63 12.7026 171.894 13.0707L164.146 13.6967C165.871 22.8277 166.055 35.2355 162.677 48.7479C161.502 53.5712 159.115 55.9644 155.48 55.9644C149.641 55.9644 148.943 50.773 150.302 45.6552C153.313 33.8732 152.652 22.754 151.404 15.5376C150.265 15.6849 142.554 17.2681 141.563 17.084C138.368 17.084 135.541 15.3535 135.541 11.2298C135.541 7.95295 137.45 6.59066 140.277 5.55974C141.636 5.11792 159.556 1.36243 172.297 1.36243C176.63 1.39925 178.981 3.68199 178.981 7.03249Z" fill="white"/>
<path d="M217.463 1.28873C232.555 1.28873 242.763 11.8557 242.763 27.7613C243.277 63.1072 191.649 63.0704 192.163 27.7613C192.163 11.8925 202.371 1.28873 217.463 1.28873ZM218.124 42.1574C225.872 42.1574 230.058 35.6773 230.058 28.5713C230.021 8.72608 205.125 7.87926 204.941 27.9454C204.905 36.0455 210.743 42.1574 218.124 42.1574Z" fill="white"/>
<path d="M153.57 100.699C135.907 100.699 118.649 91.6048 109.028 75.2942C107.229 72.2382 108.22 68.2986 111.305 66.4945C114.352 64.6904 118.282 65.6845 120.081 68.7773C130.987 87.2602 154.818 93.4089 173.252 82.4738C180.669 78.3501 186.985 88.9907 179.788 93.5562C171.563 98.3794 162.493 100.699 153.57 100.699Z" fill="white"/>
</svg>
