<svg width="100" height="50" viewBox="0 0 377 186" fill="none" xmlns="http://www.w3.org/2000/svg">
<path d="M13.5808 117.501C-12.9923 76.9015 0.0091536 -0.132076 47.51 0.000170054C67.2972 0.000170054 82.9788 16.7294 82.9788 40.0047C84.0052 81.5302 35.9912 100.177 35.478 74.7195C35.478 68.6361 38.1581 66.0573 45.3431 64.2059C56.8049 61.2303 62.7353 52.1053 62.7353 40.7982C62.7353 28.6977 56.6338 21.2919 46.4835 21.2919C20.5947 21.6225 12.6684 75.3807 28.6921 101.566C31.0871 105.467 32.2276 108.31 32.2276 111.55C32.5697 123.386 19.2832 127.089 13.5808 117.501Z" fill="black"/>
<path d="M150.609 2.31445C174.046 2.31445 189.899 21.2918 189.899 49.8571C190.697 113.335 110.522 113.269 111.32 49.8571C111.32 21.358 127.173 2.31445 150.609 2.31445ZM151.636 75.7113C163.668 75.7113 170.169 64.0736 170.169 51.3118C170.112 15.6714 131.449 14.1505 131.164 50.1877C131.107 64.7349 140.174 75.7113 151.636 75.7113Z" fill="black"/>
<path d="M277.943 12.6305C277.943 20.1685 274.294 22.8135 266.938 23.4747L254.906 24.5988C257.586 40.9974 257.871 63.2809 252.625 87.5482C250.8 96.2104 247.093 100.508 241.448 100.508C232.381 100.508 231.298 91.185 233.408 81.9938C238.084 60.8344 237.057 40.8651 235.118 27.905C233.351 28.1695 221.376 31.0128 219.836 30.6822C214.875 30.6822 210.484 27.5744 210.484 20.1686C210.484 14.2836 213.449 11.837 217.84 9.98556C219.95 9.19208 247.778 2.44751 267.565 2.44751C274.294 2.51363 277.943 6.61327 277.943 12.6305Z" fill="black"/>
<path d="M337.705 2.31445C361.141 2.31445 376.994 21.2918 376.994 49.8571C377.792 113.335 297.617 113.269 298.415 49.8571C298.415 21.358 314.268 2.31445 337.705 2.31445ZM338.731 75.7113C350.763 75.7113 357.264 64.0736 357.264 51.3118C357.207 15.6714 318.545 14.1505 318.259 50.1877C318.202 64.7349 327.269 75.7113 338.731 75.7113Z" fill="black"/>
<path d="M238.483 186C211.055 186 184.253 169.668 169.313 140.375C166.519 134.887 168.059 127.812 172.849 124.572C177.582 121.332 183.683 123.117 186.477 128.671C203.413 161.865 240.422 172.908 269.048 153.269C280.567 145.863 290.375 164.973 279.198 173.172C266.425 181.834 252.34 186 238.483 186Z" fill="black"/>
</svg>
