<svg width="68" height="26" viewBox="0 0 68 26" fill="none" xmlns="http://www.w3.org/2000/svg">
<path d="M2.76745 15.9759C6.04462 13.21 7.73013 11.0968 12.229 10.6077C14.9789 10.3087 16.2966 10.936 18.6342 12.4226C21.6002 14.3088 25.8575 14.1828 28.7628 12.2657C31.6087 10.3876 33.7155 7.29985 36.824 5.8443C41.298 3.74938 45.6298 4.76693 50.2909 5.16368C55.8412 5.63613 61.7614 7.10181 65.6466 2.26868" stroke="#FEEE85" stroke-width="4" stroke-linecap="round"/>
<path d="M28 23.0551C30.588 23.0551 32.8251 23.1463 34.9577 21.4962C37.3387 19.6538 39.7054 17.0363 42.5471 15.8677C44.6784 14.9913 47.3576 14.8632 49.6361 15.1129C50.7447 15.2344 51.8122 15.6951 52.8688 16.0236C54.3057 16.4704 55.607 16.6117 57.0942 16.7046" stroke="#FEEE85" stroke-width="4" stroke-linecap="round"/>
</svg>
