<svg width="26" height="29" viewBox="0 0 26 29" fill="none" xmlns="http://www.w3.org/2000/svg">
<path d="M1.30845 4.87161C4.87104 3.96285 8.4505 3.12018 12.0356 2.28301C12.3727 4.02894 12.7773 5.75834 13.21 7.48224C13.3505 8.0275 13.9686 8.34143 14.508 8.20374L20.3127 6.70015C21.2286 6.46332 21.2961 5.29019 20.5656 4.81103C18.4808 3.45064 16.3905 2.08474 14.3057 0.724346C14.1035 0.592162 13.9012 0.448963 13.6989 0.31678C13.5022 0.0634274 13.1875 -0.0302036 12.8728 0.00835004C12.6424 0.00835004 12.4121 0.0634272 12.1704 0.124011C10.6195 0.487517 9.06861 0.85653 7.5177 1.22554C5.25877 1.76529 2.99984 2.30504 0.746524 2.87784C-0.562758 3.21381 -0.00645402 5.20758 1.30845 4.87161ZM14.3732 3.24685C15.4127 3.9298 16.4579 4.60724 17.4975 5.29019C16.6602 5.50499 15.8286 5.71979 14.9913 5.9401C14.7721 5.04786 14.5642 4.15011 14.3676 3.25236L14.3732 3.24685Z" fill="#FFF9D0"/>
<path d="M25.6682 23.4877C24.3645 18.9549 23.0328 14.3945 22.0719 9.77913C21.8022 8.47932 19.768 9.03009 20.0377 10.3299C20.9256 14.5873 22.1224 18.7952 23.3306 22.9755C19.2229 23.8071 15.1209 24.6443 11.0132 25.487C9.79384 25.7348 8.57447 25.9882 7.35509 26.2415C6.30991 21.7913 5.27036 17.3466 4.22518 12.8965C3.83745 11.2442 3.44972 9.59187 3.06199 7.93957C2.75856 6.64527 0.724392 7.19053 1.02783 8.49034C2.40454 14.334 3.77002 20.1776 5.14111 26.0212C5.27597 26.594 5.41084 27.1668 5.5457 27.7341C5.68056 28.3014 6.3043 28.5657 6.84374 28.4556C12.3337 27.3155 17.8294 26.1975 23.325 25.0849C23.8588 24.9748 24.3982 24.8646 24.9321 24.76C25.4884 24.6498 25.8143 23.9999 25.6682 23.4877Z" fill="#FFF9D0"/>
<path d="M17.6995 12.7036C17.5478 12.1529 16.9578 11.8444 16.4015 11.9821C13.7717 12.6375 11.1419 13.2874 8.51769 13.9484C7.96701 14.0861 7.63547 14.6864 7.78157 15.2206C7.93329 15.7659 8.52331 16.0798 9.07962 15.9421C11.7038 15.2757 14.3336 14.6258 16.9634 13.9759C17.5141 13.8382 17.8456 13.2379 17.6995 12.7036Z" fill="#FFF9D0"/>
<path d="M10.1971 21.0644C11.3097 20.778 12.4223 20.5026 13.5406 20.2327C15.0802 19.8582 16.6255 19.4451 18.1933 19.1973C18.7552 19.1091 19.0699 18.4207 18.9294 17.925C18.7665 17.3412 18.1989 17.1154 17.6314 17.2035C16.0636 17.4513 14.5183 17.8644 12.9786 18.2389C11.8604 18.5088 10.7478 18.7897 9.6352 19.0706C8.32591 19.4066 8.88222 21.4003 10.1971 21.0644Z" fill="#FFF9D0"/>
</svg>
