<svg width="32" height="29" viewBox="0 0 32 29" fill="none" xmlns="http://www.w3.org/2000/svg">
<path d="M24.7767 21.9104C24.7737 21.9149 24.7678 21.9239 24.7588 21.9373C24.7663 21.9268 24.7722 21.9179 24.7752 21.9119L24.7767 21.9104Z" fill="#FFF9D0"/>
<path d="M24.428 14.8229C23.8406 14.4508 23.2547 14.0786 22.6674 13.7065C21.7407 13.1191 20.8155 12.5317 19.8889 11.9443C19.6975 11.8232 19.5092 11.6932 19.3134 11.5796C18.602 11.1671 17.7456 11.0161 16.937 10.9623C16.091 10.907 15.2227 11.0341 14.4096 11.2628C13.5965 11.4914 12.7954 11.8531 12.0944 12.3284C11.3606 12.8261 10.7358 13.4494 10.265 14.2012C10.1185 14.4358 10.0229 14.6735 9.91974 14.9276C9.53114 15.8946 9.14254 16.8601 8.75394 17.8271C8.44605 18.5924 8.15011 19.3636 7.83176 20.1229C7.58365 20.7117 7.34601 21.2917 7.26978 21.9299C7.16815 22.7713 7.21896 23.6068 7.47305 24.4214C7.93339 25.8921 8.99457 27.1775 10.3666 27.8829C11.9195 28.6811 13.8835 28.702 15.4035 27.8067C15.8728 27.5302 16.2465 27.1371 16.647 26.7754C17.073 26.4242 17.5348 26.1253 18.0281 25.8787C18.5108 25.6664 19.013 25.508 19.5316 25.4049C20.0697 25.3241 20.6138 25.3032 21.1563 25.3451C21.4911 25.3854 21.8229 25.4392 22.1607 25.4602C22.5672 25.4841 22.9648 25.4303 23.3624 25.3481C23.8855 25.239 24.4026 24.9998 24.8585 24.7263C25.682 24.2346 26.3636 23.4932 26.8119 22.6488C27.7252 20.9315 27.6609 18.8584 26.7761 17.1486C26.2619 16.1561 25.404 15.352 24.4265 14.8229H24.428ZM25.2934 19.2829C25.3412 19.6267 25.3532 19.9734 25.3308 20.3187C25.3024 20.5414 25.259 20.7611 25.1992 20.9778C25.1813 21.045 25.1604 21.1123 25.1395 21.1796C25.1365 21.19 25.132 21.2005 25.129 21.211C25.0827 21.323 25.0363 21.4351 24.981 21.5443C24.9198 21.6683 24.8525 21.7909 24.7793 21.9089C24.7837 21.9015 24.7852 21.9 24.7793 21.9089C24.7793 21.9089 24.7793 21.9104 24.7778 21.9119C24.7434 21.9672 24.7075 22.0195 24.6731 22.0733C24.718 22.0046 24.7464 21.9598 24.7628 21.9343C24.7374 21.9732 24.6956 22.036 24.6702 22.0689C24.5237 22.2587 24.3593 22.4336 24.1829 22.5965C23.9497 22.7818 23.7001 22.9417 23.4356 23.0777C23.2114 23.1734 22.9812 23.2511 22.7436 23.3049C22.5059 23.3333 22.2683 23.3378 22.0277 23.3214C21.3924 23.2481 20.7647 23.1629 20.1205 23.1988C19.4121 23.2392 18.6962 23.3722 18.0236 23.5949C17.363 23.8146 16.7173 24.1225 16.1344 24.5036C15.6038 24.8504 15.1584 25.2853 14.6891 25.7038C14.5052 25.8503 14.3109 25.9803 14.1047 26.0909C13.876 26.1851 13.6399 26.2538 13.3977 26.3046C13.1033 26.345 12.8073 26.3569 12.5099 26.339C12.2738 26.3076 12.0406 26.2583 11.8134 26.188C11.7955 26.1821 11.7581 26.1701 11.7223 26.1581C11.6879 26.1447 11.652 26.1297 11.6341 26.1223C11.504 26.067 11.377 26.0042 11.2529 25.9369C11.1438 25.8772 11.0377 25.8114 10.9346 25.7441C10.9331 25.7426 10.9301 25.7411 10.9286 25.7397C10.8673 25.6933 10.8061 25.6455 10.7478 25.5962C10.5729 25.4512 10.41 25.2943 10.2575 25.1269C10.0393 24.8563 9.85099 24.5664 9.69405 24.257C9.56253 23.9536 9.46239 23.6382 9.39513 23.3139C9.35328 23.0075 9.34132 22.6996 9.35926 22.3902C9.38168 22.2094 9.41157 22.0285 9.45641 21.8506C9.48331 21.74 9.5147 21.6309 9.55057 21.5233C9.55057 21.5188 9.55356 21.5129 9.55655 21.5054C9.57149 21.4665 9.59391 21.4112 9.60139 21.3918C9.66117 21.2513 9.72544 21.1153 9.78373 20.9733C9.987 20.4696 10.1888 19.9659 10.392 19.4608C10.8883 18.2247 11.386 16.9886 11.8822 15.7541C11.942 15.6061 12.0003 15.4671 12.0795 15.3281C12.1094 15.2743 12.1422 15.222 12.1751 15.1697C12.1811 15.1607 12.1856 15.1533 12.1916 15.1443C12.2558 15.0576 12.3216 14.9724 12.3933 14.8902C12.5279 14.7333 12.6743 14.5853 12.8268 14.4463C13.2124 14.1324 13.6339 13.8679 14.0808 13.6482C14.5725 13.4329 15.0851 13.2715 15.6128 13.1654C16.091 13.0922 16.5738 13.0668 17.0551 13.0996C17.209 13.1191 17.363 13.1415 17.5154 13.1759C17.6126 13.1968 17.7082 13.2207 17.8024 13.2491C17.8397 13.2596 17.8756 13.2715 17.9115 13.282C18.0624 13.3717 18.2448 13.415 18.3957 13.5107C18.7275 13.7214 19.0593 13.9322 19.3912 14.1414C20.4658 14.8229 21.5389 15.5045 22.6136 16.186C22.8527 16.337 23.0903 16.488 23.3295 16.6404C23.3668 16.6673 23.4057 16.6927 23.4476 16.7151C23.5746 16.7839 23.6986 16.8571 23.8197 16.9363C23.875 16.9782 23.9303 17.02 23.9856 17.0649C24.162 17.2084 24.3279 17.3653 24.4818 17.5342C24.6836 17.7853 24.857 18.0543 25.0035 18.3398C25.1335 18.6432 25.2321 18.9586 25.2994 19.2829H25.2934Z" fill="#FFF9D0"/>
<path d="M3.87804 15.1502C3.89299 15.1547 3.90794 15.1577 3.92288 15.1622C3.91391 15.1577 3.87804 15.1472 3.79883 15.1233C3.82125 15.1323 3.85114 15.1427 3.87655 15.1502H3.87804Z" fill="#FFF9D0"/>
<path d="M4.30949 10.9114C4.29454 10.9069 4.27959 10.9039 4.26465 10.8994C4.27362 10.9039 4.30949 10.9144 4.3887 10.9383C4.36479 10.9293 4.3349 10.9188 4.31098 10.9114H4.30949Z" fill="#FFF9D0"/>
<path d="M2.45597 11.4435C2.45597 11.4435 2.45597 11.445 2.45448 11.4465C2.447 11.4585 2.43953 11.4689 2.43206 11.4809C2.42458 11.4929 2.41861 11.5063 2.41113 11.5183C2.4216 11.5018 2.43804 11.4749 2.46344 11.4346C2.46046 11.4376 2.45747 11.4405 2.45597 11.4435Z" fill="#FFF9D0"/>
<path d="M5.73208 14.6182C5.73208 14.6182 5.73208 14.6167 5.73358 14.6152C5.74105 14.6032 5.74852 14.5928 5.756 14.5808C5.76347 14.5689 5.76945 14.5554 5.77692 14.5435C5.76646 14.5599 5.75002 14.5868 5.72461 14.6272C5.7276 14.6242 5.73059 14.6212 5.73208 14.6182Z" fill="#FFF9D0"/>
<path d="M7.00427 16.3833C7.65443 15.7989 8.06396 14.8991 8.15812 14.0382C8.27022 13.0084 8.06546 12.0324 7.58419 11.1207C7.56775 11.0849 7.54981 11.0505 7.53038 11.0146C6.70834 9.58277 5.03138 8.4887 3.33498 8.69496C2.43672 8.80407 1.60272 9.19118 0.991417 9.87123C0.462322 10.4601 0.117064 11.2373 0.0303764 12.0235C-0.0772363 13.0054 0.103613 13.9202 0.532569 14.8065C0.919676 15.6031 1.54293 16.2458 2.27829 16.7285C2.95834 17.1754 3.81326 17.4146 4.62633 17.3847C5.52908 17.3518 6.33917 16.9811 7.00278 16.3833H7.00427ZM4.76832 15.2324C4.62932 15.2489 4.49032 15.2534 4.34983 15.2489C4.20485 15.2294 4.06286 15.201 3.92237 15.1607C3.93432 15.1652 3.91041 15.1607 3.87753 15.1487C3.87603 15.1487 3.87454 15.1487 3.87305 15.1487C3.82821 15.1353 3.78486 15.1173 3.73853 15.1054C3.76095 15.1114 3.78187 15.1173 3.79981 15.1233H3.79682C3.70116 15.083 3.607 15.0366 3.51583 14.9873C3.43961 14.9455 3.36637 14.8991 3.29313 14.8543C3.25128 14.8229 3.21093 14.7915 3.17057 14.7571C3.03307 14.6436 2.90901 14.518 2.78795 14.388C2.63102 14.1862 2.49351 13.971 2.37544 13.7438C2.27978 13.5166 2.20654 13.2834 2.15423 13.0428C2.12733 12.8276 2.11687 12.6124 2.12733 12.3956C2.14526 12.2581 2.16918 12.1221 2.20505 11.9891C2.21701 11.9458 2.22896 11.9024 2.24391 11.8591C2.24839 11.8471 2.25288 11.8367 2.25587 11.8307C2.2738 11.7888 2.29323 11.747 2.31266 11.7051C2.34255 11.6424 2.37693 11.5826 2.4128 11.5228C2.37394 11.5811 2.41729 11.5004 2.45465 11.451C2.47259 11.4241 2.48903 11.3987 2.50547 11.3703C2.48903 11.3972 2.47558 11.4182 2.46362 11.4391C2.54582 11.336 2.63699 11.2403 2.73265 11.1506C2.8313 11.0774 2.93592 11.0116 3.04353 10.9518C3.16609 10.904 3.29014 10.8637 3.41868 10.8338C3.55768 10.8173 3.69668 10.8128 3.83568 10.8173C3.98066 10.8368 4.12265 10.8651 4.26314 10.9055C4.25268 10.901 4.27659 10.9055 4.30798 10.9175C4.30947 10.9175 4.31097 10.9175 4.31396 10.9175C4.3588 10.9309 4.40214 10.9489 4.44847 10.9608C4.42605 10.9548 4.40513 10.9488 4.3872 10.9429H4.39018C4.48584 10.9832 4.58 11.0296 4.67117 11.0789C4.7474 11.1207 4.82064 11.1671 4.89387 11.2134C4.93572 11.2448 4.97608 11.2762 5.01643 11.3105C5.15842 11.4286 5.28845 11.5587 5.41251 11.6947C5.53058 11.8486 5.63969 12.01 5.73684 12.1789C5.76374 12.2282 5.78765 12.2791 5.81456 12.3284C5.90872 12.5541 5.98196 12.7857 6.03427 13.0249C6.06117 13.2401 6.07163 13.4553 6.06117 13.672C6.04323 13.8096 6.01932 13.9456 5.98345 14.0786C5.97149 14.1219 5.95954 14.1653 5.94459 14.2086C5.94011 14.2206 5.93562 14.231 5.93263 14.237C5.9147 14.2789 5.89527 14.3207 5.87584 14.3626C5.84594 14.4253 5.81157 14.4851 5.7757 14.5449C5.81456 14.4881 5.77121 14.5658 5.73385 14.6166C5.71591 14.6436 5.69947 14.669 5.68303 14.6974C5.69947 14.6705 5.71292 14.6495 5.72488 14.6286C5.64268 14.7317 5.5515 14.8274 5.45585 14.9171C5.3572 14.9903 5.25258 15.0561 5.14497 15.1159C5.02241 15.1637 4.89836 15.204 4.76982 15.2339L4.76832 15.2324Z" fill="#FFF9D0"/>
<path d="M12.6308 7.86834C12.6308 7.86834 12.6338 7.86236 12.6368 7.85938C12.6323 7.86685 12.6159 7.89226 12.583 7.94307C12.6024 7.91468 12.6219 7.88478 12.6323 7.86834H12.6308Z" fill="#FFF9D0"/>
<path d="M10.1275 10.9832C11.1827 11.1133 12.2469 10.9235 13.1422 10.3256C14.0255 9.73674 14.6129 8.86687 14.9626 7.87743C15.3109 6.89098 15.2989 5.81336 15.0747 4.8015C15.0224 4.56834 14.9537 4.34116 14.87 4.11696C14.4903 3.12603 13.885 2.19936 13.0376 1.54621C12.1856 0.888582 11.2081 0.495497 10.129 0.447669C9.17995 0.40582 8.1651 0.733142 7.42227 1.32501C6.58529 1.99161 6.01882 2.88241 5.73933 3.91369C5.18483 5.96431 5.93513 8.3019 7.50298 9.71432C8.22189 10.3615 9.15902 10.8607 10.1275 10.9803V10.9832ZM7.74511 5.94937C7.70177 5.63251 7.68832 5.31415 7.70625 4.9958C7.73315 4.78356 7.77052 4.57282 7.82731 4.36806C7.84376 4.30827 7.86169 4.24699 7.88112 4.1887C7.88112 4.18721 7.88112 4.18571 7.88112 4.18422C7.91998 4.09155 7.95884 3.99889 8.00368 3.90772C8.05151 3.81057 8.10531 3.71491 8.16062 3.62224C8.15613 3.62822 8.15912 3.62374 8.16659 3.61328C8.16659 3.61328 8.16659 3.61029 8.16958 3.60879C8.20097 3.55797 8.23535 3.50716 8.26823 3.45634C8.2473 3.48922 8.23086 3.51612 8.21592 3.53854C8.22638 3.5236 8.23684 3.51015 8.24431 3.49819C8.35492 3.3562 8.47598 3.22467 8.60601 3.10212C8.76145 2.97956 8.92736 2.87194 9.10223 2.77928C9.27859 2.70754 9.45795 2.64924 9.64328 2.6074C9.8331 2.58348 10.0229 2.57601 10.2127 2.58348C10.416 2.61038 10.6163 2.64924 10.8136 2.71052C10.8285 2.71501 10.8464 2.72248 10.8659 2.72846C10.8405 2.718 10.8106 2.70604 10.7732 2.6896C10.83 2.71351 10.8868 2.73444 10.9436 2.75835C10.9466 2.75835 10.9496 2.76134 10.9511 2.76284C10.9571 2.76583 10.9585 2.76583 10.9571 2.76583C11.0662 2.81365 11.1723 2.86447 11.2754 2.92127C11.3711 2.97358 11.4637 3.03187 11.5549 3.09016C11.5579 3.09315 11.5609 3.09464 11.5654 3.09763C11.6162 3.13649 11.667 3.17535 11.7163 3.21571C11.8882 3.35769 12.0451 3.51314 12.1946 3.67754C12.4053 3.94209 12.5862 4.22607 12.7386 4.52798C12.7715 4.60421 12.8044 4.67894 12.8343 4.75666C12.9255 5.00178 12.9972 5.25287 13.051 5.50845C13.0973 5.83129 13.1123 6.15712 13.0929 6.48295C13.066 6.69518 13.0286 6.90443 12.9718 7.11069C12.9554 7.17047 12.9374 7.23175 12.918 7.29004C12.918 7.29154 12.918 7.29303 12.918 7.29453C12.8791 7.38719 12.8403 7.47986 12.7954 7.57103C12.7476 7.66818 12.6938 7.76384 12.6385 7.8565C12.643 7.85052 12.64 7.85501 12.6325 7.86547C12.6325 7.86547 12.6325 7.86846 12.6295 7.86995C12.5981 7.92077 12.5638 7.97159 12.5309 8.02241C12.5518 7.98952 12.5683 7.96262 12.5832 7.9402C12.5727 7.95515 12.5623 7.9686 12.5548 7.98056C12.4442 8.12255 12.3231 8.25407 12.1931 8.37663C12.0377 8.49919 11.8718 8.6068 11.6969 8.69947C11.5205 8.77121 11.3412 8.8295 11.1558 8.87135C10.966 8.89526 10.7762 8.90274 10.5864 8.89526C10.3831 8.86836 10.1828 8.8295 9.98555 8.76822C9.9706 8.76374 9.95267 8.75626 9.93324 8.75029C9.95864 8.76075 9.98854 8.77271 10.0259 8.78915C9.96911 8.76523 9.91231 8.74431 9.85552 8.72039C9.85253 8.72039 9.85103 8.7174 9.84804 8.71591C9.84206 8.71292 9.84057 8.71292 9.84206 8.71292C9.73296 8.66509 9.62684 8.61427 9.52371 8.55748C9.42805 8.50517 9.33539 8.44688 9.24422 8.38859C9.24123 8.3856 9.23824 8.3841 9.23375 8.38111C9.18294 8.34225 9.13212 8.30339 9.0828 8.26304C8.91091 8.12105 8.75398 7.96561 8.60452 7.8012C8.39378 7.53665 8.21293 7.25118 8.05898 6.95076C7.91998 6.62792 7.81536 6.29462 7.74362 5.95086L7.74511 5.94937Z" fill="#FFF9D0"/>
<path d="M8.16711 3.6116C8.16711 3.6116 8.16412 3.61758 8.16113 3.62056C8.16711 3.61309 8.18206 3.58768 8.21494 3.53687C8.19551 3.56526 8.17608 3.59516 8.16562 3.6116H8.16711Z" fill="#FFF9D0"/>
<path d="M10.9504 2.76436C10.9355 2.75838 10.8996 2.74343 10.8652 2.72998C10.925 2.75389 10.9504 2.76436 10.9564 2.76735C10.9549 2.76735 10.9519 2.76585 10.9504 2.76436Z" fill="#FFF9D0"/>
<path d="M9.8468 8.71588C9.86175 8.72186 9.89762 8.7368 9.93199 8.75026C9.87221 8.72634 9.8468 8.71588 9.84082 8.71289C9.84231 8.71289 9.8453 8.71439 9.8468 8.71588Z" fill="#FFF9D0"/>
<path d="M21.1915 2.23233C21.1825 2.22934 21.1721 2.22784 21.1631 2.22485C21.1795 2.23083 21.2064 2.2383 21.2408 2.25026C21.2244 2.24428 21.2079 2.23831 21.1915 2.23233Z" fill="#FFF9D0"/>
<path d="M21.7148 2.50271C21.6745 2.4773 21.6341 2.45339 21.5938 2.42798C21.5938 2.43097 21.6281 2.45339 21.7223 2.50719C21.7193 2.5057 21.7178 2.50271 21.7148 2.50121V2.50271Z" fill="#FFF9D0"/>
<path d="M19.3327 7.6622C19.373 7.68761 19.4134 7.71152 19.4537 7.73693C19.4537 7.73394 19.4194 7.71152 19.3252 7.65771C19.3282 7.65921 19.3297 7.6622 19.3327 7.66369V7.6622Z" fill="#FFF9D0"/>
<path d="M18.5761 9.6904C19.4729 10.1687 20.4937 10.2718 21.4771 10.0521C23.3424 9.6351 24.6891 7.82661 24.9671 6.00018C25.0119 5.70873 25.0373 5.41429 25.0448 5.11985C25.0762 3.20076 24.0404 1.11576 22.2035 0.34902C21.2769 -0.0380867 20.2545 -0.121786 19.2905 0.192084C18.4266 0.473073 17.6375 1.04701 17.1024 1.77937C16.4896 2.61636 16.1309 3.55946 16.0337 4.59075C15.9306 5.67734 16.1503 6.73105 16.6376 7.70405C17.0546 8.53655 17.7555 9.25397 18.5761 9.69189V9.6904ZM22.7326 6.20943C22.7431 6.18252 22.7461 6.17505 22.7326 6.20943V6.20943ZM18.316 3.95404C18.3026 3.98842 18.3056 3.98095 18.316 3.95404V3.95404ZM18.1486 4.74021C18.177 4.52798 18.2174 4.31873 18.2742 4.11247C18.2921 4.0482 18.3115 3.98394 18.3325 3.91967C18.3369 3.90472 18.3459 3.88679 18.3519 3.86885C18.3952 3.76423 18.4401 3.6611 18.4909 3.56096C18.5492 3.44587 18.6119 3.33378 18.6807 3.22467C18.6867 3.2157 18.6971 3.19926 18.7091 3.18282C18.7315 3.15293 18.7584 3.11556 18.7704 3.10062C18.8944 2.94219 19.0319 2.79571 19.1784 2.65821C19.3458 2.52818 19.5222 2.4116 19.709 2.31295C19.8734 2.24569 20.0423 2.19189 20.2157 2.15303C20.3816 2.1336 20.5475 2.12612 20.7134 2.1321C20.8658 2.15303 21.0168 2.18292 21.1648 2.22626C21.108 2.20683 21.1438 2.21729 21.1932 2.23374C21.1947 2.23374 21.1961 2.23374 21.1976 2.23374C21.241 2.24719 21.2843 2.26363 21.3277 2.27708C21.2933 2.26662 21.2664 2.25765 21.241 2.25018C21.2485 2.25317 21.2559 2.25616 21.2619 2.25915C21.3531 2.29801 21.4413 2.34284 21.528 2.39067C21.5504 2.40263 21.5713 2.41757 21.5937 2.42953C21.5922 2.42505 21.6655 2.4654 21.7073 2.49679C21.7103 2.49828 21.7118 2.50127 21.7148 2.50277C21.7312 2.51323 21.7462 2.5222 21.7626 2.53266C21.7477 2.52369 21.7357 2.51622 21.7223 2.50875C21.7596 2.53714 21.797 2.56704 21.8344 2.59842C21.9584 2.70155 22.072 2.81664 22.1811 2.93471C22.341 3.13798 22.4785 3.3562 22.5981 3.58637C22.7177 3.86586 22.8073 4.15582 22.8686 4.45325C22.9015 4.69986 22.9165 4.94797 22.9135 5.19607C22.912 5.2708 22.906 5.34554 22.9015 5.42027C22.8731 5.634 22.8328 5.84474 22.776 6.05249C22.758 6.11676 22.7386 6.18103 22.7177 6.2453C22.7132 6.26024 22.7042 6.27818 22.6982 6.29611C22.6549 6.40074 22.6101 6.50387 22.5592 6.60401C22.501 6.71909 22.4382 6.83119 22.3694 6.9403C22.3634 6.94926 22.353 6.96571 22.341 6.98364C22.3186 7.01353 22.2917 7.0509 22.2797 7.06585C22.1557 7.22428 22.0182 7.37075 21.8717 7.50825C21.7043 7.63828 21.528 7.75486 21.3411 7.85351C21.1767 7.92077 21.0078 7.97457 20.8359 8.01343C20.67 8.03286 20.5041 8.04034 20.3382 8.03436C20.1858 8.01343 20.0348 7.98354 19.8869 7.9402C19.9437 7.95963 19.9078 7.94916 19.8585 7.93272C19.857 7.93272 19.8555 7.93272 19.854 7.93272C19.8106 7.91927 19.7673 7.90283 19.7239 7.88938C19.7583 7.89984 19.7852 7.90881 19.8091 7.91628C19.8017 7.91329 19.7942 7.9103 19.7882 7.90732C19.697 7.86845 19.6089 7.82362 19.5222 7.77579C19.4998 7.76383 19.4788 7.74889 19.4564 7.73693C19.4579 7.74141 19.3847 7.70106 19.3428 7.66967C19.3398 7.66818 19.3383 7.66519 19.3353 7.66369C19.3189 7.65323 19.304 7.64426 19.2875 7.6338C19.3025 7.64277 19.3144 7.65024 19.3279 7.65771C19.2905 7.62932 19.2531 7.59942 19.2158 7.56804C19.0917 7.46491 18.9781 7.34982 18.869 7.23175C18.7091 7.02848 18.5716 6.81027 18.452 6.58009C18.3354 6.30658 18.2473 6.0226 18.1845 5.73115C18.1396 5.40233 18.1277 5.07202 18.1486 4.74021Z" fill="#FFF9D0"/>
<path d="M19.856 7.93273C19.8649 7.93572 19.8754 7.93721 19.8844 7.9402C19.8679 7.93422 19.841 7.92675 19.8066 7.91479C19.8231 7.92077 19.8395 7.92675 19.856 7.93273Z" fill="#FFF9D0"/>
<path d="M28.4012 8.29154C28.4012 8.29154 28.3937 8.29153 28.3892 8.29004C28.3802 8.29004 28.3713 8.29004 28.3623 8.29004C28.4296 8.30349 28.4684 8.30947 28.4864 8.30947C28.458 8.30349 28.4296 8.29602 28.4012 8.29154Z" fill="#FFF9D0"/>
<path d="M27.5422 12.7052C27.5422 12.7052 27.5497 12.7052 27.5542 12.7067C27.5631 12.7067 27.5721 12.7067 27.5811 12.7067C27.5153 12.6932 27.475 12.6873 27.457 12.6873C27.4854 12.6932 27.5138 12.7007 27.5422 12.7052Z" fill="#FFF9D0"/>
<path d="M30.5011 7.12728C29.2382 6.05265 27.3953 6.04069 26.0591 7.00024C24.702 7.97473 23.8979 9.73539 24.161 11.4049C24.297 12.2762 24.6407 13.0549 25.2565 13.6946C25.8484 14.3089 26.654 14.6258 27.4895 14.6975C28.322 14.7693 29.2083 14.4808 29.8824 13.9951C30.2411 13.7365 30.5759 13.4301 30.8389 13.0729C31.1453 12.6559 31.362 12.2404 31.5429 11.7651C31.5564 11.7307 31.5698 11.6948 31.5833 11.659C32.1168 10.1255 31.7716 8.20789 30.5011 7.12728ZM29.0439 8.51578C29.026 8.50382 29.0125 8.49635 29.011 8.49635C29.02 8.49635 29.0319 8.50681 29.0439 8.51578ZM27.0187 8.76987C27.0097 8.77734 27.0007 8.78481 26.9933 8.79228C27.0022 8.78481 27.0097 8.77734 27.0187 8.76987ZM26.8961 12.4795C26.9141 12.4915 26.9275 12.4989 26.929 12.4989C26.92 12.4989 26.9081 12.4885 26.8961 12.4795ZM29.3353 11.7531C29.2711 11.8383 29.2053 11.9205 29.1336 11.9997C29.0678 12.073 28.9991 12.1432 28.9273 12.209C28.9213 12.2135 28.9169 12.2194 28.9109 12.2239C28.884 12.2449 28.8571 12.2673 28.8302 12.2867C28.6942 12.3868 28.5492 12.4735 28.3997 12.5513C28.2562 12.6081 28.1098 12.6544 27.9603 12.6888C27.8751 12.6992 27.7899 12.7067 27.7047 12.7082C27.6614 12.7082 27.6195 12.7082 27.5762 12.7067C27.5926 12.7097 27.6076 12.7127 27.627 12.7172C27.6016 12.7112 27.5747 12.7097 27.5493 12.7067C27.5418 12.7067 27.5328 12.7067 27.5254 12.7067C27.4716 12.7052 27.4163 12.6873 27.4521 12.6873C27.3624 12.6693 27.2728 12.6469 27.1831 12.6215C27.1831 12.6215 27.1831 12.6215 27.1801 12.6215C27.1158 12.5916 27.0531 12.5632 26.9903 12.5288C26.9454 12.5049 26.9021 12.4765 26.8573 12.4496C26.8558 12.4496 26.8528 12.4466 26.8528 12.4451C26.7601 12.3719 26.6749 12.2897 26.5912 12.206C26.6017 12.2209 26.6136 12.2359 26.6256 12.2553C26.6092 12.2314 26.5882 12.209 26.5703 12.1866C26.5673 12.1836 26.5658 12.1821 26.5628 12.1791C26.5299 12.1447 26.5001 12.0969 26.5135 12.1074C26.4956 12.0819 26.4761 12.0565 26.4582 12.0296C26.4059 11.9504 26.3596 11.8682 26.3162 11.7845C26.243 11.6082 26.1862 11.4258 26.1443 11.239C26.1264 11.103 26.1129 10.967 26.11 10.8295C26.1085 10.7353 26.11 10.6396 26.1159 10.5455C26.1159 10.541 26.1159 10.538 26.1159 10.5335C26.1219 10.5006 26.1279 10.4692 26.1279 10.4648C26.1578 10.2779 26.2011 10.0926 26.2579 9.91176C26.2714 9.86841 26.2908 9.82507 26.3013 9.78023C26.2983 9.79368 26.2953 9.80564 26.2923 9.8161C26.3297 9.72792 26.37 9.64272 26.4134 9.55753C26.4567 9.47383 26.503 9.39013 26.5524 9.30942C26.5658 9.2885 26.5793 9.26758 26.5927 9.24665C26.6988 9.10915 26.8094 8.97612 26.9335 8.85356C26.9619 8.82517 26.9918 8.79677 27.0217 8.76987C27.0441 8.74894 27.056 8.73699 27.062 8.73101C27.1009 8.70261 27.1427 8.6772 27.1786 8.65329C27.2892 8.57706 27.4043 8.5098 27.5224 8.44852C27.6688 8.38874 27.8183 8.3424 27.9708 8.30653C28.056 8.29607 28.1411 8.2886 28.2263 8.2871C28.2697 8.2871 28.3115 8.2871 28.3549 8.2886C28.3384 8.28561 28.3235 8.28262 28.3041 8.27814C28.3295 8.28412 28.3564 8.28561 28.3818 8.2886C28.3893 8.2886 28.3982 8.2886 28.4057 8.2886C28.4595 8.29009 28.5148 8.30803 28.4789 8.30803C28.5686 8.32596 28.6583 8.34838 28.7465 8.37379C28.7465 8.37379 28.7465 8.37379 28.7495 8.37379C28.8137 8.40368 28.8765 8.43208 28.9393 8.46646C28.9841 8.49037 29.0275 8.51877 29.0723 8.54567C29.0738 8.54567 29.0768 8.54866 29.0768 8.55016C29.1694 8.62339 29.2546 8.7056 29.3383 8.7893C29.3279 8.77435 29.3159 8.7594 29.304 8.73997C29.3204 8.76389 29.3398 8.78631 29.3593 8.80873C29.3622 8.81171 29.3637 8.81321 29.3667 8.8162C29.3996 8.85058 29.4295 8.8984 29.4161 8.88794C29.434 8.91335 29.4534 8.93876 29.4714 8.96566C29.5237 9.04488 29.57 9.12708 29.6133 9.21078C29.6866 9.38864 29.7434 9.57098 29.7852 9.7593C29.8151 9.99097 29.8196 10.2211 29.8106 10.4558C29.8091 10.4722 29.8061 10.4887 29.8047 10.5051C29.7927 10.5843 29.7778 10.6636 29.7613 10.7413C29.7314 10.8773 29.6926 11.0118 29.6492 11.1448C29.6417 11.1657 29.6328 11.1852 29.6268 11.1986C29.6029 11.2554 29.5775 11.3107 29.5506 11.366C29.5057 11.4587 29.4549 11.5514 29.4026 11.6395C29.3802 11.6769 29.3563 11.7143 29.3338 11.7501L29.3353 11.7531Z" fill="#FFF9D0"/>
<path d="M29.3691 8.81444C29.3691 8.81444 29.3676 8.81145 29.3661 8.80996C29.3601 8.80398 29.3527 8.79651 29.3467 8.79053C29.3915 8.8533 29.4139 8.8817 29.4229 8.88768C29.405 8.86376 29.3885 8.83836 29.3706 8.81444H29.3691Z" fill="#FFF9D0"/>
<path d="M26.301 9.81738C26.301 9.81738 26.301 9.82037 26.2995 9.82187C26.2682 9.8951 26.2487 10.0296 26.301 9.81738Z" fill="#FFF9D0"/>
<path d="M26.5743 12.1804C26.5743 12.1804 26.5758 12.1834 26.5773 12.1849C26.5833 12.1909 26.5908 12.1983 26.5967 12.2043C26.5519 12.1416 26.5295 12.1132 26.5205 12.1072C26.5384 12.1326 26.5549 12.1565 26.5728 12.1819L26.5743 12.1804Z" fill="#FFF9D0"/>
</svg>
