<svg width="51" height="36" viewBox="0 0 51 36" fill="none" xmlns="http://www.w3.org/2000/svg">
<path d="M49.7615 19.5378C49.422 18.5832 48.9978 17.6285 48.4038 16.8012C48.2553 16.589 48.1068 16.3769 47.9158 16.186C47.4279 15.6556 46.4309 15.6556 45.9429 16.186C45.4126 16.7588 45.4126 17.5861 45.9429 18.1589C47.4491 20.1318 47.9158 22.4866 47.9371 24.8625C47.9371 25.5838 48.5523 26.2839 49.3372 26.2627C50.0585 26.2203 50.7797 25.6475 50.7373 24.8625C50.6525 23.0381 50.3767 21.2349 49.7615 19.5378Z" fill="#FFF9D0"/>
<path d="M11.4488 8.061C12.1065 8.23071 13.0611 7.87007 13.1672 7.08515C13.4642 4.68795 15.2886 2.92718 16.2644 2.75747C16.9857 2.63018 17.4737 1.80283 17.2403 1.03912C17.0282 0.360271 16.2644 -0.191296 15.522 0.0632736C13.9945 0.614841 12.7853 1.6119 11.8731 2.94839C11.3003 3.79696 10.7063 5.19709 10.473 6.34265C10.3881 6.72451 10.3881 7.80643 11.4488 8.061Z" fill="#FFF9D0"/>
<path d="M42.1032 17.4588C40.9788 16.4193 39.515 15.7405 38.03 15.3799C36.5451 15.0192 35.0176 14.9556 33.5114 15.1889V13.5979C33.5114 13.513 33.5114 13.4494 33.4902 13.3645C33.5114 13.1948 33.5114 13.0039 33.5114 12.8342C33.5114 11.328 33.5114 9.80054 33.5114 8.29434C33.5114 8.25191 33.5114 8.20948 33.5114 8.16706C33.5114 8.10341 33.5114 8.03977 33.4902 7.97613C33.5114 7.46699 33.4054 6.95785 33.172 6.49114C32.5992 5.34558 31.2415 4.75158 30.0748 4.43337C28.7807 4.09395 27.423 3.96666 26.0865 3.92423C24.9409 3.8818 23.7954 3.8818 22.6286 3.96666C21.3133 4.05152 19.9556 4.1788 18.6828 4.56066C17.3887 4.94251 16.1583 5.60015 15.6492 6.89421C15.5643 7.12756 15.5219 7.36092 15.5007 7.61549C15.5007 7.65792 15.5007 7.72156 15.5007 7.76399C15.5007 7.80642 15.5007 7.87006 15.5007 7.91249C15.5007 7.95492 15.5007 8.01856 15.5007 8.06099C15.5007 9.48233 15.5007 10.8825 15.5007 12.3038C15.5007 12.622 15.5007 12.919 15.5219 13.216C15.5007 13.3009 15.5007 13.4069 15.5007 13.4918V16.4406C15.2673 16.3557 15.0552 16.2921 14.843 16.2284C13.549 15.889 12.1913 15.7617 10.8548 15.7193C9.7092 15.6769 8.56363 15.6769 7.39686 15.7617C6.08158 15.8466 4.72388 15.9739 3.45103 16.3557C2.15697 16.7376 0.926552 17.3952 0.417413 18.6893C0.332557 18.9226 0.290128 19.156 0.268914 19.4105C0.268914 19.453 0.268914 19.5166 0.268914 19.559C0.268914 19.6015 0.268914 19.6651 0.268914 19.7075C0.268914 19.75 0.268914 19.8136 0.268914 19.856C0.268914 21.2774 0.268914 22.6775 0.268914 24.0989C0.268914 24.4171 0.268914 24.7141 0.290128 25.0111C0.268914 25.0959 0.268914 25.202 0.268914 25.2869C0.268914 26.7718 0.268914 28.2568 0.268914 29.763C0.268914 30.3995 0.205272 31.1207 0.438627 31.7147C0.990194 33.1997 2.43275 34.0059 3.8541 34.515C5.44516 35.0666 7.1635 35.2787 8.83942 35.3423C10.5365 35.406 12.2973 35.2787 13.9732 34.8756C15.0552 34.6211 16.1159 34.1968 16.9644 33.4967C17.7281 34.0907 18.6616 34.4726 19.5526 34.7271C21.0163 35.1726 22.5862 35.3636 24.1136 35.406C25.6834 35.4484 27.2745 35.3423 28.8019 35.0241C29.1838 34.9393 29.5656 34.8544 29.9263 34.7271C30.0535 34.7908 30.1596 34.8332 30.2869 34.8969C31.9416 35.6181 33.7236 36 35.5268 36C36.9906 36 38.5392 35.7878 39.8333 35.0878C40.1302 34.9393 40.3848 34.7271 40.6394 34.515C41.191 34.0271 41.1697 33.03 40.6394 32.5421C40.0454 32.0117 39.2605 32.0117 38.6665 32.5421C38.6665 32.5421 35.7601 34.4514 31.0506 32.139C27.6988 30.5055 27.4866 26.4324 27.4654 26.39C27.4442 26.1354 26.7017 21.341 31.2627 18.7953C35.3995 16.483 39.1968 18.6256 40.0878 19.3893C44.5852 23.1654 41.7425 28.9993 41.891 28.6387C41.7425 28.9993 41.6365 29.3175 41.7425 29.7206C41.8274 30.0388 42.0819 30.3995 42.3789 30.548C42.9729 30.8662 43.97 30.7601 44.2882 30.0388C44.8398 28.7235 45.2429 27.4295 45.3913 25.9869C45.4974 24.8838 45.4126 23.7382 45.158 22.6563C44.7549 20.7258 43.6094 18.859 42.1032 17.4588ZM3.66317 19.2408C3.68439 19.2408 3.7056 19.2196 3.7056 19.2196C4.19353 19.0287 4.70267 18.9014 5.23302 18.8165C6.73922 18.5408 8.77578 18.4983 9.8577 18.4983C10.4093 18.4983 10.9608 18.5195 11.5124 18.562C11.8094 18.5832 12.0852 18.6044 12.3822 18.6256C13.1883 18.6893 14.9915 19.0711 15.3734 19.4954C15.7977 19.9409 14.8006 20.45 14.7369 20.4712C14.6097 20.5349 13.4641 21.1077 11.47 21.2986C10.685 21.3835 9.90012 21.4047 9.1152 21.3835C7.07865 21.3198 5.63609 20.9804 4.95723 20.7682C4.80874 20.7258 4.66024 20.6834 4.53295 20.6197C4.4481 20.5985 4.38445 20.5561 4.32081 20.5349C3.11161 19.9197 2.75097 19.6863 3.66317 19.2408ZM3.06918 24.4171C3.06918 23.9504 3.06918 23.4837 3.06918 23.0169C4.53295 23.6534 6.12401 23.9504 7.69386 24.0989C9.47584 24.2686 11.3003 24.1837 13.061 23.8867C13.8884 23.7382 14.7157 23.5261 15.5007 23.1867C15.5007 23.3776 15.5007 23.5685 15.5007 23.7594C15.5007 24.0564 15.4794 24.3746 15.4794 24.6929C15.437 25.4566 15.1612 25.6051 13.952 26.0718C13.3368 26.3263 12.17 26.4961 12.064 26.5173C11.9791 26.5385 11.4063 26.5809 11.1942 26.6021C10.8123 26.6233 10.4517 26.6446 10.0698 26.6658C9.28491 26.687 8.49999 26.6658 7.73628 26.5809C7.54536 26.5597 6.16644 26.3476 5.82701 26.2839C5.48759 26.1991 5.14816 26.1142 4.82995 26.0081C4.68145 25.9657 4.27838 25.8172 4.19353 25.7748C4.17231 25.7748 4.17231 25.7748 4.17231 25.7536C4.19353 25.7536 4.23595 25.7748 4.21474 25.7748C3.09039 25.202 3.04796 24.9686 3.06918 24.4171ZM14.249 31.9481C14.249 31.9481 14.2702 31.9481 14.3127 31.9269C14.2914 31.9269 14.2702 31.9269 14.249 31.9481ZM15.5007 29.6994C15.5007 31.3965 15.3734 31.2904 14.7157 31.7147C14.6097 31.7784 14.5036 31.8208 14.3975 31.8632C14.3127 31.8844 14.249 31.9269 14.1854 31.9481C13.5277 32.1814 12.2337 32.4572 11.3215 32.5421C10.9184 32.5845 10.5153 32.6057 10.1123 32.6057C9.30613 32.6269 8.49999 32.6057 7.69386 32.5209C7.50293 32.4997 7.312 32.4784 7.14229 32.4572C7.12108 32.4572 7.12108 32.4572 7.09986 32.4572C6.99379 32.436 6.90893 32.436 6.80286 32.4148C6.42101 32.3512 6.06037 32.2875 5.69973 32.1814C5.3603 32.0966 5.02088 32.0117 4.68145 31.8844C3.28132 31.3117 3.11161 31.0359 3.11161 30.1449C3.11161 29.5297 3.11161 28.9145 3.11161 28.2993C3.45103 28.4478 3.79046 28.575 4.10867 28.6811C5.6573 29.1903 7.312 29.3812 8.92428 29.4448C10.5578 29.5085 12.2549 29.3812 13.846 29.0205C14.3975 28.8933 14.9703 28.7235 15.5431 28.4902C15.5007 28.8933 15.5007 29.2963 15.5007 29.6994ZM20.4648 7.00028C22.077 6.7245 24.0075 6.68207 25.0894 6.68207C25.641 6.68207 26.1926 6.70328 26.7441 6.74571C27.0411 6.76692 27.3169 6.78814 27.6139 6.80935C27.7412 6.83057 27.8685 6.83057 27.9958 6.85178C28.0594 6.85178 28.1018 6.873 28.1655 6.873C28.5049 6.93664 30.5627 7.23363 30.7324 7.84884C30.8597 8.3792 29.4808 8.88834 29.4595 8.90955C29.1625 9.01562 28.8656 9.12169 28.5473 9.18533C26.3199 9.67326 23.2226 9.84297 20.1678 8.95198C20.0193 8.90955 19.8708 8.86712 19.7435 8.80348C19.6586 8.78227 19.595 8.73984 19.5313 8.71862C17.9403 7.95491 17.8766 7.42456 20.4648 7.00028ZM18.2797 11.2007C19.7435 11.8371 21.3345 12.1341 22.9256 12.2826C24.7076 12.4523 26.532 12.3675 28.2928 12.0705C29.1201 11.922 29.9475 11.7098 30.7324 11.3704C30.7324 11.6462 30.7324 11.922 30.7324 12.1977C30.7748 13.216 30.796 13.5342 29.7565 14.0434C29.7141 14.0646 29.6717 14.0858 29.608 14.107C29.4808 14.1494 29.3323 14.2131 29.205 14.2555C28.5686 14.4676 27.9321 14.5949 27.2745 14.701H27.2533C27.1896 14.701 27.126 14.7222 27.0623 14.7222C26.8502 14.7434 26.6593 14.7646 26.4471 14.7859C26.0653 14.8071 25.7046 14.8283 25.3228 14.8495C24.5379 14.8707 23.7529 14.8495 22.9892 14.7646C22.7983 14.7434 22.6074 14.7222 22.4165 14.701C22.3952 14.701 22.3952 14.701 22.374 14.701C22.2892 14.6798 22.2043 14.6798 22.1195 14.6586C21.78 14.5949 21.4194 14.5525 21.08 14.4676C19.1919 13.9585 18.2797 13.5767 18.3009 12.6008C18.3009 12.1341 18.2797 11.6674 18.2797 11.2007ZM26.3411 32.6269C25.9804 32.6482 25.6198 32.6694 25.2591 32.6694C24.5167 32.6906 23.7954 32.6694 23.0529 32.6057C22.8832 32.5845 22.6922 32.5633 22.5225 32.5421C22.4589 32.5421 22.3952 32.5209 22.3316 32.5209C22.3104 32.5209 22.3104 32.5209 22.3104 32.5209C22.2892 32.5209 22.2892 32.5209 22.268 32.5209C22.268 32.5209 22.268 32.5209 22.2892 32.5209C21.9497 32.4784 21.6103 32.4148 21.2921 32.3299C20.6981 32.2027 20.1041 32.0329 19.5313 31.7996C19.4889 31.7784 19.4253 31.7572 19.3828 31.7359C19.2768 31.6935 19.1919 31.6299 19.0858 31.5874C18.9798 31.5238 18.5131 31.1844 18.4494 31.1207C18.4282 31.0995 18.3646 30.9935 18.3009 30.9086C18.2797 30.8237 18.3009 30.7177 18.3009 30.654V30.3995C18.3009 29.7206 18.3009 29.0418 18.3009 28.3417C18.5131 28.4265 18.704 28.5114 18.9161 28.5963C20.5496 29.2115 22.3528 29.4236 24.0712 29.4872C24.5167 29.5085 24.9622 29.5085 25.4076 29.4872C25.641 30.1237 25.9168 30.7177 26.2562 31.3117C26.5108 31.7359 26.7866 32.1602 27.1048 32.5209C27.0199 32.5421 26.9138 32.5421 26.8714 32.5633C26.7017 32.6057 26.532 32.6269 26.3411 32.6269ZM24.7288 26.7294C24.0712 26.7294 23.4347 26.687 22.7771 26.6233C19.892 26.3263 18.7888 25.6051 18.6828 25.5202C18.6828 25.5202 18.2797 25.2232 18.2797 24.9474C18.2797 24.905 18.2797 24.8626 18.2797 24.8414C18.2797 24.7777 18.2797 24.7141 18.2797 24.6504C18.2797 24.4595 18.2797 24.2686 18.2797 24.0776C18.2797 23.5261 18.2797 22.9533 18.2797 22.4017C18.5343 22.5078 18.8101 22.6139 19.0646 22.7199C20.6557 23.2715 22.374 23.4837 24.0499 23.5473C24.3045 23.5473 24.5591 23.5685 24.8137 23.5685C24.7288 24.014 24.6864 24.4807 24.6439 24.9474C24.6439 25.5414 24.6652 26.1354 24.7288 26.7294ZM27.1048 32.5633C27.126 32.5633 27.126 32.5633 27.1048 32.5633V32.5633ZM27.4442 18.371C26.7654 19.0923 26.2138 19.8985 25.7895 20.7682C25.641 20.7682 25.4713 20.7895 25.3228 20.7895C24.5167 20.8107 23.7105 20.7895 22.9044 20.7046C22.7135 20.6834 21.7164 20.5773 20.889 20.3652C20.5496 20.2803 20.189 20.2167 19.8708 20.0682C18.407 19.4318 18.2585 19.2833 18.3009 18.3286V16.483C18.6403 16.6315 18.9798 16.7588 19.298 16.8648C20.8466 17.374 22.5013 17.5649 24.1136 17.6286C25.6198 17.671 27.1472 17.5861 28.6322 17.2891C28.2079 17.6073 27.8048 17.968 27.4442 18.371Z" fill="#FFF9D0"/>
<path d="M30.7323 29.169C31.5384 29.9751 32.5142 30.5904 33.6174 30.9086C34.8478 31.2692 36.2055 31.2056 37.4147 30.8025C38.5603 30.4206 39.5361 29.7418 40.1938 28.7235C40.7029 27.9386 40.915 27.0264 41.0211 26.1142C41.106 25.3717 41.0211 24.6292 40.8938 23.8867C40.7665 23.1654 39.8543 22.6987 39.1755 22.9108C38.3906 23.1654 38.0723 23.8443 38.1996 24.6292C38.1996 24.6716 38.2208 24.714 38.2208 24.7777C38.2208 24.7353 38.1996 24.6716 38.1996 24.5868C38.1996 24.6716 38.2208 24.7565 38.2208 24.8625C38.2208 24.905 38.2208 24.9262 38.2208 24.8838C38.2208 24.905 38.2208 24.9262 38.2208 24.9474C38.2208 25.4565 38.5815 27.3446 36.7995 28.0659C35.0599 28.7872 33.6598 28.1507 32.684 27.2173C32.1536 26.7082 31.2202 26.6657 30.711 27.2173C30.2231 27.7477 30.1595 28.6174 30.7323 29.169Z" fill="#FFF9D0"/>
<path d="M38.2209 24.7565C38.2209 24.7989 38.2209 24.8413 38.2422 24.8625C38.2422 24.8625 38.2422 24.8625 38.2422 24.8413C38.2209 24.8201 38.2209 24.7989 38.2209 24.7565Z" fill="#FFF9D0"/>
<path d="M33.8297 24.0352C33.7661 22.232 31.0507 22.2957 31.0719 24.0989C31.1355 25.9021 33.851 25.8384 33.8297 24.0352Z" fill="#FFF9D0"/>
<path d="M37.6481 22.1897C37.5845 20.3865 34.869 20.4501 34.8903 22.2533C34.9539 24.0565 37.6693 23.9929 37.6481 22.1897Z" fill="#FFF9D0"/>
</svg>
