<svg width="45" height="36" viewBox="0 0 45 36" fill="none" xmlns="http://www.w3.org/2000/svg">
<path d="M12.6504 12.6451C12.6504 12.7802 12.689 12.896 12.7662 13.0311C13.3259 14.0926 14.7347 13.8031 15.0242 13.1855C15.14 12.9925 15.1979 12.7802 15.1979 12.5486C15.8155 12.4907 16.3365 11.9118 16.3172 11.2942C16.3172 10.6187 15.7383 10.0012 15.0435 10.0205C14.2136 10.0591 13.3838 10.0784 12.5539 10.117C12.2258 10.1363 11.8977 10.2521 11.6661 10.4836C10.817 11.2942 11.4924 12.7609 12.6504 12.6451Z" fill="#FFF9D0"/>
<path d="M39.3603 21.5035C35.6163 20.5578 31.9302 19.3806 28.1476 18.6279C27.8581 18.57 27.5686 18.5121 27.2791 18.4735C27.1633 18.0875 27.0282 17.7208 26.8352 17.3542C26.179 16.119 25.079 15.1541 23.9017 14.44C23.4193 14.1312 22.8982 13.8803 22.3771 13.6294C22.6666 13.1469 22.8789 12.6066 22.9754 12.0469C23.1491 11.0626 23.2263 10.0784 23.1877 9.07483C23.1877 8.80464 23.1684 8.53445 23.1298 8.26426C24.8474 7.55019 26.3527 6.04486 26.2948 4.09565C26.2562 3.0149 25.7931 1.83765 24.9246 1.16218C24.0947 0.48671 23.0333 0.139325 21.9718 0.197223C20.7946 0.25512 19.7138 0.699 18.7682 1.37447C17.1084 0.486709 15.275 -0.0536663 13.3837 0.0042311C11.531 0.0621285 9.69757 0.660402 8.17294 1.70256C7.84485 1.93415 7.51677 2.18503 7.20798 2.43592C5.58685 1.76045 3.67624 1.50956 2.3446 2.8798C1.64983 3.59387 1.28315 4.55883 1.18665 5.54308C1.07085 6.66243 1.55333 7.83968 2.306 8.65025C2.88497 9.26782 3.67624 9.6538 4.5061 9.7503C4.564 10.2907 4.6412 10.831 4.73769 11.3521C4.91138 12.2399 5.20087 13.089 5.56755 13.8996C4.33241 14.5558 3.15516 15.3663 2.2481 16.4085C1.12875 17.7015 0.356787 19.342 0.376086 21.0789C0.395385 22.1403 0.684872 23.1632 1.39894 23.9738C0.665573 24.9966 0.376086 26.2897 0.376086 27.5248C0.376086 28.181 0.95506 28.8178 1.64983 28.7985C2.3446 28.76 2.90427 28.2389 2.92357 27.5248C2.92357 27.4283 2.84638 25.8651 3.92713 24.9387C5.93424 23.2211 7.49747 24.5527 8.25014 25.2668C9.46598 26.4634 9.52388 30.6706 7.72906 31.3846C5.54826 32.2724 3.94643 30.5741 3.92713 30.5741C3.90783 30.5548 3.88853 30.5355 3.88853 30.5355C3.69554 30.2846 3.48325 30.0916 3.17446 30.0144C2.86568 29.9372 2.46039 29.9758 2.19021 30.1495C1.66913 30.4969 1.32174 31.3074 1.72703 31.8864C2.55689 33.0251 3.79203 33.7584 5.18157 34.0479C6.06933 34.2409 6.99569 34.2795 7.88345 34.0672C9.40808 33.7005 10.4695 32.5233 11.0485 31.1144C13.3065 31.2302 15.5838 31.2109 17.8225 31.0373C17.8225 31.6162 17.8225 32.2145 17.8032 32.7935C17.8032 33.2374 18.0541 33.6619 18.4401 33.8935C20.5244 35.1287 22.8789 35.7848 25.3106 35.9585C27.5493 36.1129 29.8073 35.8234 31.9881 35.3024C33.1267 35.0129 34.2654 34.6655 35.3654 34.2409C35.8672 34.0479 36.3304 33.604 36.2918 33.0251C36.1953 31.346 36.1181 29.6863 36.0602 28.0073C36.0216 27.1195 35.983 26.2125 35.9637 25.3247C35.9637 25.2089 35.9444 25.0931 35.9251 24.9966C35.8865 24.8808 35.8286 24.765 35.7707 24.6685C35.7321 24.6106 35.7128 24.572 35.6742 24.5334C35.8479 24.5141 36.0023 24.5141 36.176 24.4948C36.2339 25.8651 36.3111 27.2353 36.4462 28.6056C36.4848 28.9529 36.562 29.2424 36.8129 29.4933C37.0252 29.7056 37.3918 29.8793 37.7006 29.86C38.3375 29.8407 39.0323 29.3003 38.9744 28.5863C38.82 27.0423 38.7428 25.4984 38.6849 23.9352C38.7042 23.9352 38.7042 23.9352 38.7235 23.9545C39.3604 24.1089 40.1323 23.7422 40.2867 23.0667C40.3832 22.4105 40.0358 21.6772 39.3603 21.5035ZM32.0074 22.1789C31.0424 22.2175 30.0775 22.2368 29.1125 22.2561C28.244 22.2561 27.3949 22.2561 26.5264 22.2368C25.8703 22.2175 25.2334 22.8351 25.2527 23.5106C25.2913 24.2054 25.8124 24.765 26.5264 24.7843C28.63 24.8422 30.7143 24.8036 32.8179 24.7071C31.7758 25.0931 30.7143 25.4598 29.6529 25.8072C28.8616 26.0581 28.0704 26.309 27.2405 26.4634C27.1054 26.4827 26.7194 26.5984 26.5071 26.5599C25.4071 26.3669 24.3263 26.0195 23.2649 25.6914C21.8946 25.2668 20.5437 24.8422 19.1734 24.3983H19.1541C18.9419 24.3211 18.7296 24.2633 18.5173 24.1861C18.1313 24.0703 17.7646 23.9352 17.3786 23.8001C19.7331 22.893 22.0683 22.0052 24.4807 21.2719C24.8088 21.1754 25.1176 21.0982 25.4457 21.0017C26.0439 20.828 26.5264 20.9245 26.5843 20.9438C26.7194 20.9631 26.8738 20.9824 27.0089 21.021C28.7072 21.2912 30.367 21.7351 32.0074 22.1789ZM22.6473 2.82191C23.8052 3.14999 23.8438 4.19214 23.5544 4.79042C23.3807 5.1571 22.9947 5.44659 22.6087 5.67818C22.2999 4.79042 21.8753 3.94126 21.2771 3.20789C21.2192 3.13069 21.142 3.05349 21.0841 2.9763C21.5472 2.80261 22.1069 2.66751 22.6473 2.82191ZM7.03429 7.66599C7.40097 5.58168 8.9835 3.97985 10.8362 3.13069C12.3609 2.43592 15.7961 2.14644 18.0927 3.70967L18.112 3.72896C18.1892 3.80616 18.2857 3.86406 18.3822 3.92196C18.5752 4.07635 18.7682 4.25004 18.9226 4.42373C21.1227 6.77823 20.756 9.03623 20.6402 10.5802C20.4472 13.9961 17.5909 16.0032 14.1364 16.0225C12.3223 16.0225 9.29229 15.1927 8.25014 13.5329C7.18868 11.8153 6.66761 9.7696 7.03429 7.66599ZM5.31667 4.73252C4.91138 5.50449 4.67979 6.33435 4.5447 7.18351C4.10082 6.99052 3.73414 6.52734 3.69554 6.12206C3.63764 5.54308 3.86923 4.65532 4.5254 4.46233C4.77629 4.38514 5.10438 4.42373 5.43246 4.52023C5.39386 4.59743 5.35526 4.67462 5.31667 4.73252ZM11.6082 28.6056C11.6661 28.1038 11.7047 27.6213 11.6661 27.1195C11.5503 25.7493 10.9713 24.4948 10.045 23.472C9.60108 22.9895 9.0607 22.5649 8.48173 22.2754C8.48173 22.0631 8.50102 21.8509 8.53962 21.6579C8.57822 21.3684 8.63612 21.0789 8.69402 20.8087C8.77121 20.4806 8.73261 20.1332 8.55892 19.8244C8.40453 19.5543 8.09574 19.3034 7.80626 19.2455C7.47817 19.1683 7.11149 19.1876 6.822 19.3806C6.55181 19.5543 6.32022 19.8051 6.24303 20.1332C6.20443 20.3262 6.16583 20.5385 6.12723 20.7315C6.06933 21.021 6.03073 21.3298 5.99214 21.6193C5.41316 21.6 4.83419 21.6772 4.25521 21.8702C3.90783 21.986 3.59904 22.121 3.29026 22.2947C3.27096 22.2561 3.23236 22.2368 3.21306 22.1982C3.17446 22.1403 2.53759 20.7315 3.52185 19.0139C4.5447 17.2191 6.43602 16.2541 7.09219 15.9646C8.61682 17.3542 10.5467 18.0489 12.5538 18.2998C13.9434 18.4735 15.5066 18.5121 16.8576 18.1068C18.3436 17.6436 19.6752 16.7559 20.7753 15.6558C21.5472 15.9839 23.5158 16.698 24.6351 18.57C24.5579 18.5893 24.4807 18.6086 24.4035 18.6279C22.6859 19.0911 21.0069 19.728 19.3471 20.3262C17.3207 21.0789 15.2943 21.8702 13.2679 22.6035C12.7661 22.7965 12.303 23.2404 12.3416 23.8194C12.3609 24.3983 12.7275 24.8615 13.2679 25.0352C14.7346 25.5177 16.1821 26.0002 17.6488 26.4827C17.6488 26.5213 17.6488 26.5405 17.6681 26.5791C17.726 27.216 17.7646 27.8529 17.7839 28.4705C15.7189 28.6635 13.6539 28.6828 11.6082 28.6056ZM31.7372 32.7549C31.2354 32.89 30.7336 33.0058 30.2319 33.1023C28.6493 33.4303 26.8352 33.4882 25.7545 33.4689C24.7509 33.4496 23.4193 33.1795 22.8982 33.0444C22.3385 32.89 20.6981 32.2531 20.563 32.1952C20.4858 32.1566 20.4086 32.118 20.3314 32.0794C20.3507 30.5162 20.3507 28.9336 20.2349 27.3897C20.8718 27.602 21.5086 27.795 22.1648 28.0073C23.3228 28.374 24.5 28.76 25.7159 28.9915C25.9667 29.0494 26.2369 29.088 26.5071 29.1073C26.8159 29.1266 27.1247 29.0687 27.4335 29.0108C28.1861 28.895 28.9388 28.6828 29.6722 28.4705C30.9652 28.0845 32.239 27.6406 33.4934 27.1774C33.5513 28.8564 33.6285 30.5355 33.725 32.1952C33.0495 32.3689 32.3934 32.5812 31.7372 32.7549Z" fill="#FFF9D0"/>
<path d="M43.7607 20.249C43.5098 19.6893 43.1624 19.1297 42.6992 18.7244C42.1975 18.2805 41.3869 18.2033 40.9044 18.7244C40.4605 19.2069 40.3834 20.056 40.9044 20.5192C40.9816 20.5964 41.0588 20.6736 41.136 20.7701C41.1167 20.7315 41.0974 20.7122 41.0588 20.6543C41.0781 20.6929 41.0974 20.7122 41.1167 20.7508C41.1167 20.7508 41.1167 20.7701 41.136 20.7701C41.1553 20.7894 41.1746 20.8087 41.1746 20.828C41.2325 20.9052 41.3097 21.021 41.136 20.7894C41.1746 20.8473 41.2132 20.9052 41.2518 20.9438C41.3483 21.0982 41.4255 21.2526 41.5027 21.407C41.522 21.4456 41.522 21.4842 41.5413 21.5035C41.5799 21.5999 41.5992 21.7157 41.6378 21.8122C41.6378 21.8508 41.6571 21.8701 41.6571 21.9087C41.6571 21.8894 41.6764 22.0052 41.6957 22.0824C41.6957 22.1017 41.6957 22.1403 41.715 22.1596C41.715 22.1403 41.715 22.121 41.6957 22.1017C41.6957 22.1596 41.6957 22.2175 41.715 22.2754C41.715 22.4105 41.715 22.5649 41.715 22.7C41.715 22.7193 41.715 22.7772 41.6957 22.8158C41.6957 22.8544 41.6764 22.8737 41.6764 22.893C41.6185 23.2404 41.5027 23.5685 41.3676 23.8965C41.2518 24.186 41.3483 24.6299 41.5027 24.8808C41.6571 25.151 41.9659 25.4019 42.2554 25.4598C42.5835 25.537 42.9501 25.5177 43.2396 25.3247C43.5291 25.1317 43.6835 24.8808 43.8186 24.572C44.3783 23.1632 44.359 21.6385 43.7607 20.249Z" fill="#FFF9D0"/>
<path d="M41.657 21.9088C41.657 21.9088 41.657 21.9667 41.6956 22.0825C41.6956 22.0825 41.6956 22.0825 41.6956 22.0632C41.6763 22.0246 41.6763 21.9667 41.657 21.9088Z" fill="#FFF9D0"/>
<path d="M11.0871 8.43796C11.0292 6.79753 8.55894 6.85543 8.57824 8.49586C8.63613 10.1363 11.1064 10.0784 11.0871 8.43796Z" fill="#FFF9D0"/>
<path d="M19.0964 8.43796C19.0385 6.79753 16.5682 6.85543 16.5875 8.49586C16.6454 10.1363 19.1157 10.0784 19.0964 8.43796Z" fill="#FFF9D0"/>
</svg>
