<svg width="33" height="29" viewBox="0 0 33 29" fill="none" xmlns="http://www.w3.org/2000/svg">
<path d="M26.1544 0.384521C22.9595 -0.20154 19.6511 -0.125919 16.4939 0.668099C10.5198 2.1427 4.81048 5.71578 2.08813 11.3684C1.42645 12.7674 3.50602 13.9963 4.1677 12.5784C6.26618 8.19236 10.0283 5.58345 14.471 3.82526C17.1367 2.78548 19.9724 2.29394 22.8271 2.40737C24.2072 2.46409 25.5495 2.65314 26.8917 2.99344C27.5723 3.16358 28.2529 3.35263 28.8957 3.61731C29.633 3.90088 29.8788 4.20337 29.5952 4.92177C27.6858 10.064 23.2619 14.9793 18.3844 17.5504C14.3198 19.7056 9.76364 20.1026 5.32092 19.1385C6.30399 17.7206 7.53283 16.435 9.02634 15.3196C13.2611 12.1814 17.8172 9.76149 22.846 8.15455C24.3206 7.68192 23.6968 5.35658 22.2032 5.82921C16.6073 7.6063 11.484 10.3476 6.85224 13.9773C2.61748 17.2858 0.594624 22.0877 0.00856307 27.3244C-0.161584 28.8746 2.25828 28.8557 2.42843 27.3244C2.67419 25.1692 3.20354 23.1464 4.07318 21.3315C4.09208 21.3315 4.09208 21.3315 4.11099 21.3315C8.96962 22.5225 13.9417 22.2578 18.5167 20.1593C22.2222 18.4768 25.3604 15.6977 27.8559 12.5216C28.8579 11.2361 29.7653 9.89383 30.5593 8.47594C31.2021 7.32272 32.015 5.92374 32.2041 4.58147C32.6011 1.53774 28.3663 0.78153 26.1544 0.384521Z" fill="#FFF9D0"/>
</svg>
