<svg width="41" height="36" viewBox="0 0 41 36" fill="none" xmlns="http://www.w3.org/2000/svg">
<path d="M40.7073 8.89528C40.7073 7.98714 40.032 7.52142 39.3334 7.47485C39.217 7.42828 39.1006 7.40499 38.9609 7.40499C36.4227 7.17213 33.8613 7.00913 31.3231 6.86942C28.6685 4.35455 25.7811 0.0233799 21.7293 9.40152e-05C17.631 -0.0231918 14.7203 4.28469 11.9726 6.7297C11.926 6.77627 11.9027 6.79956 11.8562 6.84613C9.318 6.96256 6.77984 7.12556 4.26497 7.35842C3.26368 7.45156 2.79796 8.33642 2.84453 9.12814C2.82125 11.6663 2.82125 14.1812 2.79796 16.7193C2.5651 16.7426 2.33224 16.7426 2.09939 16.7659C0.213233 16.9056 0.189947 19.8629 2.09939 19.7232C2.33224 19.6999 2.54182 19.6999 2.77468 19.6766C2.75139 24.6132 2.70482 29.5731 2.68153 34.5097C2.68153 34.9521 2.84453 35.2781 3.07739 35.511C3.10068 35.5343 3.12396 35.5576 3.14725 35.5809C3.38011 35.837 3.72939 36 4.17183 36C10.5056 35.9534 16.816 35.8137 23.1498 35.674C25.0592 35.6274 25.0592 32.6701 23.1498 32.7167C17.3283 32.8331 11.5069 32.9728 5.66212 33.0194C5.68541 28.502 5.70869 24.0078 5.75526 19.4903C7.19898 19.3972 8.64271 19.3041 10.0864 19.2342C10.0864 19.8163 10.1097 20.3985 10.1097 20.9806C10.133 22.8901 13.0903 22.8901 13.067 20.9806C13.067 20.3519 13.0437 19.7232 13.0437 19.0945C18.7488 18.8616 24.4538 18.8383 30.1588 19.0712C30.1355 19.6999 30.1123 20.3053 30.0657 20.9341C29.9725 22.8435 32.9298 22.8435 33.023 20.9341C33.0463 20.3752 33.0696 19.7931 33.0928 19.2342C34.6297 19.3273 36.1666 19.4438 37.7034 19.5835C37.7034 23.8914 37.7034 28.176 37.7267 32.4838C35.7474 32.5071 33.7448 32.5304 31.7655 32.5537C29.8561 32.577 29.8561 35.5576 31.7655 35.511C34.2571 35.4644 36.7254 35.4411 39.217 35.4179C39.6129 35.4179 39.9389 35.2781 40.1717 35.0686C40.4977 34.8357 40.7073 34.4631 40.7073 33.9508C40.684 25.5679 40.7539 17.2316 40.7073 8.89528ZM17.6078 5.37912C18.6789 4.37783 20.1692 2.93411 21.7293 2.9574C23.2895 2.98068 24.7565 4.47098 25.8044 5.47227C26.2235 5.86813 26.6194 6.28727 27.0152 6.68313C23.4525 6.58999 19.8665 6.5667 16.3037 6.65984C16.7229 6.2407 17.1653 5.79827 17.6078 5.37912ZM33.2791 16.2536C33.3024 15.9509 33.3024 15.6482 33.3257 15.3455C33.4188 13.436 30.4615 13.436 30.3684 15.3455C30.3451 15.6016 30.3451 15.8578 30.3218 16.1139C24.5702 15.8578 18.7953 15.9043 13.0204 16.1139C13.0204 15.7413 13.0204 15.392 12.9972 15.0195C12.9739 13.11 10.0166 13.11 10.0399 15.0195C10.0399 15.4386 10.0399 15.8345 10.0631 16.2536C8.64271 16.3235 7.19899 16.4166 5.77855 16.4865C5.80184 14.3907 5.80183 12.2717 5.82512 10.176C16.4435 9.33772 27.1084 9.38429 37.75 10.2691C37.75 12.3882 37.7733 14.4839 37.7733 16.6029C36.2597 16.4399 34.7694 16.3468 33.2791 16.2536Z" fill="#FFF9D0"/>
</svg>
