<svg width="28" height="29" viewBox="0 0 28 29" fill="none" xmlns="http://www.w3.org/2000/svg">
<path d="M5.91341 2.83944C5.8542 3.22714 5.86125 3.56974 5.91764 3.95744C6.00364 4.54957 6.28138 5.07967 6.66062 5.53505C7.30774 6.31046 8.43984 6.76302 9.44364 6.68265C10.0597 6.63331 10.6787 6.44721 11.1876 6.08911C11.7121 5.71974 12.1858 5.2136 12.3352 4.56931C12.5016 3.85452 12.3056 3.05373 11.877 2.46442C11.4513 1.87793 10.8507 1.38026 10.0936 1.35911C10.0612 1.35911 10.0287 1.35911 9.9963 1.36334C10.0724 1.23082 10.1147 1.07996 10.1077 0.922061C10.0851 0.421569 9.70305 0.00284694 9.18564 2.72648e-05C7.94358 -0.00561208 6.7438 0.864257 6.21089 1.96393C6.07695 2.24167 5.95853 2.53209 5.912 2.83803L5.91341 2.83944ZM7.78144 3.89259C7.78003 3.88131 7.80259 3.94475 7.81951 3.98987C7.80118 3.95603 7.78708 3.9236 7.78144 3.89259ZM7.99574 4.27324C8.01689 4.29862 8.03381 4.31977 8.02676 4.31554C8.01689 4.3099 8.0042 4.28875 7.99574 4.27324ZM8.18043 4.46639C8.17479 4.45511 8.25515 4.52419 8.28617 4.54957C8.23823 4.52278 8.19171 4.49318 8.18043 4.46639ZM8.51033 4.68069C8.51033 4.68069 8.53712 4.68774 8.57095 4.70465C8.57095 4.70465 8.56954 4.70465 8.56813 4.70465C8.55545 4.70042 8.51738 4.69197 8.51033 4.6821V4.68069ZM9.36892 4.85128C9.36892 4.85128 9.41686 4.84282 9.45915 4.83859C9.40981 4.84987 9.37174 4.85692 9.36892 4.85128ZM10.556 4.12521C10.556 4.12521 10.5518 4.13085 10.5504 4.13508C10.5504 4.1238 10.5532 4.11111 10.5574 4.0956C10.5574 4.10688 10.5574 4.11675 10.5574 4.12521H10.556ZM10.5461 3.90951C10.5461 3.90951 10.5518 3.93911 10.5518 3.96026C10.5461 3.93206 10.5433 3.90669 10.5461 3.90951ZM9.9963 3.18767C9.98361 3.18485 9.97374 3.18344 9.97374 3.18062C9.97374 3.18062 9.98361 3.18344 9.9963 3.18767ZM8.0324 2.50249C8.07187 2.45737 8.11135 2.41226 8.15223 2.36855C8.22977 2.28678 8.31295 2.21488 8.39613 2.14157C8.40177 2.13734 8.40741 2.13311 8.41305 2.12888C8.4624 2.09505 8.51174 2.06262 8.56249 2.03301C8.61325 2.00341 8.664 1.9738 8.71617 1.94842C8.72463 1.94419 8.73449 1.93996 8.74295 1.93573C8.836 1.90331 8.92764 1.87229 9.02492 1.85114C9.02774 1.85114 9.02915 1.85114 9.03197 1.84973C9.08272 1.84691 9.13207 1.84409 9.18282 1.84409C9.21666 1.84409 9.25049 1.84127 9.28292 1.83845C9.20538 1.97239 9.16309 2.12465 9.17013 2.28114C9.19269 2.76895 9.54233 3.15242 10.0245 3.19754C10.0287 3.19754 10.033 3.19895 10.0358 3.20036C10.0612 3.21446 10.0865 3.22714 10.1105 3.24265C10.1161 3.24688 10.1246 3.25252 10.1345 3.25816C10.1457 3.26803 10.157 3.27649 10.1627 3.28213C10.2247 3.33993 10.2783 3.40478 10.3361 3.46682C10.3375 3.46964 10.3389 3.47105 10.3417 3.47387C10.3699 3.51475 10.3953 3.55705 10.4207 3.60075C10.4432 3.64023 10.463 3.6797 10.4827 3.71918C10.4827 3.722 10.4827 3.72341 10.4855 3.72623C10.5151 3.81082 10.5334 3.89541 10.5532 3.98141C10.5532 3.98423 10.5532 3.98846 10.5532 3.98987C10.5532 3.99692 10.556 4.04203 10.5574 4.08292C10.5504 4.11252 10.5419 4.14072 10.532 4.16892C10.5109 4.20557 10.4926 4.24223 10.47 4.27747C10.4672 4.2817 10.463 4.28734 10.4587 4.29439C10.4432 4.31272 10.4249 4.33387 10.4164 4.34374C10.3586 4.40577 10.2924 4.45934 10.2303 4.51714C10.2261 4.51996 10.2219 4.52278 10.2176 4.52701C10.1768 4.55521 10.1345 4.582 10.0922 4.60597C10.0485 4.63134 10.0048 4.65531 9.96105 4.67928C9.94414 4.68774 9.89338 4.7117 9.85954 4.72721C9.84827 4.73144 9.8384 4.73567 9.83276 4.73708C9.78482 4.754 9.73689 4.76951 9.68895 4.7836C9.67204 4.78783 9.56207 4.81885 9.47607 4.83859C9.45774 4.84 9.438 4.84282 9.41968 4.84282C9.37174 4.84564 9.3224 4.84705 9.27305 4.84846C9.19692 4.84846 9.12079 4.84282 9.04466 4.83718C9.01928 4.83295 8.9939 4.82872 8.96994 4.82308C8.88112 4.80475 8.79512 4.78219 8.70912 4.754C8.67246 4.74272 8.63722 4.72862 8.60056 4.71593C8.53148 4.68069 8.46099 4.64826 8.39331 4.60737C8.37217 4.59469 8.33128 4.57495 8.29181 4.5538C8.28899 4.55098 8.28899 4.55098 8.28476 4.54675C8.26925 4.53265 8.25233 4.51997 8.23541 4.50587C8.19735 4.47344 8.16069 4.4396 8.12545 4.40577C8.07469 4.35642 8.02817 4.30144 7.98023 4.24928C7.95485 4.21121 7.92948 4.17315 7.90551 4.13367C7.88577 4.09983 7.85758 4.06036 7.83361 4.01806C7.83361 4.01383 7.83361 4.01383 7.83079 4.00678C7.82515 3.98423 7.81387 3.96308 7.80682 3.94052C7.78849 3.88836 7.77299 3.83478 7.75748 3.78121C7.74479 3.73469 7.73351 3.68675 7.72364 3.63882C7.72223 3.62895 7.718 3.60921 7.71518 3.58806C7.71236 3.56551 7.71095 3.54295 7.70954 3.53167C7.70531 3.46964 7.70249 3.40619 7.7039 3.34416C7.7039 3.30468 7.70672 3.26662 7.70813 3.22714C7.72787 3.1341 7.75043 3.04105 7.78144 2.94941C7.78567 2.93954 7.78849 2.92826 7.79272 2.91839C7.81105 2.88032 7.82797 2.84085 7.84912 2.80419C7.9041 2.69987 7.96754 2.59977 8.03522 2.5039L8.0324 2.50249Z" fill="#FFF9D0"/>
<path d="M27.7486 22.1133C27.5907 21.6241 27.1184 21.352 26.6151 21.4705C25.6381 21.7003 24.661 21.9301 23.6826 22.1599C22.4236 20.4469 20.9602 18.8637 19.3587 17.4708C19.3107 17.4285 19.2614 17.3862 19.212 17.3453C18.9921 17.162 18.8018 17.0901 18.5198 17.0647C18.3069 17.045 18.0926 17.0309 17.8783 17.0168C16.7956 16.9421 15.7114 16.8913 14.6272 16.8603C13.1948 16.8208 11.7596 16.8166 10.3272 16.8744V12.6012C10.6303 12.4461 10.8559 12.1331 10.8404 11.7821C10.8249 11.4282 10.6261 11.1124 10.3272 10.9587V9.76317C10.464 9.74766 10.5993 9.73357 10.7361 9.72088C11.9359 9.61232 13.1441 9.58976 14.3495 9.62501C15.3279 9.65321 16.3049 9.72088 17.2777 9.82239C17.4977 9.84494 17.7782 9.70255 17.9291 9.55311C18.0884 9.3938 18.2096 9.13157 18.1984 8.90176C18.1744 8.36038 17.7923 8.0333 17.2763 7.97973C14.7259 7.71327 12.1318 7.65829 9.58707 8.01356C9.44468 8.0333 9.30228 8.05304 9.15989 8.08124C8.76796 8.15737 8.48317 8.58737 8.48317 8.96944V10.9263C6.16258 11.1364 3.8434 11.8878 2.22067 13.6247C0.531689 15.4307 -0.0886397 17.9275 0.0100488 20.351C0.0706718 21.8398 0.480934 23.2891 1.31556 24.534C2.15441 25.7832 3.32035 26.8109 4.67238 27.4764C6.07094 28.1644 7.67533 28.5521 9.23884 28.4689C10.7149 28.3899 12.0529 27.8119 13.2089 26.911C14.1803 26.1539 14.9882 25.1642 15.5916 24.0928C16.0935 23.2031 16.4995 22.212 16.5756 21.1829C16.5926 20.9559 16.5658 20.7444 16.5333 20.5188C16.5037 20.3073 16.2852 20.0705 16.1104 19.9676C15.913 19.852 15.6212 19.8026 15.3998 19.8745C15.1771 19.9464 14.9614 20.0846 14.8486 20.2975C14.7245 20.5315 14.7189 20.7472 14.7555 21.008C14.6949 20.5879 14.7372 20.8727 14.7386 20.9798C14.7386 21.0588 14.7358 21.1377 14.7287 21.2153C14.7287 21.2251 14.7273 21.2336 14.7259 21.2435C14.709 21.3379 14.6893 21.4324 14.6667 21.5254C14.6188 21.7242 14.5582 21.9202 14.4891 22.1133C14.4552 22.2078 14.4186 22.3023 14.3805 22.3967C14.3565 22.4517 14.3312 22.5067 14.3058 22.5603C14.083 23.0382 13.8166 23.495 13.5149 23.9264C13.4514 24.0166 13.3852 24.104 13.3203 24.1929C13.3062 24.2112 13.2921 24.2295 13.2837 24.2408C13.2343 24.3028 13.1836 24.3649 13.1314 24.4255C12.9481 24.6412 12.755 24.847 12.552 25.043C12.4547 25.1374 12.3546 25.2291 12.2517 25.3193C12.1995 25.3644 12.1487 25.4081 12.0952 25.4518C12.0642 25.4786 12.0317 25.504 11.9993 25.5294C11.871 25.6323 12.0176 25.5336 12.0557 25.4871C11.9767 25.5858 11.8076 25.669 11.7032 25.7394C11.5778 25.824 11.4481 25.9044 11.3169 25.9791C11.1901 26.051 11.0618 26.1201 10.9306 26.1835C10.8686 26.2146 10.8052 26.2428 10.7417 26.271C10.7163 26.2822 10.691 26.2935 10.6656 26.3048C10.7023 26.2879 10.7319 26.2752 10.7544 26.2639C10.7319 26.2738 10.7079 26.2836 10.691 26.2907C10.4132 26.3978 10.127 26.4838 9.83661 26.5459C9.76612 26.5614 9.69563 26.5741 9.62373 26.5868C9.59976 26.591 9.55887 26.5952 9.52363 26.5994C9.54619 26.598 9.57438 26.5952 9.60963 26.5924C9.44609 26.6051 9.28537 26.6248 9.12182 26.6305C8.77359 26.6417 8.42396 26.6248 8.07714 26.591C8.02779 26.5868 7.97704 26.5811 7.92769 26.5755C7.91782 26.5755 7.89668 26.5713 7.87412 26.5684C7.82478 26.5614 7.77543 26.5529 7.7275 26.5445C7.54845 26.5149 7.37081 26.4796 7.19458 26.4373C6.86186 26.3598 6.53477 26.2625 6.21474 26.1469C6.13861 26.1201 6.06389 26.0905 5.98917 26.0609C5.96943 26.0524 5.94969 26.0454 5.92854 26.0369C5.77346 25.9678 5.61979 25.8959 5.46894 25.8184C5.17569 25.6675 4.8909 25.4984 4.6174 25.3137C4.55254 25.27 4.4891 25.2249 4.42566 25.1797C4.39464 25.1572 4.36504 25.1346 4.33402 25.1121C4.21418 25.0148 4.09435 24.9175 3.97733 24.8132C3.73061 24.5932 3.4994 24.3564 3.28369 24.1069C3.23435 24.0491 3.185 23.9898 3.13707 23.9306C3.12861 23.9193 3.11874 23.9095 3.1131 23.8996C3.1131 23.8996 3.1131 23.8996 3.1131 23.8982C3.10323 23.8855 3.09336 23.8714 3.08208 23.8587C3.09054 23.8686 3.09618 23.8742 3.10323 23.8827C3.00736 23.753 2.91431 23.6219 2.82831 23.4851C2.6549 23.2158 2.49982 22.9339 2.36448 22.6434C2.33205 22.5744 2.23195 22.3135 2.34615 22.611C2.31795 22.5391 2.28835 22.4686 2.26156 22.3967C2.20094 22.2388 2.14736 22.0767 2.09943 21.9146C2.05149 21.751 2.0092 21.5847 1.97254 21.4169C1.95562 21.3408 1.94153 21.2632 1.92743 21.1857C1.91897 21.1391 1.90487 21.0193 1.89923 20.9742C1.84989 20.4286 1.82733 19.883 1.8513 19.3346C1.86398 19.0653 1.88795 18.7974 1.91897 18.5295C1.92884 18.4605 1.94012 18.3914 1.9528 18.3223C1.97677 18.1855 2.00356 18.0488 2.03316 17.9134C2.09097 17.6526 2.16005 17.3946 2.24182 17.1409C2.27989 17.0238 2.31936 16.9082 2.36307 16.794C2.38421 16.7376 2.40677 16.6812 2.42933 16.6248C2.43215 16.6192 2.43497 16.6136 2.43638 16.6093C2.63939 16.1511 2.89175 15.7141 3.18923 15.3109C3.10464 15.4237 3.1554 15.3504 3.19205 15.3052C3.19346 15.3024 3.19628 15.301 3.19769 15.2982C3.21743 15.2714 3.23858 15.2446 3.25831 15.2178C3.23576 15.2474 3.21743 15.2714 3.20333 15.2926C3.23717 15.2503 3.27241 15.208 3.30766 15.1657C3.39789 15.0599 3.49094 14.9556 3.5868 14.8555C3.76585 14.6694 3.95477 14.4946 4.15497 14.331C4.19586 14.2972 4.29313 14.2253 4.28045 14.2338C4.28608 14.2295 4.29031 14.2253 4.29595 14.2225C4.41015 14.1407 4.52576 14.0618 4.64418 13.9856C4.87822 13.8362 5.12071 13.7008 5.36884 13.5796C5.42946 13.55 5.4915 13.5204 5.55353 13.4922C5.57468 13.4823 5.64517 13.4513 5.69169 13.4316C5.72553 13.4175 5.76077 13.4034 5.77487 13.3977C5.85382 13.3667 5.93418 13.3371 6.01454 13.3075C6.31343 13.2004 6.61936 13.1087 6.92671 13.0312C7.24815 12.9508 7.57382 12.886 7.90232 12.8338C7.98409 12.8211 8.06586 12.8112 8.14622 12.7971C7.81914 12.8493 8.13071 12.8 8.2012 12.7929C8.29566 12.7816 8.39012 12.776 8.48458 12.7661V17.8359C8.48458 18.3124 8.90753 18.7861 9.40661 18.7579C12.2347 18.5916 15.0812 18.6621 17.9065 18.858C17.9982 18.8651 18.0898 18.8721 18.1814 18.8792C19.2684 19.8195 20.2722 20.8769 21.1985 21.9695C21.4368 22.2515 21.6567 22.5504 21.8978 22.8295C21.9217 22.8606 21.9443 22.8902 21.9669 22.9212C22.0232 22.9959 22.0796 23.0706 22.1346 23.1468C22.2587 23.3159 22.3813 23.4865 22.5012 23.6599C22.7451 24.0096 23.1187 24.183 23.5416 24.0829C24.5807 23.839 25.6183 23.5951 26.6574 23.3498C26.8054 23.3145 26.9549 23.2793 27.1029 23.2454C27.5724 23.1355 27.8952 22.573 27.7458 22.1119L27.7486 22.1133ZM13.3372 24.1816C13.3852 24.1181 13.4289 24.0575 13.3372 24.1816V24.1816ZM4.14651 14.3381C4.19022 14.3057 4.23392 14.2732 4.27763 14.2408C4.26353 14.2507 4.22546 14.2803 4.14651 14.3381ZM21.8738 22.7985C21.8808 22.807 21.8865 22.8154 21.8935 22.8239C21.8625 22.7844 21.7906 22.6886 21.8738 22.7985Z" fill="#FFF9D0"/>
</svg>
