<svg width="55" height="36" viewBox="0 0 55 36" fill="none" xmlns="http://www.w3.org/2000/svg">
<path d="M53.2437 28.4053C47.2793 28.8072 41.2936 29.2937 35.3503 29.8859C29.407 30.4781 23.4425 31.1338 17.4992 31.8952C16.4416 32.0221 15.3841 32.1701 14.3266 32.3182C14.0939 29.061 13.6286 25.825 13.2056 22.6101C12.9518 20.7911 12 13.7479 11.9154 13.0923C11.8519 12.627 11.7885 12.1405 11.7462 11.654C13.7555 11.1676 37.4865 8.75639 39.94 8.54488C40.8706 8.46028 41.7801 8.37567 42.7107 8.35452C42.7319 8.48143 43.2818 11.506 43.4933 12.9019C44.0644 16.6456 45.3334 25.7404 45.4392 26.5229C45.4815 26.8402 45.8199 27.1997 46.0737 27.3478C46.3698 27.517 46.7928 27.5593 47.1524 27.4959C48.0618 27.3266 48.1887 26.1845 48.1253 25.7827C47.5754 22.0601 47.0889 18.3376 46.539 14.6151C46.2852 12.9442 45.4815 7.6777 45.1642 6.78938C44.9527 6.23946 44.6354 5.77414 44.0221 5.62609C43.4087 5.47804 41.9705 5.60494 41.3571 5.66839C39.1151 5.81645 20.2064 7.80461 17.3934 8.14302C15.3418 8.39682 13.2902 8.62948 11.2597 8.94674C10.8579 9.01019 10.456 9.05249 10.0753 9.15825C9.35616 9.36975 9.01775 9.94082 8.9543 10.6599C8.93315 10.9349 8.9543 11.2099 8.97545 11.4848C9.06005 12.6481 9.22926 13.8114 9.37731 14.9747C9.60997 16.7725 11.2809 29.2514 11.4501 31.028C11.4924 31.5779 11.5558 32.1278 11.577 32.6778C10.1387 32.8681 8.70049 33.0796 7.26225 33.2911C6.94499 33.3334 6.58543 33.6718 6.43737 33.9256C6.26817 34.2218 6.18356 34.6659 6.28932 35.0043C6.39507 35.3427 6.60658 35.66 6.92384 35.8292C7.2834 36.0196 7.60066 36.0196 8.00252 35.9773C9.48306 35.7658 15.8706 34.8986 16.6108 34.7928C19.5719 34.4121 22.533 34.0526 25.4941 33.7141C31.3951 33.0373 37.2962 32.4451 43.2183 31.9586C46.5601 31.6837 49.9019 31.4299 53.2437 31.1972C53.9629 31.1549 54.6608 30.5838 54.6397 29.8013C54.5974 29.0822 54.0263 28.363 53.2437 28.4053Z" fill="#FFF9D0"/>
<path d="M21.7928 27.6016C23.083 27.4536 24.352 27.3267 25.6422 27.1786C28.286 26.8825 30.9299 26.6075 33.5737 26.3114C34.8004 26.1845 36.0272 26.0788 37.2328 25.9096C38.3749 25.7615 38.671 25.127 38.6287 24.5136C38.5018 22.8639 38.1845 21.2353 37.8673 19.6278C37.6135 18.2953 37.2962 16.9417 36.979 15.6304C36.7886 14.8266 36.1541 14.1287 34.9062 14.2133C33.9967 14.2767 33.0872 14.3613 32.1778 14.4459C29.5339 14.6786 20.3123 15.6515 20.2911 15.6515C20.0373 15.5246 19.7835 15.3766 19.5297 15.2496C18.8952 14.9112 17.9857 15.0593 17.6261 15.7573C17.2877 16.3918 17.4358 17.3013 18.1337 17.6608C18.4933 17.8512 18.8317 18.0204 19.1913 18.2107C19.2124 18.3588 19.3605 20.1566 19.4451 20.8757C19.6143 22.4197 20.0796 25.9942 20.1008 26.248C20.27 27.4747 21.0102 27.7074 21.7928 27.6016ZM22.6811 24.7251C22.66 24.6194 22.1735 20.5162 22.0889 19.7124C23.6118 20.5162 27.4823 22.5255 27.8842 22.737C28.4764 23.0331 29.0898 22.9485 29.5762 22.5255C30.3588 21.8486 33.7641 18.8664 34.7158 18.0627C34.8004 18.4645 35.4773 21.9544 35.6888 23.308C33.8064 23.4984 22.7657 24.704 22.6811 24.7251ZM31.374 17.2801C30.4011 18.1261 28.413 19.8605 28.3918 19.8816C27.5881 19.4586 25.0923 18.1473 24.6481 17.9146C26.8478 17.7031 31.3317 17.2801 31.374 17.2801Z" fill="#FFF9D0"/>
<path d="M7.49507 28.1726C7.83348 28.2572 8.27764 28.2149 8.57375 28.0246C9.16597 27.6439 9.52553 26.7555 9.08137 26.121C7.36817 23.6675 6.73365 21.1718 6.86055 18.8875C6.90285 18.1684 6.20488 17.4704 5.46461 17.4916C4.68203 17.5339 4.11097 18.1049 4.06867 18.8875C3.96291 21.9332 4.89354 25.0423 6.67019 27.517C6.8817 27.8342 7.13551 28.088 7.49507 28.1726Z" fill="#FFF9D0"/>
<path d="M5.35878 28.7438C4.08974 26.8402 3.45522 25.2962 3.09566 23.9637C2.90531 23.2657 2.10158 22.7581 1.38246 22.9908C0.684489 23.2234 0.198025 23.9426 0.409531 24.704C1.00175 26.7556 1.89008 28.8495 3.24372 30.5204C3.45522 30.7742 3.89939 30.9223 4.21665 30.9223C4.55506 30.9223 4.95692 30.7742 5.18958 30.5204C5.42223 30.2454 5.61259 29.907 5.59144 29.5475C5.61259 29.1879 5.42223 28.8284 5.35878 28.7438Z" fill="#FFF9D0"/>
<path d="M44.3183 2.36887C46.4123 3.99747 47.0679 6.02793 47.3006 7.67768C47.3429 7.99494 47.6813 8.3545 47.9351 8.50256C48.2312 8.67176 48.6754 8.75636 49.0138 8.65061C49.3522 8.54486 49.6695 8.33335 49.8387 8.01609C50.029 7.65653 50.029 7.33927 49.9867 6.93741C49.6271 4.42048 48.2524 2.00931 46.2854 0.401862C45.9892 0.169205 45.6931 0 45.3124 0C44.974 0 44.5721 0.148055 44.3395 0.401862C43.853 0.909478 43.705 1.88241 44.3183 2.36887Z" fill="#FFF9D0"/>
</svg>
