<svg width="37" height="36" viewBox="0 0 37 36" fill="none" xmlns="http://www.w3.org/2000/svg">
<path d="M36.8831 9.45062C36.8446 8.77581 36.4975 8.48661 36.0348 8.101C34.4924 6.71282 28.7276 1.56499 27.3973 0.369617C26.9152 -0.0738292 26.0862 -0.170231 25.6042 0.369617C22.8664 3.43518 19.8779 6.28866 16.8124 9.00718C15.5977 10.0869 17.3908 11.8607 18.6054 10.8002C21.3818 8.35165 24.081 5.76809 26.5875 3.03029C29.171 5.34393 31.7546 7.65756 34.3381 9.97119C34.261 17.7604 34.261 25.5496 34.3381 33.3582C33.1428 33.3582 31.9281 33.3582 30.7327 33.3774C30.752 32.3749 30.7713 31.3916 30.7713 30.389C30.7713 29.5599 30.8099 28.7309 30.7327 27.9211C30.6556 27.1692 30.27 26.5522 29.4024 26.5329C29.1903 26.5329 25.1029 26.5329 24.5052 26.5329C23.8111 26.5329 23.252 27.1113 23.252 27.7862C23.2327 29.6563 23.2134 31.5458 23.0399 33.3967C20.0707 33.3967 17.1209 33.416 14.1517 33.416C14.1324 31.5265 14.1131 29.6563 14.0746 27.7669C14.0553 27.0921 13.4962 26.4944 12.8214 26.5137C11.1054 26.5329 9.38949 26.5329 7.69282 26.5522C6.99873 26.5522 6.45888 27.1306 6.4396 27.8054C6.38176 29.6756 6.3432 31.5651 6.36248 33.4353C5.16711 33.4353 3.97173 33.4353 2.77635 33.4546C2.60283 28.4802 2.48715 23.4674 2.67995 18.4931C5.18639 15.601 7.73138 12.7283 10.2764 9.87479C12.8985 12.709 15.4242 15.601 17.9692 18.5123C18.1813 22.5034 18.2006 26.5137 18.0463 30.4854C17.9885 32.1049 20.5142 32.1049 20.572 30.4854C20.7263 26.398 20.8227 22.2334 20.4756 18.1653C20.3985 17.1242 19.3767 16.2951 18.7211 15.5625C17.5065 14.1743 12.4743 8.52517 11.1633 7.11771C10.7198 6.6357 9.81365 6.61642 9.3702 7.11771C7.30722 9.43134 1.34961 16.0638 0.539842 17.1242C-0.0964064 17.9532 0.115677 19.4185 0.0963964 20.4404C0.0771161 21.6165 0.250639 33.4738 0.289199 34.7463C0.308479 35.4211 0.848327 36.0188 1.54242 35.9995C12.8985 35.961 24.2546 35.9224 35.6106 35.9031C36.2855 35.9031 36.8831 35.3247 36.8639 34.6499C36.806 26.8029 36.9217 10.029 36.8831 9.45062ZM8.86892 33.416C8.84964 31.9507 8.86892 30.5047 8.92676 29.0394C9.81365 29.0394 10.7005 29.0201 11.5874 29.0201C11.6067 30.4854 11.626 31.9507 11.6453 33.3967C10.7198 33.416 9.79437 33.416 8.86892 33.416ZM28.2263 33.3582C27.3394 33.3582 26.4525 33.3582 25.5656 33.3582C25.7006 31.9121 25.7584 30.4661 25.7584 29.0008C26.5875 29.0008 27.4165 29.0008 28.2456 29.0008C28.2456 29.3864 28.2456 29.7527 28.2456 30.1383C28.2649 31.2373 28.2456 32.2977 28.2263 33.3582Z" fill="#FFF9D0"/>
<path d="M14.383 21.655C13.6504 21.655 12.9177 21.655 12.1658 21.655C11.8381 21.655 11.5103 21.79 11.2789 22.0214C11.0668 22.2334 10.8933 22.5998 10.9126 22.9082C10.9319 23.236 11.0283 23.5638 11.2789 23.7951C11.5296 24.0265 11.8381 24.1615 12.1658 24.1615C12.8985 24.1615 13.6311 24.1615 14.383 24.1615C14.7108 24.1615 15.0386 24.0265 15.2699 23.7951C15.482 23.5831 15.6555 23.2167 15.6363 22.9082C15.617 22.5805 15.5206 22.2527 15.2699 22.0214C15.0386 21.79 14.7301 21.655 14.383 21.655Z" fill="#FFF9D0"/>
<path d="M15.2892 17.182C15.0386 16.9506 14.7301 16.8157 14.4023 16.8157C13.6697 16.8157 12.937 16.8157 12.1851 16.8157C11.8573 16.8157 11.5296 16.9506 11.2982 17.182C11.0861 17.3941 10.9126 17.7604 10.9319 18.0689C10.9512 18.3967 11.0476 18.7244 11.2982 18.9558C11.5489 19.1871 11.8573 19.3221 12.1851 19.3221C12.9178 19.3221 13.6504 19.3221 14.4023 19.3221C14.7301 19.3221 15.0579 19.1871 15.2892 18.9558C15.5013 18.7437 15.6748 18.3774 15.6556 18.0689C15.6363 17.7604 15.5399 17.4134 15.2892 17.182Z" fill="#FFF9D0"/>
<path d="M31.2147 21.7708C30.5785 21.7708 29.9422 21.7708 29.306 21.7708C28.9782 21.7708 28.6504 21.9057 28.4191 22.1371C28.207 22.3492 28.0335 22.7155 28.0527 23.024C28.072 23.3517 28.1684 23.6795 28.4191 23.9109C28.6697 24.1422 28.9782 24.2772 29.306 24.2772C29.9422 24.2772 30.5785 24.2772 31.2147 24.2772C31.5425 24.2772 31.8702 24.1422 32.1016 23.9109C32.3137 23.6988 32.4872 23.3325 32.4679 23.024C32.4486 22.6962 32.3522 22.3684 32.1016 22.1371C31.8702 21.925 31.5617 21.7708 31.2147 21.7708Z" fill="#FFF9D0"/>
<path d="M28.3226 18.8979C28.5733 19.1293 28.8818 19.2642 29.2095 19.2642C29.9036 19.2642 30.617 19.2642 31.3111 19.2642C31.6388 19.2642 31.9666 19.1293 32.198 18.8979C32.41 18.6858 32.5836 18.3195 32.5643 18.011C32.545 17.6833 32.4486 17.3555 32.198 17.1241C31.9473 16.8928 31.6388 16.7578 31.3111 16.7578C30.617 16.7578 29.9036 16.7578 29.2095 16.7578C28.8818 16.7578 28.554 16.8928 28.3226 17.1241C28.1105 17.3362 27.937 17.7025 27.9563 18.011C27.9563 18.3195 28.072 18.6666 28.3226 18.8979Z" fill="#FFF9D0"/>
<path d="M8.40614 17.2013C8.1555 16.9699 7.84701 16.835 7.51925 16.835C6.82516 16.835 7.30716 16.835 6.59379 16.835C6.26603 16.835 5.93827 16.9699 5.7069 17.2013C5.49482 17.4134 5.3213 17.7797 5.34058 18.0882C5.35986 18.4159 5.45626 18.7437 5.7069 18.9751C5.95755 19.2064 6.26603 19.3414 6.59379 19.3414C7.28788 19.3414 6.80588 19.3414 7.51925 19.3414C7.84701 19.3414 8.17478 19.2064 8.40614 18.9751C8.61822 18.763 8.79175 18.3967 8.77246 18.0882C8.77246 17.7604 8.65678 17.4326 8.40614 17.2013Z" fill="#FFF9D0"/>
<path d="M7.50017 21.5586C6.80608 21.5007 7.28809 21.5393 6.57472 21.5007C6.24695 21.4815 5.89991 21.5971 5.64926 21.8092C5.4179 22.002 5.2251 22.3491 5.2251 22.6768C5.2251 23.0046 5.30222 23.3516 5.53358 23.6023C5.76494 23.8529 6.05415 24.0072 6.40119 24.0265C7.09528 24.0843 6.61328 24.0457 7.32665 24.0843C7.65441 24.1036 8.00146 23.9879 8.2521 23.7758C8.48346 23.583 8.67627 23.236 8.67627 22.9082C8.67627 22.5804 8.59914 22.2334 8.36778 21.9827C8.13642 21.7514 7.82793 21.5779 7.50017 21.5586Z" fill="#FFF9D0"/>
<path d="M29.306 14.0586C29.8651 14.0586 31.1376 14.0586 31.2147 14.0586C31.5425 14.0586 31.8702 13.9236 32.1016 13.6922C32.3137 13.4802 32.4872 13.1138 32.4679 12.8053C32.4486 12.4776 32.3522 12.1498 32.1016 11.9184C31.8509 11.6871 31.5425 11.5521 31.2147 11.5521C30.6556 11.5521 29.3831 11.5521 29.306 11.5521C28.9782 11.5521 28.6504 11.6871 28.4191 11.9184C28.207 12.1305 28.0335 12.4969 28.0527 12.8053C28.072 13.1331 28.1684 13.4609 28.4191 13.6922C28.6697 13.9236 28.9782 14.0586 29.306 14.0586Z" fill="#FFF9D0"/>
<path d="M25.5656 12.6319C25.1222 11.0702 22.153 11.4751 22.635 13.2489C23.0785 14.8299 26.0476 14.425 25.5656 12.6319Z" fill="#FFF9D0"/>
<path d="M23.3484 19.0907C24.8522 19.9198 26.3368 17.9339 24.8137 16.9121C23.3291 16.083 21.8445 18.0689 23.3484 19.0907Z" fill="#FFF9D0"/>
<path d="M22.635 23.2167C22.7892 24.7784 25.6234 24.6627 25.5849 23.0431C25.6042 21.2501 22.3265 21.385 22.635 23.2167Z" fill="#FFF9D0"/>
</svg>
