<svg width="56" height="36" viewBox="0 0 56 36" fill="none" xmlns="http://www.w3.org/2000/svg">
<path d="M9.11875 24.3673C9.19856 26.4224 12.2912 26.3625 12.2712 24.3074C12.1914 22.2324 9.0988 22.3122 9.11875 24.3673Z" fill="#FFF9D0"/>
<path d="M24.3626 24.3673C24.4425 26.4224 27.5351 26.3625 27.5151 24.3074C27.4553 22.2324 24.3427 22.3122 24.3626 24.3673Z" fill="#FFF9D0"/>
<path d="M12.89 31.9891C12.2914 32.009 11.9322 32.3881 11.6729 32.867C11.5731 33.0465 11.2938 33.4256 10.6752 33.4057C10.1565 33.4057 9.83723 32.9667 9.77737 32.7273C9.61775 32.1886 9.07904 31.6698 8.52037 31.6898C7.82203 31.7297 7.18355 32.2684 7.22346 32.9867C7.24341 33.4655 7.42298 33.9244 7.70232 34.3235C8.06146 34.8223 8.50041 35.2613 9.05908 35.5406C9.81728 35.9197 10.5755 36.0195 11.4135 35.8997C12.1118 35.8 12.7503 35.4209 13.289 34.9819C13.8078 34.5629 14.2068 33.9643 14.2268 33.286C14.2268 32.6275 13.5683 31.9691 12.89 31.9891Z" fill="#FFF9D0"/>
<path d="M54.1316 33.3858C53.5929 33.3858 53.0542 33.3658 52.5155 33.3658C52.5155 31.8494 52.5354 30.333 52.5155 28.8167C52.4955 27.3202 52.4756 25.8238 52.4357 24.3274C52.3958 22.8309 52.4157 20.9354 51.2385 19.8181C50.0813 18.7207 48.1658 18.8604 46.7093 18.8604C45.2129 18.8604 43.3373 18.601 42.0604 19.5188C40.7236 20.4566 40.4642 21.973 40.4243 23.4893C39.8656 23.4095 39.287 23.4694 38.6884 23.7487C37.6309 24.2675 37.0523 25.2053 36.9126 26.3625C36.8328 26.981 36.9126 27.7592 36.8528 28.258C36.8129 28.6171 36.6732 28.8366 36.3739 28.8366C35.7155 28.8566 35.6955 28.1383 35.6756 27.5197C35.6556 25.6043 35.6756 23.6889 35.6756 21.7535C35.6756 21.0352 35.077 20.4765 34.3787 20.4566C33.5806 20.4366 32.7825 20.3967 31.9844 20.3768C31.9844 19.8779 32.0043 19.3791 32.0043 18.8803C32.6428 18.8005 33.2813 18.7207 33.9198 18.6209C34.3986 18.5411 34.8974 18.4813 35.2566 18.1221C35.6157 17.763 35.6556 17.2841 35.6756 16.8053C35.7155 15.7877 35.6556 11.6775 34.8575 10.1411C34.239 8.96394 33.0019 8.48508 31.7449 8.30551C31.725 7.98627 31.705 7.66703 31.6851 7.34779C31.5654 5.65183 31.3858 3.95587 31.0666 2.29982C30.867 1.30219 30.5677 0.583904 29.5103 0.324522C27.4352 -0.17429 25.0609 0.0451878 22.9459 0.0651403C17.4191 0.124998 11.8723 0.384379 6.34545 0.643762C5.76682 0.663714 5.22811 1.02286 5.08844 1.60148C4.68939 3.13782 4.62953 4.77392 4.52977 6.35017C4.48987 7.06846 4.46991 7.78675 4.44996 8.50504C3.35257 8.86418 2.35495 9.48271 1.73642 10.4803C1.1179 11.478 1.07799 12.715 1.01813 13.8523C0.958277 14.9098 0.898419 15.9872 0.998182 17.0247C1.05804 17.6433 1.19771 18.182 1.77633 18.5212C2.11552 18.7207 2.57443 18.8005 2.97348 18.9003C3.45234 19.02 3.9312 19.1198 4.43001 19.2195C4.48987 21.6936 4.58963 24.1677 4.82906 26.6219C4.92882 27.6195 4.88891 29.2157 5.66706 29.9739C6.34544 30.6523 7.80198 30.4727 8.67988 30.4927C12.7701 30.5924 16.8804 30.5924 20.9706 30.6124C23.1055 30.6124 25.2404 30.6124 27.3754 30.6124C27.3754 30.6722 27.3754 30.7121 27.3754 30.772C27.3754 30.9316 27.3354 31.7297 27.1359 32.4281C27.116 32.4879 26.9963 33.5454 26.1183 33.5454C25.5796 33.5454 25.1806 33.286 25.021 33.0067C24.9212 32.8072 24.7815 32.5278 24.4224 32.3283C24.1431 32.1687 23.7241 32.0889 23.4248 32.1886C22.8062 32.3881 22.2476 33.1064 22.5069 33.8048C23.0656 35.2813 24.6219 35.9995 26.1183 35.9995C27.0561 35.9995 28.0338 35.6404 28.6723 34.9221C29.2509 34.2637 29.5901 33.4656 29.7696 32.6076C29.9093 31.9492 29.9692 31.2908 29.9891 30.6124C30.1487 30.6124 30.2884 30.6124 30.448 30.6124C30.9269 30.6124 31.2661 30.3929 31.4656 30.0936C31.6252 29.8941 31.7449 29.6347 31.7449 29.2955C31.8048 27.2005 31.8846 25.0855 31.9245 22.9706C32.3036 22.9905 32.6827 22.9905 33.0618 23.0105C33.0618 24.3872 33.0618 25.744 33.0618 27.1207C33.0618 28.5573 33.2214 30.1535 34.5782 31.0114C35.8552 31.8095 37.7107 31.5102 38.6685 30.353C39.2072 29.7145 39.4466 28.9563 39.4666 28.1383C39.4666 27.7791 39.4865 26.7416 39.5065 26.582C39.5464 26.0233 40.0053 25.8637 40.4043 26.2029C40.4043 26.7815 40.4043 27.3402 40.4043 27.9188C40.4043 29.7345 40.4043 31.5501 40.4043 33.3658C40.105 33.3658 39.8257 33.3658 39.5264 33.3858C37.8504 33.4257 37.8504 36.0395 39.5264 35.9995C44.3948 35.8798 49.2632 35.9397 54.1316 35.9995C55.8076 36.0195 55.8076 33.4057 54.1316 33.3858ZM4.3502 16.5459C4.33025 16.5459 3.81148 16.4062 3.5521 16.3464C3.5521 16.067 3.5521 14.9896 3.57205 14.4708C3.592 13.972 3.61196 13.4732 3.65186 12.9744C3.67181 12.6152 3.79153 11.3183 4.3502 11.3582C4.3502 12.0167 4.33025 12.6552 4.33025 13.3136C4.3502 14.391 4.3502 15.4685 4.3502 16.5459ZM29.3506 18.6209C29.3307 21.7535 29.2509 24.8661 29.1511 27.9986C22.9259 28.0186 16.7207 28.0186 10.4956 27.9188C9.51789 27.8988 8.52026 27.8589 7.54259 27.819C7.52264 27.7193 7.46278 27.3402 7.46278 27.2604C7.1635 24.4471 7.04378 21.6338 6.98392 18.8005C12.9697 21.6138 20.392 23.0903 26.2181 19.2794C27.6148 18.3616 26.3179 16.1069 24.9012 17.0247C19.534 20.5364 12.391 18.7008 6.96397 15.8675C6.96397 15.5283 6.96397 15.1891 6.96397 14.83C6.94402 12.2761 6.98392 9.72214 7.08369 7.14827C7.12359 6.13069 7.18345 5.11312 7.28321 4.11549C7.30316 3.89602 7.38297 3.19768 7.40293 3.13782C11.9521 2.91834 16.5212 2.71882 21.0704 2.63901C23.5245 2.5991 25.9986 2.53925 28.4528 2.73877C28.7521 4.11549 28.8917 5.47226 29.0115 6.88889C29.3307 10.7996 29.3706 14.7302 29.3506 18.6209ZM31.8647 10.9592C32.8822 10.9592 32.962 13.2737 32.962 13.5331C33.0219 14.391 33.0419 15.249 33.0419 16.1069C32.8822 16.1269 31.9844 16.2466 31.9844 16.2665C31.9844 14.4908 31.9445 12.735 31.8647 10.9592ZM39.4865 26.562C39.5065 26.4224 39.4865 26.5221 39.4865 26.562ZM49.9017 33.3459C47.6072 33.3259 45.2927 33.306 42.9981 33.3259C42.9981 32.2086 42.9981 31.0912 42.9981 29.9739C42.9981 28.657 42.9981 27.3402 42.9981 26.0233C42.9981 25.9036 42.9383 23.3896 43.058 22.5117C43.2376 21.2148 44.5145 21.4941 45.6119 21.4741C46.3103 21.4741 47.0086 21.5141 47.7069 21.4741C49.3231 21.4143 49.6822 21.9331 49.7421 22.7112C49.782 23.3696 49.8219 24.0281 49.8418 24.6865C49.8817 26.0632 49.9017 27.4399 49.9017 28.8167C49.9216 30.3131 49.9017 31.8295 49.9017 33.3459Z" fill="#FFF9D0"/>
</svg>
