<svg width="40" height="36" viewBox="0 0 40 36" fill="none" xmlns="http://www.w3.org/2000/svg">
<path d="M37.862 15.4391C37.0923 15.4796 36.3023 15.5202 35.5325 15.5809C34.9248 13.2109 33.1018 11.1043 30.5495 10.6991C30.5495 9.99017 30.4887 9.2812 30.4279 8.59248C31.3192 8.57223 32.2307 8.45069 33.122 8.4912C33.5474 8.57223 34.0943 8.79505 34.4589 9.09889C34.5197 9.15966 34.6007 9.22043 34.6615 9.30146C34.8438 9.80787 35.2692 10.213 35.8769 10.213C36.5251 10.213 37.2948 9.6053 37.1936 8.89633C36.9505 7.03274 34.702 5.89839 32.9802 5.85788C30.6507 5.87813 28.3213 6.14147 25.9918 6.10095C24.2903 6.12121 24.2903 8.75454 25.9918 8.75454C26.5792 8.75454 27.1667 8.73428 27.7541 8.71402C27.8351 9.40274 27.8756 10.1117 27.8756 10.8004C25.2626 11.3473 23.2369 13.5755 23.0951 16.2494C22.4469 16.2696 21.7785 16.3102 21.1303 16.3304C20.9682 12.8868 20.8467 9.44325 20.7859 5.97941C20.7656 4.27788 18.1121 4.27788 18.1323 5.97941C18.1526 7.72146 18.2133 9.46351 18.2741 11.2056C16.8764 8.69377 14.2228 6.83018 11.3262 6.5871C10.7185 2.69788 7.27491 -0.11775 3.36543 0.00378854C2.59569 -0.0164678 1.64364 0.0443017 1.07646 0.631736C-0.807379 3.08276 2.69697 7.5189 5.12774 8.36966C2.6362 10.213 1.5221 13.8389 2.51466 16.8368C0.732105 16.8368 0.792873 19.6119 2.57543 19.4904C4.47953 24.676 6.36337 29.8617 8.26747 35.027C8.47003 35.574 8.93593 36.0196 9.54362 35.9993C16.7954 35.817 24.0472 35.574 31.299 35.1283C31.8864 35.0878 32.4131 34.7434 32.5751 34.156C34.1551 28.8286 35.7351 23.5012 37.1936 18.1332C37.3961 18.113 37.6189 18.113 37.8215 18.0927C39.5433 17.9914 39.5635 15.3379 37.862 15.4391ZM25.9108 15.6012C25.9513 15.4594 25.9918 15.3379 26.0526 15.1961C26.5387 14.0414 27.7338 13.3932 28.929 13.2514C29.2531 13.2109 29.6987 13.2109 29.9823 13.2514C30.5495 13.3527 31.0964 13.5958 31.5623 13.9402C31.8256 14.082 32.7169 15.1353 32.8587 15.7227C30.509 15.8645 28.1592 15.9861 25.8095 16.0873C25.8297 15.9455 25.8702 15.7835 25.9108 15.6012ZM24.2092 18.8219C24.3713 18.8625 24.5333 18.8422 24.6954 18.8017C25.2423 18.7814 25.769 18.7612 26.3159 18.7207C25.6272 23.3999 25.1613 28.1196 24.6954 32.8191C23.8041 32.8596 22.9128 32.9001 22.0215 32.9406C21.7785 28.2817 21.4949 23.6227 21.2721 18.9637C22.2646 18.9232 23.2369 18.8625 24.2092 18.8219ZM16.208 33.1432C15.0736 28.5045 13.9393 23.8658 12.7036 19.2473C14.6685 19.1866 16.6536 19.1258 18.6185 19.0448C18.8413 23.7037 19.1249 28.3627 19.368 33.0419C18.3349 33.0824 17.2613 33.1229 16.208 33.1432ZM6.74824 3.58916C6.64696 3.50814 6.68747 3.54865 6.74824 3.58916V3.58916ZM5.08722 5.27044C5.06697 5.25018 5.04671 5.25019 5.06697 5.25019C4.29722 4.54121 3.7503 3.60942 3.34517 2.63711C4.27697 2.63711 5.1885 2.85994 6.05953 3.18404C6.93055 3.46763 8.28773 5.10839 8.61183 6.4048C7.4167 6.32377 6.20132 5.99967 5.1885 5.33121C5.1885 5.33121 5.1885 5.33121 5.1885 5.35147C5.1885 5.35147 5.02645 5.25018 5.08722 5.27044ZM6.97106 10.2535C11.1641 7.053 17.9298 11.2866 16.4916 16.4722C12.7846 16.5937 9.05747 16.695 5.35055 16.7761C4.35799 14.4871 4.82389 11.8132 6.97106 10.2535ZM5.39107 19.4094C6.93055 19.3891 8.44978 19.3486 9.98926 19.3081C11.387 23.8658 12.3795 28.5855 13.5139 33.2242C12.501 33.2445 11.4882 33.285 10.4754 33.3052C8.77388 28.6868 7.0926 24.0481 5.39107 19.4094ZM30.3266 32.5355C29.3341 32.5963 28.3618 32.6368 27.3692 32.6976C27.8351 27.9778 28.301 23.2176 29.01 18.6194C30.7318 18.5384 32.4536 18.4168 34.1551 18.3155C34.2361 18.3358 34.3374 18.3358 34.4184 18.3561C33.1018 23.0758 31.7041 27.8158 30.3266 32.5355Z" fill="#FFF9D0"/>
<path d="M5.18844 5.35141C5.16818 5.33116 5.10741 5.29064 5.08716 5.27039C5.12767 5.3109 5.14793 5.33116 5.18844 5.35141Z" fill="black"/>
</svg>
