<svg width="37" height="36" viewBox="0 0 37 36" fill="none" xmlns="http://www.w3.org/2000/svg">
<path d="M32.1945 22.5894C31.8855 21.6181 31.5543 20.6467 31.2453 19.6533C31.8192 19.0793 32.1725 18.2405 32.327 17.4678C32.5477 16.4965 32.5698 15.3706 32.1945 14.4434C31.3777 12.4566 28.6403 10.9113 26.5431 11.7501C25.0419 12.3683 23.9161 13.8474 23.6732 15.4589C23.5187 16.4523 23.6291 17.4457 24.1589 18.3067C24.6004 19.0352 25.2848 19.6754 26.0574 20.0286C26.8301 20.3818 27.6469 20.6026 28.5078 20.5805C29.1701 22.6115 29.8103 24.6425 30.4947 26.6735C32.0179 31.2653 27.0067 32.8547 25.1082 33.0534C23.4083 33.23 22.0838 32.5457 21.2007 31.6626C20.5164 30.9783 19.6333 27.7773 19.4567 27.1812C18.8165 25.1944 18.1763 23.2075 17.5582 21.2207C17.5803 21.1986 17.6024 21.1986 17.6244 21.1766C20.8254 18.8144 21.8188 13.9798 22.0175 10.2711C22.1721 7.62195 21.9292 4.66378 20.9579 2.19128C20.0749 -0.104619 17.9335 0.0940632 15.9467 0.469354C14.6883 -0.744821 12.6132 0.469355 13.2534 3.273C13.7391 5.17152 16.4765 4.95076 16.7855 3.20677C17.1608 3.11846 17.5361 3.00808 17.8893 3.03016C18.3971 3.03016 18.3529 3.47168 18.5075 4.0898C19.0152 5.96626 19.1918 7.90894 19.1256 9.85162C19.0152 12.6994 18.3529 16.2757 16.344 18.4833C15.6376 19.256 14.8429 19.256 14.578 19.2118C13.43 19.0131 12.4145 18.4391 11.4432 17.821C8.97067 16.2095 6.741 14.0019 5.08531 11.5735C4.64379 10.9333 4.24642 10.2711 3.89321 9.58671C3.76075 9.3218 3.65037 9.05688 3.53999 8.81405C3.45169 8.59329 3.45169 8.37253 3.40754 8.46084C3.49584 8.19592 4.06982 7.82063 4.46718 7.59987C4.66586 7.48949 4.88662 7.37912 5.10738 7.29081C6.6527 8.10762 9.10312 7.1142 8.3967 4.84038C7.64611 2.12505 4.40095 2.43411 3.98151 4.6417C2.9881 5.06114 1.99468 5.63512 1.31033 6.45193C0.00784671 8.01931 0.6922 9.69709 1.53108 11.2866C3.31923 14.6421 6.1891 17.6003 9.27973 19.8079C10.825 20.9116 12.834 22.0375 14.7766 22.0817C15.3727 23.9581 15.9687 25.8125 16.5648 27.689C17.3374 30.1173 17.8673 32.8768 20.0086 34.5325C24.8212 38.2412 34.2476 34.5104 33.7178 27.9318C33.5632 26.0995 32.7685 24.3113 32.1945 22.5894ZM27.0729 14.907C27.7131 14.1123 28.6624 14.5317 29.0156 14.8187C30.0532 15.6576 29.6337 17.3574 29.1039 17.6444C28.1326 18.1522 27.2495 17.4678 27.0508 17.2912C26.3003 16.6068 26.4548 15.6797 27.0729 14.907Z" fill="#FFF9D0"/>
<path d="M36.3891 12.4345C35.8592 9.47631 33.453 6.95965 30.561 6.187C29.8325 5.98831 28.9495 6.42983 28.7729 7.20249C28.5963 7.95307 28.9936 8.83611 29.7884 8.99064C31.8856 9.388 33.2543 11.1762 33.6075 13.2071C33.6737 13.5383 33.9828 13.9136 34.2698 14.0681C34.5788 14.2447 35.0424 14.333 35.3736 14.2226C36.1683 13.9356 36.5215 13.2292 36.3891 12.4345Z" fill="#FFF9D0"/>
<path d="M11.5315 27.3137C11.4874 26.9605 11.3991 26.5852 11.1121 26.2982C10.8693 26.0554 10.4498 25.8567 10.0966 25.8788C9.72132 25.9008 9.34603 26.0112 9.08112 26.2982C8.83828 26.5631 8.61752 26.9605 8.66167 27.3137C8.79413 28.3071 8.99281 29.2784 9.3681 30.2056C9.74339 31.1328 10.1849 32.0159 10.781 32.8106C11.0017 33.1197 11.2666 33.3625 11.6419 33.4729C11.9951 33.5612 12.4587 33.517 12.7457 33.3183C13.3418 32.921 13.7391 31.9938 13.2535 31.3315C12.834 30.7796 11.7744 29.0135 11.5315 27.3137Z" fill="#FFF9D0"/>
</svg>
