<svg width="34" height="29" viewBox="0 0 34 29" fill="none" xmlns="http://www.w3.org/2000/svg">
<path d="M32.7406 11.9707C32.5337 11.779 32.3009 11.5995 32.0529 11.4458C32.1031 10.997 32.0696 10.5374 31.9722 10.0871C31.7988 9.29281 31.3727 8.4803 30.755 7.94167C30.3807 7.61454 29.9668 7.36805 29.4906 7.21894C29.4449 7.20524 29.3993 7.19307 29.3536 7.18242C28.888 5.32004 27.8214 3.62807 26.3014 2.44279C24.541 1.07035 22.4382 0.361303 20.238 0.101118C18.0972 -0.152981 15.8636 0.0782948 13.8095 0.721911C11.7645 1.36248 9.79561 2.43061 8.30906 3.99325C7.69283 4.64143 7.18615 5.3596 6.76924 6.13863C5.44397 6.03213 4.02589 6.51142 3.36249 7.73931C3.13274 8.1623 3.0034 8.62789 2.94559 9.10262C2.68692 9.1863 2.43434 9.29433 2.18633 9.43279C1.73139 9.68841 1.29927 10.0353 0.969089 10.4416C0.199184 11.388 -0.169031 12.5352 0.0744171 13.751C0.218965 14.4737 0.629783 15.1234 1.11972 15.6605C1.4712 16.0455 2.17416 16.0439 2.52716 15.6605C2.90602 15.2482 2.90298 14.6654 2.52716 14.2531C2.49673 14.2211 2.41304 14.0887 2.37044 14.069C2.36131 14.0553 2.35066 14.0416 2.34153 14.0279C2.25784 13.9046 2.18177 13.7753 2.11634 13.6414C2.1133 13.6353 2.11025 13.6292 2.10721 13.6247C2.08591 13.5638 2.06461 13.5029 2.04635 13.4406C2.02809 13.3767 2.01135 13.3112 1.99766 13.2458C1.99614 13.2367 1.99462 13.226 1.99309 13.2154C1.99309 13.2306 1.99309 13.2473 1.99309 13.2671C1.99309 13.2428 1.99005 13.2184 1.99005 13.1941C1.98701 13.1591 1.98549 13.1241 1.98549 13.1043C1.98092 13.0297 1.97636 12.9567 1.9794 12.8822C1.9794 12.8593 1.98244 12.8365 1.98396 12.8137C1.98396 12.8 1.98549 12.7848 1.98701 12.7696C1.99005 12.7437 1.99157 12.7178 1.99309 12.692C1.99309 12.7087 1.99309 12.7224 1.99309 12.7361C1.99309 12.7315 1.99309 12.727 1.99614 12.7224C2.02048 12.5991 2.05396 12.4774 2.09656 12.3587C2.0996 12.3496 2.10417 12.3374 2.11025 12.3253C2.10265 12.3405 2.09352 12.3572 2.08287 12.3755C2.11178 12.3192 2.13612 12.2598 2.16503 12.2051C2.22285 12.0925 2.28828 11.9829 2.35979 11.8779C2.37044 11.8627 2.38565 11.8429 2.40239 11.8232C2.38718 11.8399 2.36892 11.8597 2.34762 11.8855C2.39022 11.8384 2.42826 11.7851 2.47086 11.7379C2.55607 11.6421 2.64736 11.5493 2.74322 11.4625C2.7843 11.426 2.8269 11.391 2.86799 11.356C2.87255 11.353 2.87712 11.3499 2.8832 11.3454C2.98971 11.2708 3.09926 11.2008 3.21338 11.1385C3.26968 11.1065 3.32749 11.0776 3.38684 11.0487C3.3914 11.0456 3.39749 11.0441 3.40205 11.0411C3.39292 11.0441 3.38227 11.0472 3.37162 11.0502C3.38836 11.0456 3.40509 11.0396 3.42031 11.0335C3.44313 11.0243 3.469 11.0167 3.4903 11.0091C3.57246 10.9802 3.65615 10.9498 3.74136 10.927C3.80374 10.9102 3.86765 10.895 3.93155 10.8813C4.00915 10.8646 4.26021 10.8296 3.90721 10.8767C4.17043 10.8418 4.41997 10.7931 4.61016 10.5846C4.78514 10.3929 4.90991 10.1479 4.9023 9.88165C4.89774 9.74319 4.89774 9.60321 4.90534 9.46475C4.90839 9.40541 4.91295 9.34606 4.91904 9.2852C4.91904 9.27912 4.92056 9.27455 4.92208 9.26847C4.94186 9.16043 4.96773 9.05241 4.99968 8.9459C5.01185 8.90482 5.02707 8.86373 5.04076 8.82265C5.0788 8.74962 5.11532 8.6781 5.15944 8.60811C5.16097 8.60507 5.16857 8.59138 5.17922 8.57464C5.18531 8.56703 5.1914 8.55942 5.19748 8.55334C5.24769 8.49704 5.30399 8.44531 5.35877 8.39357C5.36942 8.38597 5.38159 8.37684 5.39224 8.36923C5.45615 8.32815 5.52157 8.29011 5.59004 8.25511C5.60069 8.25055 5.60982 8.24598 5.62047 8.2399C5.71025 8.20794 5.80306 8.18056 5.8974 8.15773C5.79393 8.46661 5.70264 8.77853 5.63417 9.09653C5.50027 9.7158 5.43789 10.3503 5.38311 10.9802C5.36485 11.1948 5.34355 11.4093 5.32225 11.6238C5.25378 11.6619 5.18835 11.7014 5.12445 11.7471C4.16283 12.4318 3.94829 13.5699 3.88286 14.6821C3.82048 15.7518 4.0198 16.9934 4.90382 17.7085C5.1001 17.8683 5.30247 17.9961 5.51549 18.0919C5.50636 18.2015 5.50788 18.3141 5.52766 18.4297C5.99478 21.1305 6.8225 23.9058 8.77009 25.9264C9.45326 26.6355 10.2764 27.2426 11.1741 27.6549C12.0627 28.0627 12.9665 28.3046 13.9358 28.4172C15.2778 28.5739 16.6745 28.4172 17.9953 28.1692C19.8029 27.8284 21.5907 27.1756 23.1457 26.1836C24.9974 25.0028 26.5296 23.3306 27.4471 21.3268C27.5415 21.1198 27.6297 20.9099 27.7164 20.6999C28.0999 20.3712 28.4255 19.9665 28.6826 19.5572C28.8743 19.2529 29.0463 18.906 29.1908 18.5378C29.4358 18.5591 29.6823 18.5682 29.9242 18.5591C30.7535 18.5317 31.6436 18.3552 32.3404 17.8804C32.7847 17.5777 33.1727 17.1912 33.4284 16.7134C33.7342 16.1428 33.8696 15.5114 33.8985 14.8693C33.9457 13.7905 33.5379 12.7026 32.7421 11.9631L32.7406 11.9707ZM31.1689 13.2443C31.1247 13.2123 31.1369 13.2215 31.1689 13.2443V13.2443ZM29.0478 9.17109C28.8728 9.11479 28.9626 9.13761 29.0478 9.17109V9.17109ZM26.2238 5.1481C26.1949 5.11159 26.1675 5.07659 26.1721 5.08116C26.1903 5.10094 26.2071 5.12528 26.2238 5.1481ZM5.18683 8.56399C5.20813 8.52899 5.23552 8.48943 5.24161 8.49095C5.24617 8.49095 5.21726 8.52747 5.18683 8.56399ZM9.51717 13.3188C9.53999 13.328 9.55064 13.3325 9.51717 13.3188V13.3188ZM9.46391 13.296C9.45326 13.2914 9.44261 13.2869 9.42892 13.2808C9.42892 13.2762 9.44413 13.2823 9.46391 13.296ZM9.05005 13.2488C9.07288 13.2488 9.09418 13.2488 9.117 13.2488C9.15352 13.2519 9.19003 13.2519 9.22655 13.2488C9.24633 13.2488 9.26459 13.2488 9.28437 13.2488C9.33154 13.2595 9.37718 13.2732 9.42283 13.2854C9.435 13.293 9.44718 13.3006 9.46087 13.3067C9.45174 13.3006 9.44413 13.293 9.43957 13.2899C9.45022 13.293 9.46087 13.296 9.47152 13.2991H9.47609C9.48826 13.3067 9.50043 13.3158 9.51412 13.328C9.52021 13.3341 9.5263 13.3401 9.53391 13.3462C9.53999 13.3508 9.5476 13.3538 9.55369 13.3569C9.56738 13.3645 9.57955 13.3751 9.59172 13.3843L9.59477 13.3888C9.57803 13.3797 9.56281 13.3706 9.55064 13.3614C9.57955 13.3904 9.60846 13.4193 9.63737 13.4497C9.64346 13.4588 9.64954 13.4664 9.65411 13.4756C9.69215 13.5364 9.7241 13.5988 9.75757 13.6627C9.76822 13.6947 9.7804 13.7251 9.78953 13.757C9.823 13.862 9.84887 13.9701 9.87017 14.0796C9.88082 14.1344 9.8869 14.1922 9.89908 14.247C9.89147 14.2135 9.8869 14.1861 9.88234 14.1633C9.8869 14.1907 9.89147 14.2196 9.89299 14.2409C9.90516 14.3854 9.90973 14.5315 9.90821 14.6761C9.90821 14.8252 9.90212 14.9758 9.89147 15.1249C9.8869 15.1949 9.88082 15.2634 9.87321 15.3334C9.87321 15.3364 9.87321 15.341 9.87321 15.344C9.83365 15.554 9.78648 15.7564 9.71801 15.9587C9.70584 15.9846 9.69215 16.012 9.67845 16.0379C9.66171 16.0668 9.64498 16.0957 9.62824 16.1246C9.62672 16.1276 9.62215 16.1322 9.61911 16.1368C9.59477 16.1657 9.56586 16.1961 9.55064 16.2113C9.5263 16.225 9.50347 16.2387 9.47913 16.2524C9.44565 16.263 9.41066 16.2706 9.37718 16.2783C9.23568 16.2843 9.0957 16.2859 8.95419 16.2859H6.79663C6.63687 16.2859 6.47406 16.2767 6.31278 16.2798C6.29452 16.2706 6.27626 16.2615 6.25952 16.2509C6.25192 16.2463 6.24431 16.2417 6.2367 16.2357C6.20931 16.2113 6.18193 16.187 6.15606 16.1611C6.14237 16.1474 6.13019 16.1322 6.1165 16.1185C6.08302 16.0668 6.04955 16.015 6.02064 15.9618C6.01912 15.9572 6.00999 15.9435 6.00086 15.9268C5.99478 15.9116 5.98869 15.8948 5.9826 15.8796C5.94913 15.7822 5.92174 15.6818 5.90044 15.5814C5.89587 15.557 5.89131 15.5327 5.88675 15.5084C5.88218 15.4734 5.87609 15.4292 5.87457 15.4186C5.85175 15.1386 5.86392 14.8556 5.8837 14.5756C5.89131 14.4615 5.90348 14.3489 5.91413 14.2348C5.92326 14.1785 5.93239 14.1237 5.94304 14.069C5.9613 13.9746 5.98412 13.8818 6.00999 13.7905C6.02216 13.7479 6.03586 13.7053 6.04955 13.6642C6.04955 13.6642 6.05107 13.6597 6.05259 13.6566C6.0739 13.6125 6.10433 13.5501 6.11802 13.5273C6.12563 13.5136 6.13476 13.4999 6.14389 13.4862C6.16823 13.4619 6.19258 13.4375 6.21844 13.4132C6.23975 13.3995 6.26105 13.3858 6.28387 13.3736C6.29148 13.3691 6.30061 13.366 6.30821 13.3614C6.37668 13.3401 6.44668 13.3173 6.51667 13.3021C6.55775 13.293 6.59883 13.2838 6.63991 13.2762C6.64752 13.2762 6.65665 13.2732 6.6673 13.2717C6.67187 13.2717 6.67795 13.2717 6.681 13.2717C6.73577 13.2671 6.79055 13.2625 6.84684 13.2595C6.99291 13.2504 7.13898 13.2488 7.28505 13.2488C7.87541 13.2488 8.46578 13.2488 9.05614 13.2488H9.05005ZM5.95065 15.8309C5.95065 15.8309 5.97195 15.8705 5.98869 15.9161C5.96891 15.8811 5.94609 15.837 5.95065 15.8309ZM6.36147 16.3072C6.35386 16.3041 6.34625 16.3026 6.33865 16.2996C6.32952 16.295 6.32191 16.2904 6.31278 16.2859C6.48167 16.2935 6.47711 16.3422 6.36147 16.3072ZM5.90196 14.2789C5.8974 14.3109 5.89435 14.3383 5.89435 14.3383C5.89283 14.3231 5.8974 14.3002 5.90196 14.2789ZM24.9031 21.8091C24.8362 21.908 24.7677 22.0069 24.6977 22.1043C24.6612 22.156 24.6231 22.2062 24.5851 22.258L24.5821 22.2625C24.2701 22.6505 23.9354 23.0203 23.5733 23.3611C23.3998 23.5239 23.2203 23.6821 23.0362 23.8328C22.9616 23.8951 22.6253 24.1447 22.9266 23.9241C22.8323 23.9925 22.7395 24.064 22.6451 24.1325C22.2663 24.4033 21.8706 24.6514 21.4629 24.875C21.2666 24.9831 21.0657 25.085 20.8649 25.1824C20.7706 25.228 20.6762 25.2721 20.5819 25.3148C20.5317 25.3376 20.4815 25.3604 20.4313 25.3817H20.4282C19.6553 25.6967 18.8595 25.9508 18.0439 26.1364C17.6636 26.2231 17.2801 26.2946 16.8937 26.354C16.8678 26.3585 16.8404 26.3616 16.813 26.3661C16.7385 26.3753 16.6624 26.3859 16.5878 26.3935C16.4174 26.4133 16.2485 26.43 16.0781 26.4437C15.5045 26.4894 14.9248 26.5061 14.3496 26.4696C14.2355 26.462 14.1199 26.4529 14.0057 26.4407C13.9829 26.4377 13.9601 26.4361 13.9373 26.4331C13.8521 26.4194 13.7684 26.4072 13.6847 26.3905C13.2967 26.319 12.9148 26.217 12.542 26.0847C12.4598 26.0557 12.3777 26.0238 12.2955 25.9918C12.2514 25.9721 12.2058 25.9538 12.1631 25.934C11.973 25.8458 11.7873 25.7499 11.6047 25.6449C11.4176 25.5369 11.2335 25.4213 11.057 25.2965C11.0113 25.2645 10.9672 25.2326 10.9216 25.1991C10.917 25.1961 10.9124 25.1915 10.9063 25.1869C10.8805 25.1656 10.8516 25.1428 10.8394 25.1337C10.7892 25.0926 10.7405 25.0515 10.6918 25.0089C10.3251 24.694 9.99037 24.3425 9.6891 23.9651C9.68758 23.9621 9.68454 23.959 9.68454 23.959C9.64954 23.9119 9.61455 23.8662 9.58107 23.8191C9.49891 23.7034 9.41827 23.5863 9.34067 23.4676C9.18851 23.2333 9.04549 22.9913 8.91463 22.7449C8.77465 22.4816 8.64532 22.2123 8.52512 21.9384C8.52207 21.9293 8.51751 21.9171 8.51142 21.9034C8.48099 21.8289 8.45208 21.7558 8.42317 21.6813C8.36079 21.5185 8.30145 21.3542 8.24515 21.1883C8.00931 20.4884 7.82824 19.7702 7.67153 19.049C7.61523 18.7919 7.56502 18.5332 7.51633 18.2745H8.67271C9.26611 18.2745 9.82756 18.2745 10.3799 18.0204C11.27 17.6111 11.6413 16.6693 11.798 15.7594H14.3724C14.4759 16.5065 14.7589 17.2277 15.3554 17.71C15.7905 18.0615 16.2455 18.2745 16.8069 18.2745H19.1242C19.7177 18.2745 20.2791 18.2745 20.8314 18.0204C21.8159 17.5685 22.1674 16.4624 22.2936 15.4718C22.4458 14.2942 22.3165 12.9826 21.507 12.0575C21.0734 11.5614 20.4084 11.2769 19.7542 11.2541C19.7283 11.2541 19.7024 11.2526 19.6766 11.2541H17.8964C17.1158 11.2541 16.2363 11.2784 15.5745 11.7486C14.8776 12.2446 14.5733 12.9795 14.4348 13.7692H11.8254C11.7189 13.1423 11.483 12.5459 11.0555 12.0575C10.6218 11.5614 9.9569 11.2769 9.30263 11.2541C9.27676 11.2541 9.2509 11.2526 9.22503 11.2541C8.63162 11.2541 8.03822 11.2541 7.44481 11.2541C7.41286 11.2541 7.37939 11.2541 7.34743 11.2541C7.37939 10.8996 7.4083 10.5435 7.4509 10.1905C7.46003 10.1297 7.46916 10.0688 7.47981 10.0064C7.50416 9.86491 7.53154 9.72341 7.56197 9.58343C7.63349 9.26542 7.72326 8.95046 7.82977 8.64159C7.89215 8.46052 7.9591 8.28098 8.03061 8.10296C8.04278 8.07253 8.05648 8.04057 8.06865 8.01014C8.11734 7.90059 8.16603 7.78952 8.21624 7.67997C8.34557 7.39848 8.48099 7.11851 8.63467 6.8492C8.75031 6.64531 8.87507 6.44751 9.00745 6.25579C9.06983 6.1645 9.13526 6.07473 9.20221 5.98648C9.23416 5.94692 9.26459 5.90736 9.29654 5.86932C9.59781 5.50415 9.92647 5.16484 10.2795 4.84988C10.3677 4.77076 10.459 4.69316 10.5503 4.61556C10.602 4.57296 10.777 4.43906 10.7937 4.42537C10.9429 4.31429 11.0935 4.20626 11.2487 4.1028C11.6565 3.83044 12.0825 3.58395 12.5207 3.36332C12.7429 3.25225 12.9665 3.14726 13.1948 3.04836C13.2374 3.03011 13.2815 3.01337 13.3241 2.99511C13.4473 2.94642 13.5706 2.89925 13.6938 2.8536C14.6494 2.50365 15.6429 2.25716 16.6502 2.10957C16.6593 2.10957 16.6685 2.10652 16.6761 2.10652C16.7126 2.10196 16.7476 2.09739 16.7841 2.09283C16.918 2.07761 17.0504 2.0624 17.1843 2.05023C17.4384 2.0274 17.694 2.00914 17.9481 1.99849C18.4548 1.97719 18.963 1.98176 19.4696 2.01371C19.7207 2.02892 19.9702 2.05175 20.2213 2.08066C20.2578 2.08522 20.2943 2.08979 20.3308 2.09435C20.4663 2.11413 20.6002 2.13543 20.734 2.15978C21.2179 2.24498 21.6972 2.3591 22.1658 2.5006C22.391 2.56907 22.6147 2.64515 22.8353 2.72732C22.9357 2.76535 23.0331 2.80339 23.132 2.84448C23.1853 2.86882 23.2385 2.89164 23.2918 2.91599C23.7193 3.11227 24.1332 3.33746 24.5273 3.5946C24.6201 3.65546 24.7114 3.71785 24.8012 3.78023C24.8483 3.8137 24.8955 3.84718 24.9427 3.88217C24.9487 3.88674 24.9564 3.8913 24.9624 3.89739C25.1298 4.03129 25.2926 4.16823 25.4509 4.31277C25.6198 4.46949 25.7841 4.63534 25.9378 4.80576C26.0123 4.88792 26.0838 4.97008 26.1538 5.05529C26.1842 5.09181 26.2132 5.12832 26.2436 5.16484L26.2466 5.16941C26.5251 5.54523 26.7685 5.94692 26.9739 6.36839C27.0135 6.45055 27.05 6.53272 27.0865 6.6164C26.9861 6.39882 27.1413 6.7503 27.1748 6.84007C27.225 6.97701 27.2706 7.11547 27.3132 7.25545C26.6833 7.45021 26.099 7.82451 25.6867 8.33119C25.5315 8.52139 25.3854 8.72679 25.2591 8.94285C24.3949 8.96263 23.517 9.25325 22.9616 9.92121C22.2982 10.7155 22.0608 11.8247 22.3347 12.8259C22.5538 13.6292 23.0879 14.282 23.7345 14.7826C24.1393 15.0945 24.5699 15.3425 25.0461 15.5251C25.2013 15.5844 25.3702 15.5844 25.533 15.5418C25.6289 15.5205 25.7247 15.4825 25.813 15.4247C25.8617 15.3927 25.9134 15.3653 25.9667 15.3379C26.0047 15.3182 26.0427 15.2999 26.0808 15.2832C26.1051 15.274 26.1279 15.2649 26.1523 15.2573C26.2436 15.2253 26.3349 15.1995 26.4292 15.1767C26.4657 15.1675 26.5038 15.1599 26.5418 15.1523C26.6392 15.1477 26.7335 15.1417 26.8309 15.1477C26.8492 15.1477 26.8674 15.1508 26.8872 15.1523C26.9176 15.1614 26.9465 15.1721 26.9618 15.1767C26.9968 15.1858 27.0318 15.198 27.0667 15.2101C27.0774 15.2147 27.088 15.2208 27.0987 15.2253C27.1504 15.2527 27.2052 15.3014 27.26 15.3288C27.2752 15.3425 27.2904 15.3547 27.3056 15.3684C27.33 15.3912 27.3528 15.4171 27.3756 15.4399C27.3939 15.4779 27.435 15.5327 27.4669 15.5753C27.4532 15.5388 27.4958 15.5951 27.5202 15.662C27.5202 15.6651 27.5217 15.6696 27.5232 15.6727C27.5323 15.694 27.543 15.7168 27.5552 15.7366C27.5445 15.7183 27.5369 15.7062 27.5293 15.6909C27.5552 15.767 27.578 15.8446 27.5962 15.9237C27.6054 15.9648 27.6145 16.0059 27.6221 16.047C27.6236 16.0637 27.6252 16.0805 27.6267 16.0911C27.6312 16.1428 27.6343 16.1961 27.6358 16.2478C27.6419 16.4411 27.6297 16.6328 27.6115 16.8245C27.6054 16.8595 27.5993 16.8945 27.5932 16.9295C27.5719 17.0421 27.5476 17.1547 27.5186 17.2657C27.4669 17.4696 27.4015 17.6705 27.3269 17.8668C27.3254 17.8713 27.3224 17.882 27.3193 17.8911C27.3102 17.9109 27.3011 17.9307 27.2919 17.9504C27.2463 18.0493 27.1991 18.1452 27.1489 18.2411C27.05 18.4282 26.9389 18.6093 26.8157 18.7812C26.8126 18.7858 26.8066 18.7934 26.8005 18.801C26.7883 18.8162 26.7777 18.8299 26.77 18.8375C26.7016 18.9181 26.6301 18.9957 26.5555 19.0703C26.4977 19.1281 26.4368 19.1814 26.376 19.2346C26.3531 19.2514 26.3303 19.2681 26.306 19.2833C26.2466 19.3214 26.1858 19.3564 26.1234 19.3883C26.0899 19.402 26.0519 19.4203 26.0382 19.4233C26.0001 19.4355 25.9621 19.4446 25.9241 19.4537C25.8693 19.4568 25.7871 19.4629 25.7582 19.4629C25.7278 19.4629 25.6958 19.4629 25.6624 19.4629C25.6198 19.4522 25.5771 19.4461 25.5345 19.4355C25.4661 19.4187 25.3991 19.399 25.3322 19.3761C25.3002 19.3655 25.2683 19.3518 25.2348 19.3411C25.2287 19.3396 25.2257 19.3381 25.2211 19.3366C25.1907 19.3198 25.1618 19.3016 25.1359 19.2894C25.0309 19.2346 24.929 19.1738 24.8301 19.1068C24.792 19.081 24.7555 19.0551 24.719 19.0292C24.6597 18.979 24.5988 18.9288 24.544 18.874C24.1788 18.5028 23.4987 18.4799 23.1366 18.874C22.7699 19.2742 22.7455 19.8843 23.1366 20.2815C23.6843 20.8368 24.4071 21.2339 25.1724 21.3785C25.0857 21.523 24.9959 21.6661 24.9031 21.8045V21.8091ZM16.3626 14.2379C16.3718 14.1816 16.3809 14.1268 16.3915 14.072C16.4098 13.9777 16.4326 13.8849 16.4585 13.7936C16.4707 13.751 16.4844 13.7084 16.498 13.6673C16.498 13.6673 16.4996 13.6627 16.5011 13.6597C16.5224 13.6155 16.5528 13.5532 16.5665 13.5303C16.5741 13.5166 16.5833 13.5029 16.5924 13.4893C16.6167 13.4649 16.6411 13.4406 16.6669 13.4162C16.6882 13.4025 16.7095 13.3888 16.7324 13.3767C16.74 13.3721 16.7491 13.369 16.7567 13.3645C16.8252 13.3432 16.8952 13.3204 16.9652 13.3051C17.0062 13.296 17.0473 13.2869 17.0884 13.2793C17.096 13.2793 17.1051 13.2762 17.1158 13.2747C17.1204 13.2747 17.1264 13.2747 17.1295 13.2747C17.1843 13.2701 17.239 13.2656 17.2953 13.2625C17.4414 13.2534 17.5875 13.2519 17.7335 13.2519C18.3239 13.2519 18.9143 13.2519 19.5046 13.2519C19.5275 13.2519 19.5488 13.2519 19.5716 13.2519C19.6081 13.2549 19.6446 13.2549 19.6811 13.2519C19.7009 13.2519 19.7192 13.2519 19.739 13.2519C19.7846 13.2625 19.8318 13.2747 19.8774 13.2884C19.8896 13.296 19.9018 13.3036 19.9155 13.3097C19.9063 13.3036 19.8987 13.296 19.8941 13.293C19.9048 13.296 19.9155 13.2991 19.9261 13.3021H19.9307C19.9428 13.3097 19.955 13.3188 19.9687 13.331C19.9748 13.3371 19.9809 13.3432 19.9885 13.3493C19.9946 13.3538 20.0022 13.3569 20.0083 13.3599C20.022 13.3675 20.0341 13.3782 20.0463 13.3873L20.0494 13.3919C20.0326 13.3827 20.0174 13.3736 20.0052 13.3645C20.0341 13.3934 20.063 13.4223 20.092 13.4527C20.098 13.4619 20.1041 13.4695 20.1087 13.4786C20.1467 13.5395 20.1787 13.6018 20.2122 13.6658C20.2228 13.6977 20.235 13.7281 20.2441 13.7601C20.2776 13.8651 20.3034 13.9731 20.3248 14.0827C20.3354 14.1374 20.3415 14.1953 20.3537 14.25C20.3461 14.2166 20.3415 14.1892 20.3369 14.1663C20.3415 14.1937 20.3461 14.2226 20.3476 14.2439C20.3597 14.3885 20.3643 14.5346 20.3628 14.6791C20.3628 14.8282 20.3567 14.9789 20.3461 15.128C20.3415 15.198 20.3354 15.2664 20.3278 15.3364C20.3278 15.3395 20.3278 15.344 20.3278 15.3471C20.2882 15.557 20.2411 15.7594 20.1726 15.9618C20.1604 15.9876 20.1467 16.015 20.133 16.0409C20.1163 16.0698 20.0996 16.0987 20.0828 16.1276C20.0813 16.1307 20.0767 16.1352 20.0737 16.1398C20.0494 16.1687 20.0204 16.1991 20.0052 16.2143C19.9809 16.228 19.9581 16.2417 19.9337 16.2554C19.9002 16.2661 19.8652 16.2737 19.8318 16.2813C19.6903 16.2874 19.5503 16.2889 19.4088 16.2889H17.2512C17.0915 16.2889 16.9286 16.2798 16.7674 16.2828C16.7491 16.2737 16.7308 16.2646 16.7141 16.2539C16.7065 16.2493 16.6989 16.2448 16.6913 16.2387C16.6639 16.2143 16.6365 16.19 16.6106 16.1641C16.5969 16.1504 16.5848 16.1352 16.5711 16.1215C16.5376 16.0698 16.5041 16.0181 16.4752 15.9648C16.4737 15.9603 16.4646 15.9466 16.4554 15.9298C16.4494 15.9146 16.4433 15.8979 16.4372 15.8827C16.4037 15.7853 16.3763 15.6848 16.355 15.5844C16.3505 15.5601 16.3459 15.5357 16.3413 15.5114C16.3368 15.4764 16.3307 15.4323 16.3292 15.4216C16.3063 15.1417 16.3185 14.8586 16.3383 14.5787C16.3459 14.4646 16.3581 14.352 16.3687 14.2379H16.3626ZM16.3474 14.3383C16.3459 14.3231 16.3505 14.3002 16.355 14.2789C16.3505 14.3109 16.3474 14.3383 16.3474 14.3383ZM19.9702 13.3173C19.9931 13.3264 20.0037 13.331 19.9702 13.3173V13.3173ZM19.917 13.2945C19.9063 13.2899 19.8957 13.2854 19.882 13.2793C19.882 13.2747 19.8972 13.2808 19.917 13.2945ZM16.813 16.3072C16.8054 16.3041 16.7978 16.3026 16.7902 16.2996C16.7811 16.295 16.7734 16.2904 16.7643 16.2859C16.9332 16.2935 16.9286 16.3422 16.813 16.3072ZM16.4402 15.9161C16.4204 15.8811 16.3976 15.837 16.4022 15.8309C16.4068 15.8248 16.4235 15.872 16.4402 15.9161ZM26.7731 15.1401C26.7868 15.131 26.8263 15.1401 26.8674 15.1508C26.8203 15.1462 26.77 15.1417 26.7731 15.1401ZM25.533 19.4537C25.533 19.4537 25.533 19.4537 25.5406 19.4537C25.5376 19.4537 25.5361 19.4537 25.533 19.4537ZM25.2683 19.3685C25.2835 19.3746 25.2987 19.3807 25.3094 19.3837C25.2957 19.3792 25.282 19.3746 25.2683 19.3685ZM27.2645 18.0143C27.2645 18.0143 27.2904 17.952 27.3117 17.9048C27.2995 17.9459 27.2828 18.0052 27.2645 18.0143ZM31.9068 14.851C31.9053 14.9119 31.9007 14.9728 31.8962 15.0336C31.8931 15.0701 31.8885 15.1051 31.8855 15.1417C31.8703 15.2908 31.9053 15.0534 31.8992 15.0428C31.9311 15.0914 31.8429 15.3349 31.8277 15.3927C31.8155 15.4399 31.8003 15.4855 31.7836 15.5312C31.8003 15.4916 31.7729 15.5905 31.744 15.6468C31.7379 15.6635 31.7318 15.6803 31.7273 15.697C31.7333 15.6803 31.7379 15.6651 31.7425 15.6514C31.7227 15.6909 31.7029 15.729 31.6816 15.767C31.6664 15.7944 31.6466 15.8218 31.6284 15.8477C31.6268 15.8583 31.601 15.9055 31.5675 15.9435L31.5614 15.9496C31.5492 15.9679 31.5371 15.9846 31.5264 16.0029C31.5355 15.9876 31.5432 15.9739 31.5508 15.9618C31.5279 15.9861 31.5051 16.012 31.4823 16.0348C31.4671 16.0515 31.4488 16.0652 31.4321 16.0805C31.4351 16.0835 31.394 16.1276 31.3499 16.1581C31.3438 16.1626 31.3393 16.1657 31.3332 16.1687C31.318 16.1824 31.3012 16.1961 31.2875 16.2098C31.3012 16.1961 31.3104 16.187 31.3225 16.1763C31.2982 16.193 31.2754 16.2083 31.2495 16.2235C31.178 16.2676 31.1034 16.3102 31.0273 16.3467C31.0076 16.3559 30.9756 16.3665 30.9467 16.3802C30.8874 16.4015 30.828 16.4228 30.7672 16.4411C30.6165 16.4852 30.4629 16.5202 30.3077 16.546C30.335 16.543 30.3639 16.54 30.4005 16.5369C30.3639 16.54 30.329 16.546 30.2924 16.5491H30.2894C30.2179 16.5613 30.0901 16.5704 30.2316 16.5537C30.1768 16.5582 30.122 16.5643 30.0672 16.5674C29.9181 16.5765 29.7675 16.578 29.6169 16.575C29.6686 15.3364 29.27 14.1466 28.0999 13.5106C27.2524 13.0495 26.1842 13.0693 25.2957 13.4527C25.2211 13.4086 25.1465 13.363 25.075 13.3158C25.0294 13.2854 24.9837 13.2519 24.9381 13.2199C24.8362 13.1347 24.7357 13.0465 24.6429 12.9506C24.5942 12.9004 24.5486 12.8472 24.5014 12.7954C24.4238 12.6844 24.3584 12.5672 24.2975 12.447C24.2899 12.4242 24.2823 12.4029 24.2747 12.38C24.258 12.3253 24.2443 12.269 24.2306 12.2127C24.2473 12.3116 24.2214 12.2172 24.2169 12.1488C24.2108 12.1183 24.2062 12.0864 24.2001 12.056C24.2062 12.0879 24.2123 12.1138 24.2169 12.1366C24.2123 12.0636 24.2123 11.9905 24.2154 11.9175C24.2123 11.9144 24.2108 11.8521 24.2199 11.8034C24.2199 11.8034 24.2199 11.8003 24.2199 11.7973C24.2214 11.776 24.2245 11.7547 24.2245 11.7334C24.2245 11.7516 24.2245 11.7669 24.2245 11.7821C24.2382 11.709 24.2549 11.6375 24.2762 11.566C24.2854 11.5341 24.296 11.5036 24.3067 11.4717C24.299 11.4854 24.293 11.496 24.2838 11.5128C24.293 11.4975 24.3006 11.4808 24.3097 11.4656C24.3127 11.4565 24.3158 11.4458 24.3188 11.4367C24.328 11.4108 24.3416 11.3849 24.3523 11.3667C24.3401 11.3773 24.3675 11.3241 24.4025 11.2876C24.4071 11.283 24.4132 11.2769 24.4177 11.2724C24.4329 11.2495 24.4497 11.2267 24.4649 11.2039C24.4497 11.2267 24.4375 11.2465 24.4269 11.2647C24.4421 11.2495 24.4573 11.2343 24.471 11.2191C24.439 11.2404 24.4664 11.1963 24.5181 11.1643C24.5242 11.1598 24.5303 11.1567 24.5364 11.1537C24.5608 11.1324 24.5866 11.1141 24.6079 11.0913C24.5897 11.1095 24.576 11.1232 24.5623 11.1385C24.6049 11.1111 24.646 11.0852 24.6916 11.0609C24.7023 11.0548 24.7129 11.0502 24.7236 11.0456C24.754 11.035 24.7844 11.0228 24.8164 11.0137C24.9138 10.9848 25.0111 10.9635 25.11 10.9452C25.1161 10.9452 25.1222 10.9452 25.1283 10.9437C25.1861 10.9391 25.2439 10.9361 25.3033 10.9346C25.4022 10.933 25.5026 10.9346 25.6015 10.9422C25.6197 10.9422 25.6395 10.9452 25.6593 10.9452C26.169 11.0304 26.7153 10.787 26.8522 10.2453C26.8644 10.1951 26.8826 10.1464 26.8994 10.0992C26.91 10.0764 26.9207 10.0551 26.9313 10.0323C26.98 9.93643 27.0348 9.84209 27.0941 9.75232C27.1109 9.72798 27.1276 9.70363 27.1459 9.67929C27.1535 9.67016 27.1596 9.66255 27.1672 9.65342C27.2509 9.55756 27.3437 9.47388 27.438 9.38867C27.4532 9.37802 27.4669 9.36889 27.4821 9.35824C27.5369 9.32172 27.5947 9.28825 27.6525 9.25629C27.7423 9.2076 28.0177 9.11935 27.6815 9.23195C27.7667 9.20456 27.8488 9.16956 27.9356 9.14522C28.0192 9.12088 28.1029 9.10262 28.1881 9.08588C28.176 9.08588 28.1638 9.08588 28.1501 9.08588C28.1684 9.08588 28.1851 9.08436 28.2033 9.08132C28.2064 9.08132 28.211 9.07979 28.214 9.07827C28.2414 9.07371 28.2718 9.07219 28.2946 9.07219C28.2992 9.07219 28.3038 9.07219 28.3083 9.07219C28.3905 9.06762 28.4742 9.06458 28.5579 9.0661C28.5655 9.0661 28.5716 9.0661 28.5792 9.0661C28.6218 9.0661 28.6629 9.06914 28.7055 9.07219C28.8257 9.09805 28.9413 9.13305 29.0585 9.16957C29.0767 9.17717 29.0935 9.18478 29.1071 9.19087C29.1832 9.23043 29.2563 9.27607 29.3263 9.32476C29.311 9.31107 29.2943 9.29738 29.2745 9.27912C29.2943 9.29738 29.3171 9.31411 29.3384 9.33237C29.3415 9.33389 29.3445 9.33541 29.3476 9.33846C29.4008 9.37497 29.4647 9.44344 29.3902 9.38106C29.4312 9.41758 29.4723 9.45562 29.5104 9.49518C29.5408 9.52713 29.5697 9.56061 29.5986 9.59408C29.6199 9.62908 29.6625 9.67472 29.6793 9.69906C29.7538 9.81166 29.8192 9.93034 29.8801 10.0505C29.8329 9.9486 29.8847 10.0429 29.906 10.1008C29.906 10.1038 29.909 10.1084 29.909 10.1114C29.9212 10.1373 29.9333 10.1647 29.9455 10.1905C29.9333 10.1647 29.9227 10.1434 29.9136 10.1236C29.9379 10.1905 29.9623 10.2575 29.9836 10.3259C30.0277 10.4705 30.0596 10.6166 30.0855 10.7642C30.0885 10.7931 30.0916 10.8235 30.0931 10.8524C30.0977 10.9254 30.0992 10.9985 30.0992 11.0715C30.0992 11.1354 30.0931 11.1993 30.0885 11.2632C30.0855 11.2754 30.084 11.2891 30.0809 11.3013C30.0718 11.3408 30.0596 11.3804 30.049 11.4199C30.0809 11.3363 30.0688 11.4184 30.0338 11.4869C30.0292 11.496 30.0262 11.5051 30.0216 11.5143C30.0125 11.5386 30.0018 11.563 29.9942 11.5888C29.9988 11.5751 30.0018 11.5614 30.0064 11.5493C29.7645 12.1107 30.0033 12.768 30.6287 12.9491C30.653 12.9567 30.6789 12.9643 30.7033 12.9734C30.7078 12.9734 30.7109 12.9765 30.7154 12.978C30.8934 13.0632 31.0578 13.1636 31.2191 13.2732C31.2495 13.296 31.2814 13.3204 31.3012 13.3401C31.3606 13.3934 31.4184 13.4497 31.4732 13.5075C31.5036 13.5395 31.5325 13.5729 31.5614 13.6064L31.566 13.611C31.569 13.6155 31.5721 13.6201 31.5736 13.6231C31.601 13.6627 31.6268 13.7023 31.6512 13.7434C31.6968 13.8164 31.7349 13.8925 31.7744 13.9701C31.7851 14.0005 31.7973 14.0294 31.8064 14.0598C31.8383 14.1587 31.8657 14.2607 31.887 14.3626C31.887 14.3702 31.8931 14.3931 31.8977 14.4189C31.8992 14.4387 31.9007 14.457 31.9022 14.4767C31.9114 14.5985 31.9129 14.7217 31.9083 14.845L31.9068 14.851ZM31.9114 14.5193C31.9114 14.5193 31.9053 14.4889 31.9007 14.4524C31.9068 14.4874 31.9114 14.5193 31.9114 14.5193Z" fill="#FFF9D0"/>
<path d="M17.9048 20.2327C17.4103 19.971 16.8458 20.1231 16.543 20.5902C16.5354 20.6024 16.5278 20.613 16.5186 20.6252C16.4106 20.7546 16.2995 20.8808 16.1793 20.9995C16.0941 21.0832 16.0059 21.1639 15.9146 21.243C15.8994 21.2567 15.8537 21.2917 15.8203 21.3206C15.7853 21.3464 15.7503 21.3708 15.7137 21.3951C15.5951 21.4758 15.4749 21.5518 15.3486 21.6203C15.2755 21.6599 15.2025 21.6994 15.1279 21.7344C15.099 21.7481 15.0701 21.7618 15.0427 21.774C14.8875 21.8333 14.7293 21.8835 14.5695 21.9246C14.4676 21.9505 14.3657 21.9718 14.2622 21.9901C14.2272 21.9961 14.1907 22.0007 14.1557 22.0068C14.4874 21.9444 14.2272 21.9961 14.1465 22.0022C13.9518 22.0174 13.7555 22.019 13.5607 22.0098C13.4466 22.0037 13.3325 21.987 13.2184 21.9794C13.5607 21.9992 13.2108 21.9733 13.1149 21.952C12.9719 21.9201 12.8319 21.879 12.6935 21.8318C12.7178 21.8425 12.6417 21.8196 12.5961 21.7983C12.5946 21.7983 12.593 21.7968 12.59 21.7953C12.5672 21.7862 12.5428 21.7755 12.52 21.7679C12.5398 21.774 12.558 21.7816 12.5733 21.7862C12.5048 21.7542 12.4378 21.7207 12.3724 21.6827C12.2735 21.6279 12.1792 21.5655 12.0864 21.5001C12.1016 21.5138 12.1168 21.526 12.1351 21.5442C12.1107 21.5229 12.0848 21.5032 12.059 21.4819C12.0498 21.4758 12.0407 21.4697 12.0331 21.4636C11.9905 21.4347 11.9525 21.3921 11.9829 21.4134C11.9586 21.3921 11.9342 21.3708 11.9114 21.348C11.8323 21.2719 11.7577 21.1912 11.6862 21.1076C11.674 21.0908 11.6619 21.0741 11.6497 21.0558C11.6056 20.9904 11.563 20.9234 11.5295 20.8519C11.3073 20.3803 10.5922 20.222 10.1677 20.4944C9.68231 20.8078 9.57276 21.351 9.81012 21.8562C9.95163 22.1574 10.1875 22.4328 10.4157 22.6687C10.9391 23.2088 11.6208 23.5968 12.3405 23.8053C14.142 24.3272 16.0546 23.787 17.4255 22.55C17.7359 22.27 18.0295 21.9414 18.2578 21.5899C18.5408 21.1517 18.3612 20.4715 17.9002 20.2281L17.9048 20.2327Z" fill="#FFF9D0"/>
<path d="M18.8719 7.11691C18.2846 6.97997 17.679 6.90541 17.081 6.84151C15.8972 6.7137 14.6937 6.70001 13.5115 6.84912C12.6579 6.95715 11.8195 7.11843 11.0085 7.41057C10.5201 7.58707 10.1397 8.09527 10.3131 8.6339C10.4683 9.11471 11.0131 9.51792 11.5365 9.32925C12.1786 9.09797 12.842 8.94429 13.516 8.83931C13.4962 8.84083 13.4749 8.84387 13.4491 8.84692C13.4795 8.84387 13.5115 8.83931 13.5419 8.83474C13.5434 8.83474 13.5464 8.83474 13.548 8.83474C13.5738 8.8317 13.6012 8.82866 13.6104 8.82713C13.6697 8.81953 13.729 8.81344 13.7899 8.80735C13.9618 8.7891 14.1353 8.7754 14.3087 8.76323C14.6131 8.74345 14.9174 8.73432 15.2217 8.7328C15.7679 8.73128 16.3157 8.75714 16.8589 8.80888C16.976 8.81953 17.0932 8.8317 17.2103 8.84539C17.2453 8.84996 17.2788 8.853 17.3138 8.85757C17.3914 8.88647 17.5025 8.88343 17.5831 8.8956C17.6638 8.90778 17.7444 8.92147 17.8235 8.93517C17.997 8.9656 18.172 8.99603 18.3439 9.03559C18.8491 9.15427 19.4455 8.87887 19.5672 8.34024C19.6829 7.83204 19.4151 7.2432 18.8719 7.11691ZM17.3199 8.85757C17.3382 8.85909 17.3549 8.86213 17.3732 8.86365C17.3929 8.8667 17.4127 8.86822 17.4325 8.87126C17.577 8.88952 17.3823 8.86822 17.3199 8.85757Z" fill="#FFF9D0"/>
</svg>
