<svg width="50" height="36" viewBox="0 0 50 36" fill="none" xmlns="http://www.w3.org/2000/svg">
<path d="M33.1158 21.313C32.936 21.1133 32.7163 20.9335 32.5165 20.7537C31.7375 20.0746 30.0397 18.7363 29.8599 18.5765C29.5603 18.2968 29.0809 18.3567 28.8212 18.4366C28.5615 18.5165 28.202 18.8561 28.202 18.8761C27.3431 19.7749 26.584 20.7737 25.7251 21.6725C25.3056 22.112 25.2457 22.7312 25.5254 23.2506C25.6852 23.5302 26.2045 24.6887 26.2444 24.8086C26.4642 25.4078 26.6439 26.027 26.8037 26.6662C26.9236 27.1856 27.5228 27.665 28.0622 27.625C29.1208 27.5651 30.1795 27.4253 31.2381 27.2655C31.5777 27.2255 31.9173 27.1856 32.2569 27.1057C32.9759 26.9459 33.3155 26.4066 33.3754 25.7075C33.4553 24.8485 33.5352 22.6913 33.5352 22.4516C33.5153 22.0121 33.3954 21.6526 33.1158 21.313ZM29.001 24.9085C28.7812 24.1894 28.5016 23.4903 28.182 22.8111C28.5615 22.3717 28.941 21.9322 29.3206 21.4728C29.5403 21.6526 30.559 22.5315 30.8386 22.7911C30.8386 22.871 30.7587 24.5489 30.7388 24.6887C30.7388 24.7087 29.4604 24.8685 29.001 24.9085Z" fill="#FFF9D0"/>
<path d="M14.9989 4.07466C12.2823 3.19577 9.76552 1.87744 7.44844 0.199556C6.54958 -0.459612 5.13137 0.639 5.53087 1.67769C7.14882 6.01221 8.70685 10.3667 10.3248 14.7012C9.40597 14.5814 8.46716 14.6413 7.58827 14.9809C6.03024 15.6001 4.7918 16.9584 4.83175 18.7162C4.8717 20.2143 5.71064 21.5925 6.94908 22.4115C8.28738 23.2904 10.0252 23.2105 11.4034 22.4514C12.9815 21.5726 13.9602 19.8947 14.0801 18.0969C14.1 17.6974 13.8803 17.3179 13.5607 17.0583C13.5807 17.0183 13.6007 16.9784 13.6007 16.9384C13.7005 16.6987 13.7205 16.4191 13.6206 16.1594C12.1625 12.2643 10.7443 8.32929 9.3061 4.43421C10.9041 5.29312 12.562 6.03219 14.2798 6.59148C15.8978 7.1308 16.5969 4.61398 14.9989 4.07466ZM11.4634 18.1169C11.4234 18.4365 11.4234 19.1157 10.6244 19.8747C9.96526 20.5139 8.32733 20.7736 7.60824 19.5551C7.06892 18.5963 7.58827 17.7374 8.28738 17.3978C9.34605 16.8785 10.4247 17.3179 10.8442 17.4378C11.1038 17.5177 11.3235 17.5976 11.5433 17.6974C11.5233 17.8173 11.4833 17.9571 11.4634 18.1169Z" fill="#FFF9D0"/>
<path d="M47.1381 7.92974C44.1418 7.29055 41.2455 7.65009 38.7287 9.24807C38.1294 7.92974 37.3704 6.65135 36.6313 5.53277C35.9522 4.4741 35.2131 3.45539 34.4141 2.4966C33.8349 1.79749 32.7962 2.13706 32.3567 2.75627C30.9785 4.69383 29.6801 6.91103 28.8611 9.2281C26.2844 8.34921 23.3881 7.74997 20.6715 8.00964C19.9724 8.06956 19.3531 8.54896 19.3731 9.308C19.3931 10.9859 19.7127 12.6837 20.272 14.3217C19.2932 14.861 18.3544 15.5401 17.4955 16.3191C16.5767 17.1381 17.3157 18.3366 18.2745 18.4964C18.1946 18.5363 18.1347 18.5763 18.0548 18.5963C17.855 18.6961 17.6553 18.796 17.4555 18.8959C16.8963 18.6162 16.1772 18.6762 15.7777 19.3553C12.9812 24.0094 15.0586 30.4014 19.0935 33.5574C22.1496 35.9543 25.805 36.5736 29.4804 35.4749C33.755 34.1966 36.9509 30.6211 37.6101 26.1867C37.7499 25.1879 37.7899 24.1892 37.69 23.2304C38.5089 23.0107 39.3079 22.751 40.067 22.4114C43.3029 20.9932 45.6 18.2567 46.8784 15.0208C47.6174 13.2031 48.0968 11.1257 48.0968 9.1482C48.0968 8.62885 47.6774 8.02961 47.1381 7.92974ZM30.6189 12.6238C30.9984 10.1869 32.1769 7.76994 33.5352 5.63264C33.9148 6.17196 34.2943 6.71128 34.6338 7.2506C35.7724 9.02835 36.9709 11.1057 37.1706 13.263C37.3105 14.8011 36.4915 16.2992 35.6126 17.5975C34.5539 16.0595 33.1158 14.7811 31.338 13.8822C31.0783 13.7424 30.7987 13.6225 30.539 13.5227C30.559 13.2231 30.579 12.9234 30.6189 12.6238ZM22.0897 10.6263C22.0897 10.6064 22.0897 10.5864 22.0897 10.5664C24.1471 10.5864 26.2444 11.0658 28.162 11.7249C28.1021 12.0445 28.0422 12.3641 28.0022 12.7037C28.0022 12.7437 28.0022 12.7636 28.0022 12.8036C26.2245 12.5239 24.4267 12.7037 22.7089 13.263C22.4293 12.4041 22.2495 11.5252 22.0897 10.6263ZM17.4955 21.8122C17.7352 21.6924 17.9549 21.5725 18.1946 21.4527C18.2745 21.6724 18.3344 21.8921 18.4143 22.1118C18.3145 22.3915 18.2146 22.6711 18.1147 22.9508C18.0548 23.0906 18.0148 23.2304 17.9549 23.3702C17.9349 23.3503 17.5554 23.0706 17.4555 22.9707C17.3756 22.8908 17.3157 22.8109 17.2358 22.751C17.3157 22.4314 17.3956 22.1318 17.4955 21.8122ZM22.7289 32.7783C22.7289 32.7184 22.7289 32.6785 22.7289 32.6185C23.0285 32.6585 23.3082 32.6785 23.6078 32.7184C23.8674 32.7384 24.1271 32.7783 24.3668 32.7983C24.5466 32.9981 24.7264 33.1978 24.9061 33.3776C24.187 33.2977 23.448 33.1179 22.7289 32.7783ZM34.6738 27.2653C34.2144 27.5649 33.735 27.8046 33.2756 28.0843C33.0558 28.2241 32.8361 28.3839 32.6963 28.6236C32.5964 28.7834 32.5565 28.9632 32.4965 29.1429C32.4166 29.4226 32.157 30.5811 31.9972 31.2603C31.338 31.8196 30.5989 32.279 29.78 32.6385C29.3006 32.8383 28.8012 32.9981 28.2819 33.1379C27.4829 32.3389 26.7838 31.44 25.9648 30.661C25.4255 30.1417 24.5466 30.2016 23.8275 30.1417C23.408 30.1017 22.3094 29.9619 22.2095 29.9419C22.0298 29.922 21.87 29.882 21.6902 29.8421C20.9112 29.6623 20.0722 30.1816 20.0523 31.0206C19.0136 30.0618 18.1746 28.9032 17.7152 27.5649C17.5354 27.0855 17.4156 26.5862 17.2957 26.0668C17.5155 26.1867 17.7552 26.3065 17.9749 26.4264C18.7939 26.7859 19.5928 26.5063 19.8925 25.6474C20.1721 24.8683 20.4717 24.0893 20.7514 23.2903C20.8313 23.0307 20.9511 22.791 21.0111 22.5313C21.1109 22.1917 21.051 21.8721 20.9511 21.5326C20.7514 20.9333 20.5516 20.354 20.3319 19.7548C20.232 19.4951 20.1521 19.2355 20.0123 18.9958C19.8126 18.6162 19.433 18.4165 19.0136 18.3765C19.1135 18.3166 19.1934 18.2567 19.2733 18.1768C20.292 17.258 21.5104 16.4789 22.8088 15.9396C23.9473 16.3391 25.0659 16.7586 26.2245 17.0982C26.5241 17.198 26.8437 17.238 27.1633 17.1581C27.4629 17.0782 27.7425 16.8984 28.0022 16.7186C28.4217 16.439 28.8611 16.1394 29.2606 15.8198C32.7962 17.1781 35.1132 20.5338 35.0933 24.369C35.1332 25.3677 34.9734 26.3465 34.6738 27.2653ZM45.3403 10.6863C45.3004 10.9459 45.2604 11.1856 45.2005 11.4453C45.1006 11.9846 44.9608 12.5439 44.801 13.0633C44.4015 14.3616 43.982 15.3004 43.203 16.4989C42.444 17.6375 41.3653 18.7161 40.1269 19.4752C39.228 20.0145 38.2093 20.4339 37.1507 20.7136C37.1107 20.5538 37.0308 20.414 36.9909 20.2542C37.9297 18.9758 38.7686 17.5975 39.3279 16.1394C39.8672 14.7212 39.8872 13.243 39.5876 11.8248C41.2854 10.5065 43.3229 10.067 45.4002 10.3067C45.4002 10.3067 45.3603 10.6463 45.3403 10.6863Z" fill="#FFF9D0"/>
<path d="M0.576813 1.15848C0.177318 3.21588 0.556839 5.41311 1.81525 7.13094C2.015 7.41058 2.25469 7.63031 2.59426 7.73018C2.91386 7.81008 3.33333 7.77013 3.61298 7.59036C4.1523 7.23081 4.51184 6.39187 4.09237 5.79263C3.8327 5.45306 2.75406 3.7552 3.13358 1.8576C3.25343 1.17846 2.93384 0.419417 2.21474 0.239644C1.5356 0.0998203 0.716637 0.439391 0.576813 1.15848Z" fill="#FFF9D0"/>
<path d="M46.7984 19.2356C45.8196 21.8323 43.7423 22.7911 43.0232 23.1307C42.404 23.4303 42.1842 24.3691 42.5438 24.9284C42.9633 25.5676 43.6823 25.7074 44.3415 25.4078C46.3989 24.429 48.1367 22.6513 49.0556 20.5739C49.1954 20.2343 49.2953 19.9347 49.1954 19.5552C49.1155 19.2556 48.8758 18.916 48.5961 18.7762C48.2965 18.6164 47.917 18.5365 47.5774 18.6363C47.2778 18.7362 46.9382 18.936 46.7984 19.2356Z" fill="#FFF9D0"/>
<path d="M47.1378 24.4289C46.6984 24.9683 45.1803 26.5862 43.6223 26.9458C42.9631 27.1056 42.4837 27.8646 42.7034 28.5637C42.9032 29.2029 43.6223 29.7023 44.3214 29.4825C46.1391 28.8833 47.797 27.7847 48.9955 26.2866C49.2152 26.0069 49.375 25.7273 49.375 25.3677C49.375 25.0482 49.2352 24.6686 48.9955 24.4489C48.7358 24.2292 48.4162 24.0494 48.0766 24.0694C47.757 24.0694 47.3575 24.1693 47.1378 24.4289Z" fill="#FFF9D0"/>
</svg>
